/* XPM */
static char * tree_5_111_xpm[] = {
"24 24 6 1",
" 	s None	c None",
".	s Dark green	c SeaGreen",
"X	s Light green	c Green",
"o	c Black",
"O	c Green3",
"+	s Dark brown	m white	c Sienna",
"                  .     ",
"                 .X     ",
"               .o.O     ",
"              .oO.X     ",
"             .oO.OO     ",
"           .o.O...X     ",
"          o...O.OO.     ",
"         .oOo...OOO     ",
"       .o..O.oo...X     ",
"      o.OoO..O.OXO.O    ",
"     .O....O...O..OX    ",
"    o.OoOo..O.O.OO.O    ",
"    .o..O.o..O.OOOOO    ",
"   .O.O..O.o.OXO..OX    ",
"   o.oOoo.O.O...OX.O    ",
"   .O...O.O.OXOOO.O.    ",
"   o.o...O.OO.OO..OX    ",
"   .O.oO.Oo....OOO..    ",
"    .OO.O.OOOOOOXOO     ",
"    o.O.o.O.OXOO.O.     ",
"     .oO..o.O.OOX.      ",
"      .O.OOOOOXO.       ",
"     ++.oO.OOO..        ",
"      ++ o....          "};
