/* XPM */
static char * chest_1_111_xpm[] = {
/* width height ncolors chars_per_pixel */
"24 24 4 1",
/* colors */
" 	s None	c None",
".	c Black",
"X	s Dark brown	m white	c Sienna",
"o	s Brown	m black	c Peru",
/* pixels */
"                        ",
"                        ",
"                        ",
"                        ",
"   ..................   ",
"   ..XXXXXXXXXXXXXXXX.  ",
"  ...XXXXXXXXXXXXXXXX.  ",
"  ..X.oooooooooooooooo. ",
" .X.X.XXXXXXXXXXXXXXXX. ",
" .X..oooooooooooooooo.  ",
".XX..XXXXXXXXXXXXXXXX.  ",
".XX..oooooooooooooooo.  ",
".XX.oooooooooooooooo.   ",
".XX..................   ",
".X.oooooo.oo.oooooo.    ",
".X.ooooooo..ooooooo.    ",
"..oooooooooooooooo.     ",
"..oooooooooooooooo.     ",
".oooooooooooooooo.      ",
"..................      ",
"                        ",
"                        ",
"                        ",
"                        "};
