/* XPM */
static char * luggage_117_xpm[] = {
/* width height ncolors chars_per_pixel */
"24 24 4 1",
/* colors */
" 	s None	c None",
".	c Black",
"X	s Dark orange	c Chocolate",
"o	s Yellow	c Gold",
/* pixels */
"                        ",
"                        ",
"  ..................... ",
" .X.XXXXXXXXXXXXXXXXXXX.",
".X......................",
"......o.o..........o.oo ",
"..oooo.o.o..o.oo.oo..o. ",
"...ooo.oo.oo...ooooo.oo.",
"........................",
".X.oo................oo.",
".X.o..XXXXXXXXXXXXXX..o.",
".X....XXXXX....XXXXX....",
".X..XX.XXXXX..XXXXX.XX..",
".X..XXXXXXXX..XXXXXXXX..",
".X..XXXXXXXX..XXXXXXXX..",
".X..XXXXXXXXXXXXXXXXXX..",
".X..XX.XXXXXXXXXXXX.XX..",
"......XXXXXXXXXXXXXX....",
" ..o..XXXXXXXXXXXXXX..o.",
" ..oo................oo.",
" .......................",
"                        ",
"                        ",
"                        "};
