/* XPM */
static char * ambolt_111_xpm[] = {
/* width height ncolors chars_per_pixel */
"24 24 3 1",
/* colors */
" 	s None	c None",
".	c Black",
"X	c grey75",
/* pixels */
"                        ",
"                        ",
"                        ",
"                        ",
"                        ",
"                        ",
"                        ",
"               ...      ",
"            ...X..      ",
"          ..XXX..       ",
"        ..XXX..         ",
"      ..XXX...          ",
"     ..X......          ",
"     ....X.......       ",
"         ......X.       ",
"        .........       ",
"       .....X....       ",
"      .X..X......       ",
"      .........         ",
"      .......           ",
"      .....             ",
"                        ",
"                        ",
"                        "};
