/* XPM */
static char * smith_111_xpm[] = {
/* width height ncolors chars_per_pixel */
"24 24 9 1",
/* colors */
" 	s None	c None",
".	c firebrick",
"X	c Salmon",
"o	c blue",
"O	c red",
"+	c navy",
"@	c yellow",
"#	c black",
"$	c Grey25",
/* pixels */
"                        ",
"          ...           ",
"         .XX..          ",
"         XooX.          ",
"         XXX..          ",
"       oo.OO.+oo        ",
"      o+++..++++o       ",
"     o++++.++++++o      ",
"     o++o+++++o++o      ",
"    o++oo++@++o++o      ",
"    o++o++++++o++o  #   ",
"   o++o o++@+++o+o ##   ",
"   o+o  o++++++o+o##    ",
"   X+o   oo+oooo+##     ",
"  XXX   o++++++XX#      ",
"  XXX   o++o+++#XX      ",
"   .    o++o++##X       ",
"   .   o++oo+##         ",
"   .   o++o ##+o        ",
"   .   o++o #++o        ",
"   .   o+oo  o+o        ",
"  $$$  ...   ...        ",
"  $$$ ....  ....        ",
"      ...   ...         "};
