/* XPM */
static char * store_armo_1_xpm [] = {
" 24 24 11 1 " ,
" 	s None	c None",
".	c Black",
"X	s Dark red	m white	c firebrick",
"o	s Gray	m white	c Grey50",
"O	s Dark brown	m white	c Sienna",
"+	s Dark gray	c Grey25",
"@	s Light gray	c Grey75",
"#	s Brown	c Peru",
"$	c White",
"%	s Light yellow	c yellow",
"&	s Dark blue	c Navy",
"        ................",
"        ..X.X.X.X.X.X.X.",
"       ....X.X.....X.X.X",
"       ...X.X.X..oo.X.X.",
"      .O...X.X+oo@@@.X.X",
"      .O.#..X.o+@@@...X.",
"     .OO.#.X.+o+@@@....X",
"     .OO.#..Xo@@++$.X.X.",
"    .OOO.##..o+@@@@X.X.X",
"    .OOO.##..o@+@$......",
"   .OOOO.##..X@@@..X..X.",
"   .OO.O.##.XXXXXXXXXXXX",
"  .OOO.O.##...X..X..X..X",
"  .OOO.O.#.XXXXXXXXXXXXX",
" .OO.O.O.#..X..X..X..X..",
" .OO.O.O.#.XXXXXXXXXXXXX",
".OO..O.O.#...X..X..X..X.",
".OO..OOO.#.XXXXXXXXXXXX.",
".O.@.OOO.#.X..X..X..X...",
".O.@.OOO.#.XXXXXXXXXXXX.",
".O.@.OOO....X..X..X..X..",
".O.@.O.O..XXXXXXXXXXXXX.",
".O..OO.O..X..X..X..X..X.",
".O..OO.O..XXXXXXXXXXXXX."};
