/* XPM */
static char * store_armo_4_xpm [] = {
" 24 24 11 1 " ,
" 	s None	c None",
".	c Black",
"X	s Dark red	m white	c firebrick",
"o	s Gray	m white	c Grey50",
"O	s Dark brown	m white	c Sienna",
"+	s Dark gray	c Grey25",
"@	s Light gray	c Grey75",
"#	s Brown	c Peru",
"$	c White",
"%	s Light yellow	c yellow",
"&	s Dark blue	c Navy",
"##.@@..#...X..X..X..X.  ",
"#.@@..##.XXXXXXXXXXXX.  ",
"#....##..X..X..X..X...  ",
"........XXXXXXXXXXXXX.  ",
".X..X..X..X..X..X..X.   ",
"XXXXXXXXXXXXXXXXXXXX.   ",
"..X..X..X..X..X..X...   ",
".....................   ",
"###################.    ",
"#&#&&&#&#&#&&&#####.    ",
"&&#&#&#&#&#&#&####.     ",
"&#&#&#&#&#&&&#####.     ",
"&#&&&#&&&#&#&####.      ",
"#################.      ",
".#######....####.       ",
"..####..@@@..###.       ",
"..###.@@@@@..##.  ......",
"..###.@.@@@..##.  .$$$$.",
".###.@.#.@..##.  .$$$$. ",
".###.@@.@@..##.  ...... ",
"###........##.     .    ",
"###........##.     .    ",
"#############     .     ",
".............     .     "};
