/* XPM */
static char * dread_111_xpm[] = {
"24 24 6 1 0 0",
" 	s None	c None",
".	c black",
"X	c white",
"o	c blue",
"O	s Dark brown	c Sienna",
"+	s Light Orange	c Orange",
"                        ",
"                     .. ",
"                    .XX.",
"                    .oX.",
"                     .. ",
"              ..    O+O ",
"             .oX.   O+O ",
"             .XX.   O+O ",
"             O..    O++O",
"      ..     O+OO    O+O",
"     .Xo.     O+O    O+O",
"     .XX.     O+OO   O+O",
"      ..O      O+OOOOO+O",
"      O++O     OO+O+++++",
" ..    O++OO OO+O+OO++++",
".XX.    O+++O+++O+++++++",
".Xo.     OOO+++O++++++++",
" ..OO     O+++++++++++++",
"  O+OO   O++++++++++++++",
"   O+OO  O+++.++++++++++",
"    O++OO+++++..+.....+.",
"     OO++++++++.........",
"      OO+O++++...XXXX...",
"       O++++++..XoooXX.."};
