/* XPM */
static char * wwall_w_1_116_xpm[] = {
/* width height ncolors chars_per_pixel */
"24 24 3 1",
/* colors */
" 	s None	c None",
".	c black",
"X	s Brown	c peru",
/* pixels */
"                        ",
"                        ",
"                        ",
"                        ",
"                        ",
"...........    .........",
"XXXX..XXX.     ...XXXXXX",
"X.XXXX.X..      .X.X.XXX",
".........      .........",
"..........     .........",
"XX.XXXX.       .XX..XXX.",
"XX..XXX.      .XXX..X.X.",
"X.XX...       .XX.X.XX.X",
"X.X.XX.      .XX..XXXX.X",
".XX...  .    .XX.X..X.X.",
".XXXX. ..     .X.XXXX.XX",
"XXX.XX..X.  ..X..X...XX.",
"XX.X.XX..X..XX.XX.XX..X.",
"........................",
"                        ",
"                        ",
"                        ",
"                        ",
"                        "};
