/* XPM */
static char * wwall_2_111_xpm[] = {
/* width height ncolors chars_per_pixel */
"24 24 3 1",
/* colors */
" 	s None	c None",
".	c black",
"X	s Brown	c peru",
/* pixels */
"                        ",
"                        ",
"                        ",
"                        ",
"                        ",
"    ....................",
"    ..XXXXXXXXXX.XXXXXXX",
"   .X.XX.XXXXXXXXXXX.XXX",
"   .X...................",
"  .XX...................",
"  .XX.XXXX.X.XX.XX.XXXX.",
" .XX..XXXX.XXXX.XX.XX.X.",
" .XX.XXXX.XXXX.XX.XXXX.X",
".XX..X.XX.XXXX.XX.XXXX.X",
".XX.XXXX.XXXX.XX.XXXX.XX",
".X..XXXX.XXXX.XX.XXXX.XX",
".X.XXXX.XX.X.XX.XXXX.XX.",
"...XXXX.XXXX.XX.XXXX.XX.",
"........................",
"                        ",
"                        ",
"                        ",
"                        ",
"                        "};
