/* XPM */
static char * wwall_w_1_114_xpm[] = {
/* width height ncolors chars_per_pixel */
"24 24 3 1",
/* colors */
" 	s None	c None",
".	c black",
"X	s Brown	c peru",
/* pixels */
"                        ",
"                        ",
"                        ",
"                        ",
"                        ",
"........................",
"XXXX.XXX...XX.X..XXXXXXX",
"XXXXXXXX.XX.XX.X.XXX.XXX",
"........................",
"........................",
"XX.XXX...X.X.X..XX.X.XX.",
"XX...XX.X...X....X..X.X.",
"X.XXXX.XX.XXXX.XX.XXXX.X",
"X.X.XX.X.X  X..XX..XXX.X",
".XXXX.XX..  XX...XX.X.XX",
".X.XX.X..XXXX.XX.XXXX.XX",
"XX...X...XXX.XX.X..X.XX.",
"XXXX..X.X.......XXXX.XX.",
"........................",
"                        ",
"                        ",
"                        ",
"                        ",
"                        "};
