/* XPM */
static char * pir_lass_112_xpm[] = {
/* width height ncolors chars_per_pixel */
"24 24 4 1",
/* colors */
" 	s None	c None",
".	c Black",
"X	s Light brown	c Khaki",
"o	s Dark yellow	c Goldenrod",
/* pixels */
"                        ",
"                        ",
"                        ",
"           ..     .     ",
"          .XX.    .     ",
"          ....    .     ",
"          .XX.    .     ",
"         .X..X.  ...    ",
"        .o....o.  .     ",
"        .oooooo...X.    ",
"     . .o.oooo..oo.     ",
"     ..o. ....  ..      ",
"........  .oo.          ",
"     ... .oooo.         ",
"     .  .oooooo.        ",
"        .oooooo.        ",
"       .oo.o.o.o.       ",
"       .oo.o.o.o.       ",
"      .oo..o.oo.o.      ",
"      .oo.oo.oo.o.      ",
"      .oo.oo.ooo..      ",
"       .. .o.o..        ",
"          .. .          ",
"                        "};
