/* XPM */
static char * turnundead_111_xpm[] = {
/* width height ncolors chars_per_pixel */
"24 24 2 1",
/* colors */
" 	c Black",
".	c white",
/* pixels */
"                        ",
"    .              .    ",
"    .              .    ",
"  .....    .     .....  ",
"    .      .       .    ",
"    .    .....     .    ",
"    .      .       .    ",
"    .      .       .    ",
"           .            ",
"           .     .      ",
"   .             .      ",
"   .           .....    ",
" .....     .     .      ",
"   .       .     .      ",
"   .     .....   .      ",
"   .       .     .      ",
"   .       .        .   ",
"       .   .        .   ",
"       .   .      ..... ",
"     .....          .   ",
"       .            .   ",
"       .            .   ",
"       .            .   ",
"       .                "};
