/* XPM */
static char *noname[] = {
/* width height ncolors chars_per_pixel */
"24 24 2 1",
/* colors */
"` c Black",
"a c Khaki",
/* pixels */
"aaaaaaaaaaaaaaaaaaaaaaaa",
"aaaaaaaaaaaaaaaaaaaaaaaa",
"aaaaaaaaaaaaaaaaaaaaaaaa",
"aaaaaaaaaaaaaaaaaaaaaaaa",
"aaaaa```````aaaaaaaaaaaa",
"aaaaaa``````aaaaaaaaaaaa",
"aaaaaaa`````aaaaaaaaaaaa",
"aaaaaaaaaa``aaaaaaaaaaaa",
"aaaaaa``````aaaaaaaaaaaa",
"aaaaaaa`````aaaaaaaaaaaa",
"aaaaaaaa````aaaaaaaaaaaa",
"aaaaaaaaaa``aaaaaaaaaaaa",
"aaaaaaaaaa``aaaaaaaaaaaa",
"aaaaaaaaaa``aaaaaaaaaaaa",
"aaaaaaaaaa``aaaaaaaaaaaa",
"aaaaaaaaaa``aaaaaaaaaaaa",
"aaaaaaaaaa``aaaaaaaaaaaa",
"aaaaaaaaaa``a``aaaaaaaaa",
"aaaaaaaaaa``````aaaaaaaa",
"aaaaaaaaaa```````aaaaaaa",
"aaaaaaaaaaa``````aaaaaaa",
"aaaaaaaaaaa``````aaaaaaa",
"aaaaaaaaaaaa````aaaaaaaa",
"aaaaaaaaaaaaa``aaaaaaaaa"
};
