/* XPM */
static char * big_demon_7_xpm [] = {
" 24 24 4 1 " ,
" 	s None	c None",
".	c black",
"X	c Red",
"o	c Yellow",
"                      .X",
"                      .X",
"                      .X",
"                      .X",
"                      .X",
"                     ..X",
"                     ..X",
"                      .X",
"                      .X",
"                      ..",
"                      ..",
"                      ..",
"                      ..",
"                     ...",
"                     ..X",
"                     ...",
"                      ..",
"                      ..",
"                      ..",
"                      ..",
"                        ",
"                        ",
"                        ",
"                       ."};
