/* XPM */
static char * demon2a_xpm[] = {
/* width height num_colors chars_per_pixel */
"72 96 4 1",
/* colors */
" 	s None	c None",
".	c black",
"X	c Red",
"o	c Yellow",
/* pixels */
"                            ...                                         ",
"                           ....                                         ",
"                           ...           ..                             ",
"            ............. ...            ...                            ",
"          ...XX.............             ...                            ",
"        ...................              ...                            ",
"       ....................              ...                            ",
"      ......................             ...                            ",
"     .X......................            ...                            ",
"    ..........................          ....                            ",
"   ............................         ....                            ",
"   ............................         ....               .......      ",
"  ..............................        ....             ...........    ",
"  ...............................      ....             .............   ",
" ...............................X      ....             ............X.  ",
" ..........................................            ...............  ",
" ................................XXXXX.....          .................  ",
" ................................XXXXXX....          .................. ",
" ...............................XXXXX......        ...................X ",
" ..     ........................XXXX......       .....................X ",
" ..     ........................XXX........    .......................X ",
" ..     ........................XXX.................................... ",
"         .................X.....XX........XXXX......................... ",
"         ...........   ...XX....XX........XXXXXXX...................... ",
"          ..........   ...XXX...XX.......XXXXXXXXX..................... ",
"          .........     ...XX..XXX.......XXXXXXXXX..................... ",
"          ........       ...X.XXXXXX....XXXXXXXXXXX.................... ",
"                         .....o.XX.....XXXXXXXXXXXX.................... ",
"                         .........Xo...XXXXXXXXXXXX...................  ",
"                          ..................XXXXXX....................  ",
"                          .......X.......X............................  ",
"                          ......XXX.....XX.XX.........................  ",
"                          .......XX....XXXXX.........................   ",
"                          ..............XX.X........................    ",
"                         .......XX..................................    ",
"                         .........X...............X..X.............     ",
"                        .X......XX............. ..................      ",
"                        ..XX....XX...........X..................        ",
"                        .XXXX...XX.......X..XXX.......X....  .          ",
"                        .XXX.. ...........XXX.XX....XXXX.               ",
"                       ..XXX.. ..........XXXXXXX.....XXX.               ",
"                       ..XXX.  ..........XXXXXXX.....XXXX               ",
"                       .XXX..  . .......XXXXXXXX.. ..XXXX               ",
"                      ..XXX..   .........XXXXXXX.. ..XXXX.              ",
"                      ..XX..    ....X....XXXXXXX.  ..XXXX               ",
"                      .XXX..    ...XX......XXXXX.  ..XXXX.              ",
"                      ..XX.    ....XXX....XXXXXX.  ...XXX               ",
"                      .XXX.    ....XX.....XXXXXX.  ...XXX.              ",
"                      .XX.    ..XXXXXX....XXXXXX.   ..XXX               ",
"                      .XX.    ..XXXXXX....XXXXXX.   ..XXX.              ",
"                      .XX.   ..XXXXXX.....XXXXXX.   ..XXX               ",
"                      .X..  ..XXXXXX......XXXXXX.   ..XX..              ",
"                      .X..  ..XXXXX.......XXXXXX.   ..XX.               ",
"                     ..X... .XXXXXX... .X.XXXXXX.   ..XX.               ",
"                     ..XX.. .XXXXXX.   ..XXXXXXX.   ..XX.               ",
"                      .XXX. .XXXXX.. ...X.XXXXXX.   ..XX.               ",
"                      .XXX...XXXXX..  ....XXXXXX.   ..XX.               ",
"                      ..XX..XXXXX..   .X..XXXXXX.   ..XX.               ",
"                      ..XX..XXXXX.  ...X...XXXX.. ....X..               ",
"                      ...X..XXXX..   ......XXXXX. ....X..               ",
"                      ......XXX..X.. ...X.XXXXXX. ...XX..               ",
"                     ......XXXX.... ..X.XXXXXXXX.....XX..               ",
"                     ..X....XX....   .XXX..XXXXXX....X...               ",
"                     .............  ..XXX..XXXX.X....XX..               ",
"                      ............  .XXX...XXXX.XXX.X....               ",
"                      ... .......  ..XXX  ..XXX..XX.....                ",
"                      ... ....... ..XXXX  ...XXXXXX....                 ",
"                      ..  ..X.... ..XXX    ..XXXX.....                  ",
"                         ..XX...  .XXXX ..  ...........                 ",
"                         .XXX......XXX.       ......XX.                 ",
"                        ..XXX.....XX..         .....XXX                 ",
"                       ..XXXX........            ...XXX                 ",
"                      ..XXXX......                 .XXX                 ",
"                     ..XXXXX.                      .XXX.                ",
"                  ...XXXXXX.                       .XXXX                ",
"                ...XXXXXXX.                       ..XXXX                ",
"              ..XXXXXXXXX.                        .XXXXX                ",
"              .XXXXXXXXX.                        ..XXXXX                ",
"              .XXXX.XX..                         ..XXXXX                ",
"              ..XX.XX..                          ..XXXXX                ",
"              ........                           .XXXXXX                ",
"                                                 .XXXXXX.               ",
"                                                 .XXXXXX.               ",
"                                                 .XX.XX.X               ",
"                                                 .XX X.XX               ",
"                                                 .XX XXXX               ",
"                                                 ... X.X                ",
"                                                 ..  X                  ",
"                                                                        ",
"                                                                        ",
"                                                                        ",
"                                                                        ",
"                                                                        ",
"                                                                        ",
"                                                                        ",
"                                                                        "};
