/* XPM */
static char * cave24_111_xpm[] = {
/* width height ncolors chars_per_pixel */
"24 24 2 1",
/* colors */
" 	c grey25",
".	c grey50",
/* pixels */
"                        ",
"                        ",
"                        ",
"                        ",
"                        ",
"                        ",
"                        ",
"                        ",
"                        ",
"                        ",
"                        ",
"                        ",
"                        ",
"                    ... ",
"                 ... . .",
"                . .... .",
"               .. . .. .",
"              .... .. ..",
"              .  .. . ..",
"             .... ..  ..",
"             ......... .",
"                  .. . .",
"             .....  .. .",
"             .......    "};
