/* XPM */
static char * cave10_111_xpm[] = {
/* width height ncolors chars_per_pixel */
"24 24 3 1",
/* colors */
" 	s None	c None",
".	c Grey25",
"X	c grey50",
/* pixels */
".XXXXXXXXXXX............",
"..XXXXXXX...............",
" .X..XXX.XXX............",
" .X.XX..................",
" .XXX..XXXXXX...........",
" .XX.XXXXXX.XX..........",
" .X.XXXXXXXXXXX.........",
" ..XX..X...XXX..........",
"  .XX.XX.XXXXX.XX.......",
"  .XX.XXXXXX..XXXX......",
"  .XXXXXXXXX.XXXX..XX...",
"   .XXXX..X..XX...XX.XXX",
"   ..X..XXX.....XXXX.XXX",
"    .XX.XXX.XXXXX.X.XXXX",
"    .XX.XXX.XXXX..X.XXXX",
"     .XXXX..XX.XXX....XX",
"     .XXX..XXX..XX.XX..X",
"      ....XXXX.XXX.XXX.X",
"      .XXXX.X..XXX.XXX.X",
"       .XX..X.XXXX.XXX..",
"        ..XXXXXXX.XXXXX.",
"          ....XXX.XXXXX.",
"             .....XXXXX.",
"                 ......."};
