/* XPM */
static char * archangel_114_xpm[] = {
"24 24 4 1",
" 	s None	c None",
"g	s Light yellow	c Yellow",
".	c Grey75",
"l	c White",
"        gggggggg        ",
"   .  gggggggggggg  .   ",
"    .ggg        ggg.    ",
"   .ggg     .    ggg.   ",
"    gg...  . .  ..gg    ",
"   gg...  ..... ...gg   ",
"   gg....  ...  ...gg   ",
"  gg ....ll...l.....gg  ",
"  gg....l......l... gg  ",
"  gg ..l......llll..gg  ",
"  gg ..l......l... .gg  ",
"  gg  l......l..l.. gg  ",
"  ggl........l...l. gg  ",
"  gg .l......l..... gg  ",
"  g.....l....l...l. gg  ",
"  ......l.l..l..... gg  ",
"  .. .. l....l...l. gg  ",
" ..g    .....l..... gg  ",
" . gg   .l....l... gg   ",
".  gg   ..l....l.  gg   ",
"    gg .........  gg    ",
"    ggg......... ggg    ",
"     ggl.l......ggg     ",
"      gg........gg      "};
