/* XPM */
static char * highangel_111_xpm[] = {
"48 72 5 1",
" 	c None",
".	c #FFEC63",
"+	c #FFFFFF",
"@	c #D8D8D8",
"#	c #EFD9BA",
"                                                ",
"                                                ",
"                                                ",
"                     ........                   ",
"                                                ",
"                                                ",
"        ++            +++++++                   ",
"      +++++           +++++++      +++          ",
"     +++++++         +++++++++   +++++          ",
"    +++++++++        +++++++++   ++++++         ",
"    +++++++++++      +++++++++   ++++++         ",
"   ++++++++++++      +++++++++  +++++++         ",
"   +++++++++++++     +++++++++  +++++++         ",
"  ++++@@++++++++     +++++++++ ++++++++         ",
"  +++@+++++++++++    ++++++++  +++++++          ",
"  +++@+++++++++++  +++++++++  ++++++++          ",
"  +++@++++++++++++++++++++++++++++++++          ",
"  +++@++++++++++++++++++++++++++++++++          ",
"  ++++++++++@@++++++++++++++++++++++++          ",
"  ++++++++++@+++++++++++++++++++++++++          ",
"  ++++++++++++++++++++++++++++++++++++          ",
"  +++++++++@+++++++++++++++++++++++++           ",
"  +++++++++@+++++++++++++++++++++++++           ",
"  ++++++++@@+++++++++++++++++++++++++           ",
" +++++++++@++++++++++++++++++++++++++           ",
" +++++++++@++++++++++++++++++++++++++           ",
" ++++++++@++++++++++++++++++++++++++++          ",
" ++++++++@++++++++++++++++++++++++++++          ",
" +++++++@@++++++++++++++++++++++++++++          ",
" +++++++@+++++++++++++++++++++++++++++          ",
" +++++++++++++++++++++++++++++++++++++          ",
" ++++++@++++++@@+++++++++++++++++++++++         ",
" ++++++@+++++@++@@+++++++++++++++++++++         ",
" ++++++@+++++++++@++++++++++++++++++++++        ",
" +++++++++++++++++@+++++++++++++++ +++++        ",
" +++++++++++@+++++++++++++++++++++ +++++        ",
" +++++++++++@++++@++++++++++++++++ +++++        ",
" ++++++++++@+++++@+++++++++++++++  +++++        ",
" ++++++++++@+++++++++++++++++++++   ++++        ",
" ++++++@+++@+++++++++++++++++++++   ++++        ",
" ++++++@+++@++++@++++++++++++++++  +++++        ",
" ++++++@++++@++@++++++++++++++++  +++++         ",
" ++++++@+++++@@@++++++++++++++++  +++++         ",
" ++++++@++++++@+++++++++++++++++  +++++         ",
" +++++++@+++++@+++++++++++++++++  +++++         ",
" ++++++++@+++@@+++++++++++++++++  ++++          ",
"  ++++++++@@@@@+++++++++++++++++                ",
"  +++++++++++@@+++++++++++++++++                ",
"  ++++++++++++@+@+++++++++++++++                ",
"   +++++++++++@++@++++++++++++++                ",
"   +++++++++++@+@+@+++++++++++++                ",
"   +++++++++++@++@++++++++++++++                ",
"   +++++++++++@+++@+@+++++++++++                ",
"   +++++++++++@+#+++++++++++++#+                ",
"    ++++++++++@+###++     +####+                ",
"    +++++++++@+####+      +####+                ",
"    +++++++++@+####+       +###+                ",
"    +++++++++@+####+       +###+                ",
"    ++++++++@+####+        +###+                ",
"     ++++++  +####+        +###+                ",
"     +++++   +####+        +###+                ",
"     +++++  ++###+         +###+                ",
"     ++++   ++###+         +###+                ",
"      ++     +###+         +###+                ",
"             ++##+         +###+                ",
"              +##+          +##+                ",
"              +##+          +##+                ",
"              +##+          +##+                ",
"              +###+         +###+               ",
"              +####+        +####+              ",
"              +#####+       +#####+             ",
"              +#####+        +###+              "};
