/* XPM */
static char * retributioner_5_xpm [] = {
" 24 24 9 1 " ,
" 	c None",
".	c #000000",
"+	c #919191",
"@	c #FFFF00",
"#	c #FFFFFF",
"$	c #2100FF",
"%	c #F4DECB",
"&	c #9E723A",
"*	c #705229",
"                 .******",
"                 .******",
"                 .******",
"                 .******",
"                 .......",
"                  .+++++",
"                  .+...+",
"                  .+++.+",
"                  .+..++",
"                  .+++++",
"                  .++++.",
"                  .+++..",
"                  .+++. ",
"                  .+++. ",
"                   .++. ",
"                  ..++. ",
"                 ..+... ",
"                ..++++. ",
"               ..+++++. ",
"              .+++++++. ",
"               ........ ",
"                        ",
"                        ",
"                        "};
