/* XPM */
static char * broo_113_xpm[] = {
"24 24 4 1",
" 	s None	c None",
".	c black",
"X	s Light Orange	c orange",
"o	s Light gray	c grey75",
"                        ",
"                        ",
"        ..  .           ",
"       ..  ...          ",
"        .. .            ",
"         ....           ",
"         .XX.           ",
"         .XX.           ",
"       ........         ",
"     .........o.. .     ",
"    ..o.........o...    ",
"    ...........o.o.XX   ",
"    .oo.oX....     .    ",
"     ..o.XX...          ",
"     .........          ",
"       ........         ",
"       ........         ",
"       ........         ",
"       .... ...         ",
"        ... ...         ",
"       ...  ...         ",
"       ...  ...         ",
"       .... ....        ",
"       .... ....        "};
