/* XPM */
static char * c_knight_112_xpm[] = {
"24 24 6 1",
" 	s None	c None",
".	c black",
"X	s Light brown	c Khaki",
"o	s Light gray	c grey75",
"O	s Dark orange	c chocolate",
"+	c red",
"                        ",
"                        ",
"                        ",
"        .   .           ",
"       .     .          ",
"        .. ..           ",
"         ...            ",
"         .X.            ",
"         .X.          . ",
"       ......        .  ",
"     .....o.o.      .   ",
"    ..O..o.o.... . .    ",
"   ..OOO..++. .....     ",
"   .OO.OO.++.    ...    ",
"   ..OOO..++.   .       ",
"    ..O..+..            ",
"   .o.o.o....           ",
"    .o.......           ",
"     .o .. ..           ",
"        .. ..           ",
"       ..  ..           ",
"       ..  ..           ",
"       ..   ..          ",
"        ..  ..          "};
