/* XPM */
static char * serp_man_172_xpm[] = {
"24 24 6 1",
" 	s None	c None",
".	c black",
"X	c firebrick",
"o	c Green3",
"O	c SeaGreen",
"+	c grey75",
"                        ",
"                        ",
"                        ",
"              ...       ",
"             .Xoo.      ",
"             .oo.       ",
"            .oo.        ",
"          ..o.          ",
"         .oooO..        ",
"        .O.oO.o.     .. ",
"        .Oo.+oO.    ..  ",
"        .O.++..O.  ..   ",
" .      .Oo++. .O ..    ",
" .     ..O.++.  ..      ",
" .     .o.O.+.  ...     ",
" .    .o.o. .. .        ",
" ..  .oo .. .           ",
"  .o.oo. .  .           ",
"   .o..  .   .          ",
"         .    .         ",
"         ..   ..        ",
"          ..  .         ",
"          ..            ",
"                        "};
