/* XPM */
static char * brefjell_111_xpm[] = {
/* width height ncolors chars_per_pixel */
"24 24 3 1",
/* colors */
" 	s None	c None",
".	c Black",
"X	c White",
/* pixels */
"                        ",
"        .....           ",
"       .XXXXX..         ",
"       ....XXXX.        ",
"       ...XXXX.X.       ",
"      ...XXXXXXXX.      ",
"      ..XXXXX.X.XX.     ",
"      .XXXXX.....X.     ",
"     ..XXXXX......X.    ",
"     .XXXXX.......X.    ",
"     .XXXXX.. . ...X.   ",
"    .XXXXXX.     ..X.   ",
"    .XXXXXX.     ...X.  ",
"   .XXXX.XX.  ..  ..X.  ",
"   .XX...XXX.     ..X.  ",
"  .XX.....XX.  ..  ..X. ",
"  .X......XX. .    ..X. ",
" .XX..XXX..X.   ..  .X. ",
" .X..XXXXX.XX. .    .. X",
" .X.XX...X..X.   ..  . X",
"  ..XXXXXXX.X.  .    . X",
" .XXX...X.XXX.    .  . X",
"                        ",
"                        "};
