#define close_width 24
#define close_height 13
static char close_bits[] = {
 0x00,0x00,0x00,0x26,0x18,0x73,0x29,0xa4,0x10,0x21,0x24,0x33,0x29,0x24,0x14,
 0xe6,0x19,0x73,0x00,0x00,0x00,0x40,0xc4,0x03,0xc0,0x46,0x00,0x40,0xc5,0x01,
 0x40,0x44,0x00,0x40,0xc4,0x03,0x00,0x00,0x00};
