/* XPM */
static char * wizard_111_xpm[] = {
/* width height ncolors chars_per_pixel */
"24 24 4 1",
/* colors */
" 	s None	c None",
".	c Black",
"X	c blue",
"o	c navy",
/* pixels */
"                        ",
"         ....           ",
"        .XXXX.          ",
"        .XXXX.          ",
"        .XXXX.          ",
"        .XoX.           ",
"       .XoXXX...        ",
"      .XXXXXoXXX..      ",
"     .XXoXXoXXXXXX..    ",
"    .XXoXXoXXoXXoXXX.   ",
"    .XoXXXoXXoX.XooX.   ",
"    .oX.XoXXoX. .XXo.   ",
"    .X. .XXXXX.  ..X.   ",
"     .  .......    .    ",
"        .XXXXX.         ",
"       .XXXXXX.         ",
"       .XXXXXXX.        ",
"       .XXXXXXX.        ",
"      .XXXXXXXX.        ",
"      .XoXXoXoX.        ",
"      .XoXXoXoXX.       ",
"     .XoXXoXoXXX.       ",
"     ............       ",
"                        "};
