/* XPM */
static char * behemoth_313_xpm[] = {
"24 24 5 1",
" 	s None	c None",
".	c black",
"X	c red",
"o	s Gray	c Grey50",
"O	s Light yellow	c yellow",
" .......................",
" ....XX........o........",
"   .XX..................",
"  ......................",
" ................oo.....",
"..... O........o........",
".... OO.......o.........",
" . .OO .......o.........",
" . OO.........o.........",
"  O. ....  .............",
"  ......    ............",
"   ....     ............",
"    ..     ...o........ ",
"         ......o......  ",
"      .........o......  ",
"     ........ooo....... ",
"     .......o...........",
"     . . .. ...........o",
"     . .  . ............",
"            . . ...... .",
"              . .       ",
"                        ",
"                        ",
"                        "};
