/* XPM */
static const char *const damned_xpm[] = {
"24 6 2 1",
" 	c None",
".	c #000000",
"....   .  .. .. .  .    ",
" .  . . . .. .. .. .    ",
" .  . ... . . . .. .    ",
" .  . . . . . . . ..    ",
"....  . . .   . .  .    ",
"                        "};
