/* XPM */
static char * lava_s_111_xpm[] = {
/* width height num_colors chars_per_pixel */
"24 24 5 1",
/* colors */
" 	s None	c None",
".	s Dark red	c Firebrick",
"X	c red",
"o	c black",
"O	c blue",
/* pixels */
"            .  .  ..    ",
"            ..XX..XX.   ",
"             XXXXXXXX.  ",
"         .   .XXXXX.X.  ",
"        .X. .XXX.XXXX.  ",
"        XXX.X.XXXX.XX.  ",
"        .XXX.XX.X.XX.   ",
"         .X.X.XX.XX.    ",
"      .  X.XX.XXXX.     ",
"       XX.X.XXXXX. .    ",
"       .XX.XX.XX.       ",
"        .XXX.XX.        ",
"          .XXXX .       ",
"         .X.X.          ",
"     oo .X.X.           ",
"      ooX.X.            ",
"     oooo .             ",
"    ooooo               ",
"   oOoo oo              ",
"  oOoo  oo              ",
" ooo   oo               ",
" oo  oo                 ",
"  ooo                   ",
"                        "};
