/* XPM */
static char * gate_1_115_xpm[] = {
/* width height ncolors chars_per_pixel */
"24 24 4 1",
/* colors */
" 	s None	c None",
".	c Black",
"X	s Light brown	c Khaki",
"o	c White",
/* pixels */
"                        ",
"                        ",
"                        ",
"                        ",
"                        ",
"    .. . . . . . . . .  ",
"    ..................  ",
"   .XXXXXXXXXXXXXXXXX.  ",
"   .XXXXX.....XXXXXX.   ",
"   .XXX..ooooo.XXXXX.   ",
"  .XXX..ooooooo.XXX.    ",
"  .XXX..o..o..o.XXX.    ",
"  .XXX..o..o..o.XXX.    ",
" .XXXXX.oooooo.XXX.     ",
"..XXXXX..o.oo.XXXX.     ",
"...................     ",
"...................     ",
"                        ",
"                        ",
"                        ",
"                        ",
"                        ",
"                        ",
"                        "};
