/* XPM */
static char * gate_2_114_xpm[] = {
/* width height ncolors chars_per_pixel */
"24 24 3 1",
/* colors */
" 	s None	c None",
".	c Black",
"X	c Khaki",
/* pixels */
"                        ",
"           ..           ",
"          ...           ",
"         ..X.           ",
"       ...X..           ",
"       ..XXX.           ",
"       ..XX..           ",
"       ..XXX.           ",
"       ..XX..           ",
"       ..XXX.           ",
"       ..XX..           ",
"       ..XXX.           ",
"       ..XX..           ",
"       ..XXX.           ",
"       ..XX..           ",
"       ..XXX.           ",
"       ..XX..           ",
"       ..XXX.           ",
"       ..XX..           ",
"       ..X.X.           ",
"       ...X.            ",
"       ..X.             ",
"       ....             ",
"       ....             "};
