/* XPM */
static char * ch_knight_w_111_xpm[] = {
/* width height ncolors chars_per_pixel */
"24 24 4 1",
/* colors */
" 	s None	c None",
".	c Black",
"X	s Light gray	c Grey75",
"o	c white",
/* pixels */
"                        ",
"                        ",
"                        ",
"          .X.           ",
"          .X......      ",
"         .oXo..XXX.     ",
"        .o.oooo..X.     ",
"       .X..ooooo.X.     ",
"      .oooooX.oo.XX.    ",
"     .Xooo.XX.ooo.X.    ",
"    .Xooo....oooo.X.    ",
"     .X.. .oooooo.X.    ",
"      .   .oooooo.X.    ",
"         .oooooo.XX.    ",
"        .ooooooo.X.     ",
"       .ooooooooX.      ",
"       .ooooooooX.      ",
"      .X.oooooo..       ",
"      .oX.oooo.X.       ",
"     .oooX....Xoo.      ",
"     .XoooooooooX.      ",
"      ...XoooX...       ",
"         .....          ",
"                        "};
