/* XPM */
static char * ch_king_111_xpm[] = {
/* width height ncolors chars_per_pixel */
"24 24 4 1",
/* colors */
" 	s None	c None",
".	c Black",
"X	c white",
"o	s Light gray	c Grey75",
/* pixels */
"          ...           ",
"          .X.           ",
"        ...X...         ",
"        .XXXXX.         ",
"        ...X...         ",
"       ....X....        ",
"       .........        ",
"       .o.....o.        ",
"        oo...oo         ",
"        ..ooo..         ",
"        .......         ",
"        .......         ",
"        .......         ",
"        .......         ",
"        .......         ",
"        .......         ",
"       ..o...o..        ",
"       ...ooo...        ",
"       .........        ",
"      .o.......o.       ",
"      ..oo...oo..       ",
"       ...ooo...        ",
"        .......         ",
"                        "};
