/* XPM */
static char * ch_rook_111_xpm[] = {
/* width height ncolors chars_per_pixel */
"24 24 3 1",
/* colors */
" 	s None	c None",
".	c Black",
"X	s Light gray	c Grey75",
/* pixels */
"         .....          ",
"       .........        ",
"      ...........       ",
"     .X.........X.      ",
"     .XX.......XX.      ",
"     ...XXXXXXX...      ",
"     .............      ",
"     .............      ",
"      X.........X       ",
"      .XX.....XX.       ",
"      ...XXXXX...       ",
"      ...........       ",
"      .....X.....       ",
"      ....XXX....       ",
"      .....X.....       ",
"      .....X.....       ",
"      .....X.....       ",
"     .XXX.....XXX.      ",
"     .X.XXXXXXX.X.      ",
"    ..XX.......XX..     ",
"    ...XXXXXXXXX...     ",
"     .............      ",
"      ...........       ",
"         .....          "};
