/* XPM */
static char * elf_151_xpm[] = {
"24 24 8 1",
" 	s None	c None",
".	c Black",
"X	s Dark brown	c Sienna",
"o	s Light red	c salmon",
"O	c Red",
"+	s Dark orange	c Chocolate",
"@	s Dark red	c Firebrick",
"#	s Dark green	c SeaGreen",
"                        ",
"           ..    X      ",
"          ....   X      ",
"          .ooo    X     ",
"      O   .ooo    X     ",
"       O   oo     X     ",
"        .......   X     ",
"       ..........oo     ",
"       ..+.......ooo    ",
"       ...+.....  X     ",
"        ...+.+.   X     ",
"         oo....   X     ",
"          oo@     X     ",
"         .###.   X      ",
"         .####.  X      ",
"        .##..#.         ",
"        .#.  .#.        ",
"        ..    ..        ",
"       .#.    .#.       ",
"       ..      ..       ",
"       ++      ++       ",
"       ++      ++       ",
"       ++      ++       ",
"                        "};
