/* XPM */
static char * monk_111_xpm[] = {
"24 24 7 1",
" 	s None	c None",
".	c black",
"X	s Dark brown	c Sienna",
"o	c salmon",
"O	c white",
"+	c Green3",
"@	c Khaki",
"                        ",
"          ..            ",
"         .XX.           ",
"         .XX.           ",
"         .oo.           ",
"         .oo.           ",
"          ..            ",
"        ...o...         ",
"       .OOO.OOO.        ",
"      ..O.OOO.O.        ",
"      .OO.OOO.O..       ",
"      .O.++O++.O.       ",
"     ... .+++. .o.      ",
"     .. .OOOO. ...      ",
"     .. .OOOOO. ..      ",
"        .OOOOO.         ",
"        ..OOO..         ",
"        .....@.         ",
"        .@...@.         ",
"        .@. .@.         ",
"        .o. .o.         ",
"        ... ....        ",
"        ...  ...        ",
"                        "};
