/* XPM */
static char * priest_131_xpm[] = {
/* width height ncolors chars_per_pixel */
"24 24 5 1",
/* colors */
" 	s None	c None",
".	c Black",
"X	s Brown	c Peru",
"o	s Light brown	c Khaki",
"O	s Light green	c Green",
/* pixels */
"                        ",
"         ...         X  ",
"        ...o.        X  ",
"        ..o..        X  ",
"        .oooo.      X   ",
"       ...oo.       X   ",
"       ..ooo.       X   ",
"       .....    XXXXX   ",
"        ......     XXXXX",
"        .O......   X    ",
"       ..OOO.O.O....    ",
"    ....O.OOO..OOOO..   ",
"    .O..OO.OO........   ",
"     .O.OO.OOO..  X     ",
"     ...OOOOOO..  X     ",
"      ..OOO.OO.   X     ",
"      ..O.OO.O.   X     ",
"      .OO.OOOO.   X     ",
"      .O.OO.OO.  X      ",
"     .OO.O.OOO.  X      ",
"     .O.OO.O.O.  X      ",
"    .OO..OOOOO.  X      ",
"    ..........   X      ",
"                        "};
