/* XPM */
static char * thief_151_xpm[] = {
"24 24 8 1",
" 	s None	c None",
".	c Black",
"X	s Light red	c salmon",
"o	s Gray	c Grey50",
"O	s Dark green	c SeaGreen",
"+	s Dark red	c firebrick",
"@	s Light brown	c Khaki",
"#	s Light green	c green",
"                        ",
"         ...            ",
"         ...            ",
"       .......          ",
"        .XXX.      o    ",
"         XXX      o     ",
"       .O.X.O.  o o     ",
"      .........  o      ",
"      ....o.... XXo     ",
"     .....o.....X       ",
"     ..O..o..O...       ",
"     . O..o..O..        ",
"     . OO+@+OOO#        ",
"     XXO.+@+.OOO        ",
"     XXO......OO#       ",
"      #.......OOO#      ",
"     #O...O....OO#      ",
"     #O...OO...OOO#     ",
"    #OO..OOO...OOO#     ",
"    #OO..   ++OOO#      ",
"       ++  +++          ",
"      +++   +++         ",
"     +++     +++        ",
"                        "};
