/* XPM */
static char * lich_112_xpm[] = {
/* width height ncolors chars_per_pixel */
"24 24 3 1",
/* colors */
" 	s None	c None",
".	c Black",
"X	s Light brown	c Khaki",
/* pixels */
"    .             .     ",
"      .         .       ",
"          ...           ",
"         .....          ",
"   . .   .X.X.   . .    ",
"        .X...X.         ",
"       ..X...X..        ",
"      .XXXXXXXXX.  . .  ",
"     .XXXX.XXX..X.      ",
"      ..XX.XX..X.  . .  ",
"  .  .X..X.XXX....      ",
"     ... ..XX.  ......  ",
" .  .X.  .XX..    ..    ",
"   ...   ..XX.          ",
"   .X.   .X.X.          ",
".   ..   .XXX.          ",
"      . .X.X.X.         ",
"  ..    ..XX.X.         ",
"        .XXX.X.         ",
"       .X.XXX.X.        ",
"       .X.XX.XX.        ",
"       .XX.XX.X.        ",
"      .XXXX.XX.X.       ",
"       .... .. .        "};
