/* XPM */
static char * thief_151_xpm[] = {
/* width height ncolors chars_per_pixel */
"24 24 4 1",
/* colors */
" 	s None	c None",
".	c Black",
"X	s Light brown	c Khaki",
"o	s Light gray	c Grey75",
/* pixels */
"                        ",
"            ...         ",
"            .X.         ",
"          .......       ",
"    .      .XXX.        ",
"     .      .X.         ",
"     . .  ..o.o..       ",
"      .  ....o....      ",
"     ... .........      ",
"       ....o...o...     ",
"       ......... ..     ",
"        .. .....  .     ",
"            .X.X  .     ",
"           .X.X. ..     ",
"          ...... ..     ",
"          .......       ",
"         .... ...       ",
"         ...  ...       ",
"         .o.   ..       ",
"          ..   ..       ",
"          ...  ..       ",
"         ...   ...      ",
"        ...     ...     ",
"                        "};
