/* XPM */
static char * icestorm_112_xpm[] = {
/* width height ncolors chars_per_pixel */
"24 24 4 1",
/* colors */
" 	s None	c none",
".	c Black",
"X	c white",
"o	c Khaki",
/* pixels */
"           ..    X      ",
"  X       .XX.  X      X",
" X   X     .X. X   X  Xo",
"    X       .     X...oo",
"   X   ..      X X.XXX.o",
"  X   .XX.    X   .XXXX.",
"       .XX.  X   X .XX.o",
"  .     ..      X   .  X",
" .X.      X   X       X ",
" .XX.    X  X  X  X  X  ",
"  ..    X  X     X      ",
"      X     X X X      X",
"  X  X    X      X  X X ",
" X  X    X      X  X    ",
"X     X X  .   X        ",
"     X     X.    X     X",
"..  X  .  .XX.  X  ..   ",
"XX.   .X. .X.  X  .XX. X",
"XX.  .XX   .      .XX. X",
"..    .X.     ...  .X.  ",
"       .     .XXX. ..   ",
"   ..     .   . .     X ",
"  .XX.   .X.         X  ",
"  .X.    .XX.       X   "};
