/* XPM */
static char * bagpipe_112_xpm[] = {
/* width height ncolors chars_per_pixel */
"24 24 3 1",
/* colors */
" 	s None	c None",
".	c Black",
"X	c Orange",
/* pixels */
"     ........           ",
"    ...XXXX..........   ",
"   .XXXXXX...........   ",
"  .XXXXXXX.....X.       ",
" ..XXXXXXXX.XXXX...     ",
" .XXXXXXXXXXXXXXXX..    ",
" .XXXXXXXXX.XXXXXXX..   ",
" .XXXXXXXX..XXXXXXXX..  ",
" .....XXX....XXXXXXXX.. ",
" ......X.....XXXXXXXXX. ",
" .... .XX.....XXXXXXXX..",
" .....XXXXX.....XXXXXXX.",
"  .. .XXXXXX.....XXXXXX.",
"  .. .XXXXXXXX.....XXXX.",
"  .. .XXXXXXXXXX....XXX.",
"  .. .XXXXXXXXXXX.....X.",
"  .. .XX..XXXXXXXX...XX.",
"  .. .X...XXXXXXXXX.XXX.",
"  .. .X.XXXXXXXXXXXXXXX.",
"  ..  X.XXXXXXXXXXXXXX..",
"  .. ...XXXXXXXXXXXXX.. ",
"  .. ..XXXXXXXXXXXXXX.  ",
"  ..   .XXXXXXXXXXXX..  ",
" ....   .............   "};
