/* XPM */
static char * avatar_131_xpm[] = {
"24 24 7 1",
" 	s None	c None",
".	c black",
"X	c red",
"o	c yellow",
"O	c grey50",
"+	c gold",
"@	c goldenrod",
"                        ",
"          .  . . .      ",
"           . .. .       ",
"           ..XX..       ",
"           .XoX..       ",
"            .XX.        ",
"            .XX.        ",
"          OO .. O       ",
"    OOOOOO + + O O      ",
"    O + +OOOOOO +O      ",
"    OOOOOO + O +O       ",
"         OOO+ +O O      ",
"          O OOO O       ",
"           O @ @O       ",
"           O@ @ O       ",
"          OO O @O       ",
"          O @OO OO      ",
"          O@ OO@ O      ",
"          O @OO @O      ",
"          O@ OO@ O      ",
"         OO @OO @O      ",
"         O @OO @ O      ",
"          OO  OOO       ",
"                        "};
