/* XPM */
static char * earth_shield_112_xpm[] = {
"24 24 10 1",
" 	c None",
".	c #000000",
"+	c #7F7F7F",
"@	c #404040",
"#	c #BFBFBF",
"$	c #2E8B57",
"%	c #00CD00",
"&	c #00FF00",
"*	c #CD853F",
"=	c #D2691E",
"    ................    ",
"    .++++@+..@++++@.    ",
"    .+++++@+@+++++@.    ",
"    .@+##@+.@#+##++.    ",
"    .++####$.###+++.    ",
"    .+++##$%$%#&#++.    ",
"    .++##%$.$$##&+@.    ",
"    .++#%%*$*$%&++@.    ",
"    .@+&%*=$=%%#&++.    ",
"    .++%%*=$**%&#+@.    ",
"    .++##%$.$%%%#++.    ",
"    .@+&%%$$$%%#++@.    ",
"    .++#&%%*$%%%#+@.    ",
"     @++&#%*$%#%++.     ",
"     .++&%%$.%%&+@.     ",
"     .++#%$%$%##++.     ",
"     @@+&#%$.$%%+@@     ",
"      .++&$%$%#&+.      ",
"      .++#+$###+@@      ",
"       @+#+.$++@.       ",
"        .@+@.+@.        ",
"         @@@@@@         ",
"         @..@.          ",
"           ..           "};
