/* XPM */
static char * cathedral_9_xpm [] = {
" 24 24 6 1 " ,
" 	s None	c None",
".	c Black",
"X	s Dark gray	c Grey25",
"o	s Gray	m white	c Grey50",
"O	s Light gray	c Grey75",
"+	c White",
"XoXoXoXX...             ",
"XXXXXXX.o..             ",
"XoXoX.X....             ",
"XXXXX...o...o           ",
"XoXoX.X.o..oO           ",
"XXXXX.X..XoOo           ",
"XoXoX.X..XooO           ",
"XXXXX....XooO           ",
"XoXoX.o.XooO            ",
"XXXX.o.XXooO.           ",
"XoXo.o.XooOo.           ",
"XXX..o.XooOo.           ",
"Xoo.X.o..Oo.            ",
"XX..X..ooo.O            ",
"X..XX.o...O             ",
"o..X..oooOO             ",
"..XX.oooOO.             ",
"o....oooOO.             ",
"ooo.oooOOo.             ",
".oo.oooOOo.             ",
".o.oooOO.o.             ",
".o.oooOO.X.             ",
"o.oooOOX.o.             ",
"o.oooOOX.o.             "};
