/* XPM */
static char * longtable_C_111_xpm[] = {
"24 24 3 1",
" 	c Black",
".	s None	c None",
"X	s Brown	c Peru",
"                      ..",
"XXXXXXXXXXXXXXXXXXXXX ..",
"XXXXXXXXXXXXXXXXXXXXX ..",
"XXXXXXXXXXXXXXXXXXXXX ..",
"XXXXXXXXXXXXXXXXXXXXX ..",
"XXXXXXXXXXXXXXXXXXXXX ..",
"XXXXXXXXXXXXXXXXXXXXX ..",
"XXXXXXXXXXXXXXXXXXXXX ..",
"XXXXXXXXXXXXXXXXXXXXX ..",
"XXXXXXXXXXXXXXXXXXXXX ..",
"XXXXXXXXXXXXXXXXXXXXX ..",
"XXXXXXXXXXXXXXXXXXXXX ..",
"XXXXXXXXXXXXXXXXXXXXX ..",
"         XXXXXXXXXXXX ..",
"XXXXXXX  XXXXXXXXXXXX ..",
"         XXXXXXXXXXXX ..",
"......   XXXXXXXXXXXX ..",
"......   XXXXXXXXXXXX ..",
".....    XXXXXXXXXXXX ..",
".....    XXXXXXXXXXXX ..",
"....  .  XXXXXXXXXXXX ..",
"....  .  XXXXXXXXXXXX ..",
"...  ..  XXXXXXXXXXXX ..",
"...  ..  XXXXXXXXXXXX .."};
