/* XPM */
static char * restoredex_111_xpm[] = {
"24 24 3 1",
" 	s None	c None",
".	s Light blue	c dodgerblue",
"X	c white",
"                        ",
"                        ",
"                        ",
"                        ",
"                        ",
"          ....          ",
"          ....          ",
"          ....          ",
"          ....          ",
"          ....          ",
"          ....          ",
"         .X....         ",
"        .X......        ",
"       .XX.......       ",
"       .X..XXXX..       ",
"      .XX..X..X...      ",
"      .XX..X..X...      ",
"      .XX..X..X...      ",
"      .XX...XX....      ",
"       .X........       ",
"       .XX.......       ",
"        ........        ",
"          ....          ",
"                        "};
