/* XPM */
static char * bwall_A_111_xpm[] = {
/* width height ncolors chars_per_pixel */
"24 24 3 1",
/* colors */
" 	s None	c None",
".	c grey50",
"X	c Gold",
/* pixels */
"                        ",
"........................",
"....X.........X.........",
"XXXX.XXXXXXXXX.XXXXX.XXX",
"XXXXXXXXXXXXXXXXXXXXXXXX",
"XX.XXXXXXXXXXXXXXXXXXXXX",
"XX.XXXXX..XXXXXXXXXXXXXX",
"X.XXXXXX.XXXXXXX..XX.XXX",
"XXXXXXXXXXXXXXXXXXXXXXXX",
"XXXXXXXXXXXXXXXXXXXXXXXX",
"XXXXXX.XXX.XXXXX..XXXXXX",
"XXXXX.XXXXXXXXXXXXXXX.XX",
"XXXXXXXXXXXXXXXXXXXXXXXX",
"XXXX.XXXXXX.XXXXXX.XXXXX",
"XXX.XXXXXXXXXXXXX..XXXXX",
"XXXXXXXXXXXXXXXXXXXXXXXX",
"XX..XXXX..XXXXXX.XXXX.XX",
"..X.....XX......X....X..",
"XX.XXXXXX.XXXXXXXXXXXXXX",
"XXXXXXXXXXXXXXXXXXXXXXXX",
"XXXXXXXXXXXXXXXXXXXXXXXX",
"XXXXXX.XXXXX.XXXXX.XXXXX",
"XXXX..XXXXX.XXXXX.XXXXXX",
"....  ........... ......"};
