/* XPM */
static char * bwall_9_111_xpm[] = {
/* width height ncolors chars_per_pixel */
"24 24 3 1",
/* colors */
" 	s None	c None",
".	c grey50",
"X	c Gold",
/* pixels */
".XXXX.XXXXXXXXXXXXXX... ",
"...XX.XXXXXXXXX.XXXX... ",
".....XXXXXXXXXX.XXXX... ",
"XXXXXXXXXXXXXXXXXXXX... ",
"XXXXXXXXXXXXXXXXXXXX... ",
"XXXXXXXX..XXXXXXXXX.X.. ",
"XXXXXXXXXXXXXXXXXXX.X.. ",
"XXXXX.XXXXX.XXXXXXXX... ",
"XXXXXXXXXXX.XXXXXXXX... ",
"XXXXXXXXXXXXXXXXXXXX... ",
"XXX.XXXXXXXXXXXXXXXX... ",
"XX.XXXXXXX.XXXXXX.XX... ",
"XXXXXXXXX..XXXXXXXXX... ",
"XXXXXXXXXXXXXXXXXXXX... ",
"XXXXXXXXXXXXXXXXXXXX... ",
"XXXXXXXXXXXXXXX.XXXX... ",
"XXX..XXXXXX..X.XXXX.... ",
"...XX......XX......X... ",
"XXX.XXXXXXX.XXXXXXXX... ",
"XXXXXXXXXXXXXXXXXXXXX.. ",
"XXXXXXXXXXXXXXXXXXXXX.. ",
"XXXXXXXXXXXXXX.XXXXXXX. ",
"XXX.XXXX..XXX..XXXXXX.  ",
"........ .... .......   "};
