/* XPM */
static char * holyshield2_111_xpm[] = {
"24 24 5 1",
" 	s None	c None",
".	s Dark red	c Firebrick",
"X	s Yellow	c Gold",
"o	s Light red	c Salmon",
"O	m Black	c white",
"                        ",
"                        ",
"    ...............     ",
"    .XXXXXXXXXXXXX.     ",
"    .X...........X.     ",
"    .X....ooo....X.     ",
"    .X....oOo....X.     ",
"    .X.ooooOoooo.X.     ",
"    .X.oOOOOOOOo.X.     ",
"     .X.oooOooo.X.      ",
"     .X...oOo...X.      ",
"     .X...oOo...X.      ",
"     .X...oOo...X.      ",
"      .X..oOo..X.       ",
"      .X..oOo..X.       ",
"      .X...o...X.       ",
"       .X..o..X.        ",
"       .X.....X.        ",
"        .X...X.         ",
"        .X...X.         ",
"         .X.X.          ",
"          .X.           ",
"           .            ",
"                        "};
