/* XPM */
static char * round_shiel2_111_xpm[] = {
"24 24 7 1",
" 	s None	c None",
".	s Dark gray	c Grey25",
"X	m Black	c Orange",
"o	s Dark orange	c Chocolate",
"O	s Gray	c Grey50",
"+	c white",
"@	s Light gray	c Grey75",
"                        ",
"         .....          ",
"       ...X.X...        ",
"     ...oXo.oXo...      ",
"    ..XoXoX.XoXoX..     ",
"   ..XoXoXo.oXoXoX..    ",
"   .XoXoXoX.XoXoXoX.    ",
"  ..oXoXoXo.oXoXoXo..   ",
"  .oXoXoXo...oXoXoXo.   ",
" ..XoXoXo.OO..oXoXoX..  ",
" .XoXoXo.O+@O..oXoXoX.  ",
" ........O@...........  ",
" .XoXoXo..O....oXoXoX.  ",
" ..XoXoXo.....oXoXoX..  ",
"  .oXoXoXo...oXoXoXo.   ",
"  ..oXoXoXo.oXoXoXo..   ",
"   .XoXoXoX.XoXoXoX.    ",
"   ..XoXoXo.oXoXoX..    ",
"    ..XoXoX.XoXoX..     ",
"     ...oXo.oXo...      ",
"       ...X.X...        ",
"         .....          ",
"                        ",
"                        "};
