/* XPM */
static char * icor_117_xpm[] = {
"24 24 3 1",
" 	s None	c None",
".	c Green3",
"X	s Dark brown	c Sienna",
"                        ",
"                        ",
"                        ",
"                        ",
"                        ",
"                        ",
"                        ",
"                        ",
"           ...          ",
"         .......        ",
"        ..XX......      ",
"      ...X..X..X...     ",
"      .....X..X.X..     ",
"     .....X.X.....      ",
"     .........X....     ",
"    ....XX...X.X....    ",
"    ...X..X.......      ",
"     ..........         ",
"        ..              ",
"                        ",
"                        ",
"                        ",
"                        ",
"                        "};
