/* XPM */
static char * elem_fire_111_xpm[] = {
/* width height ncolors chars_per_pixel */
"24 24 5 1",
/* colors */
" 	s None	c None",
".	c Red",
"X	c gold",
"o	c yellow",
"O	c DarkOrange2",
/* pixels */
"                        ",
"                        ",
"         .        .     ",
"         .  .     .     ",
"     .   ...      .  .  ",
"    .   ...      ....   ",
"  . .    ...   . ..     ",
"   ..  ......  ....    .",
"   .. ...XoX..  ...    .",
"    ....XX.XX....o..  .o",
"   ....XX...X.X..... ..X",
" ...o..X...X..X.XX.  . .",
" .....o.....o....O....  ",
".   ..O..X.X.O.XX.O...  ",
"     .O..X..X...XX...   ",
"    ...X..X.O..XoX.X.   ",
"    .o.X..oX.X.X....    ",
"  ...X.X..X.XX..X..     ",
"    ...X..O...O.oX.     ",
"   . ..o...X..o..X.     ",
"  .  ...X..X.O..X...    ",
"      ..X..o.O..X..     ",
"      ..X..X.O..Xo.     ",
"     ...X..XXO..X..     "};
