/* XPM */
static char * woodwall_9_111_xpm[] = {
"24 24 4 1",
" 	s None	c None",
".	s Dark brown	m white	c Sienna",
"X	s Brown	c Peru",
"o	c black",
"      .Xo..Xo.o..o      ",
"      o..Xo..Xo..o      ",
"      .Xo..Xo.o..o      ",
"ooooooooooooooo..ooooooo",
".......................o",
".......................o",
"ooooooooooooooo..ooooooo",
"XXXXXXXoXXXXXoo..oXXXXo ",
"......o......ooooo....o ",
"o.o.o.o.o.o.ooXXo.o.oo  ",
"XXoXXXXXXXXXoo..oXXXXo  ",
".o.........oo.oo....o   ",
".o.o.o.o.o.ooXXo.o.oo   ",
"XXXXXXXoXXoo..oXXXXo    ",
"......o...oo.oo....o    ",
"o.o.o.o.oooXXoo.o.o     ",
"XXXXXXXXXoo..oXXXXo     ",
"........oo.oo....o      ",
".o.o.o.oooXXoo.o.o      ",
"XXXoXXXoo..oXXXXo       ",
"..o...ooo.oo....o       ",
"o.o.o.oo.Xo.o.oo        ",
"      oo..o             ",
"      o.oo              "};
