/* XPM */
static char * c_priest_131_xpm[] = {
"24 24 8 1",
" 	s None	c None",
".	c black",
"X	c goldenrod",
"o	c Khaki",
"O	c grey50",
"+	c grey75",
"@	c red",
"#	c white",
"                        ",
"                        ",
"            . ...       ",
"            ..XX.       ",
"            ..XX.       ",
"            ....        ",
"    X.      .oo.        ",
"    ..      ....        ",
"  X..      .O..+.       ",
"  .. .    .+OOO++.      ",
"     ..  .O+O+++O.      ",
"      .  ..O++++..      ",
"      ...@.+O+++.@.     ",
"       ..@.+O+++.@.     ",
"       .o..+O++++...    ",
"        ...+O++++.o.    ",
"         ..+++++O..     ",
"          ..++++..      ",
"          .O......      ",
"          .O#O#O#.      ",
"           .#O#O#.      ",
"         ........       ",
"         ...  ...       ",
"                        "};
