/* XPM */
static char * firewall_3_111_xpm[] = {
/* width height ncolors chars_per_pixel */
"24 24 3 1",
/* colors */
" 	s None	c None",
".	c grey50",
"X	c Gold",
/* pixels */
"                        ",
"  ...................   ",
" .XX..................  ",
".XXXXX.XXXXX.XXXX.X.... ",
".XXXX.XXXXXX.XXX.XXX... ",
" .XXX.XXXXX.XXXXXXXX... ",
".XXX..XXXXXXXXXXXXX.... ",
".XXXX.XXXXX.XXXX.XXX... ",
".X.XX.XXXXXXXXXXXX..... ",
"..XXX.X.XXXXXXXXXX..... ",
".XXXX.XXXXXXXXXXXX..X.. ",
".XXX.XXXXXXXX.XXXX..... ",
"..X.X.XXXXXX.XXXXXXX... ",
".XXXX.XXXXXXXXXXXX.X... ",
".XXXX.XX.XXXXXXXXXXX... ",
".X.XX.XXXXXXXXXXXXXX... ",
".XXXXX.XXXXXXX.XXXX.... ",
" .XXXX........X....X... ",
".XXXX.XXX.XXXX.XXXXX... ",
".XXX.XXXXXXXX.XXXXXXX.. ",
".XX.XXX.X.XXXXXXXXXXX.. ",
".X.XXXXXX.XXXX.XXX.XXX. ",
" .XXX.XX.XXXX.XXXX.XX.  ",
"  ...... ......... ..   "};
