/* XPM */
static char * firewall_6_111_xpm[] = {
/* width height ncolors chars_per_pixel */
"24 24 3 1",
/* colors */
" 	s None	c None",
".	c grey50",
"X	c Gold",
/* pixels */
"                        ",
"  ...................   ",
" .XX..................  ",
".XXXXX.XXXXX.XXXX.X.... ",
".XXXX.XXXXXX.XXX.XXX... ",
" .XXX.XXXXX.XXXXXXXX... ",
".XXX..XXXXXXXXXXXXX.... ",
".XXXX.XXXXX.XXXXX.XX... ",
".X.XX.XXXXXXXXXXXXXX... ",
"..XXX.X.XXXXXXXXXXXX... ",
".XXXX.XXXXXXXXXXXX.X... ",
".XXX.XXXXXXXX.XXXXX.... ",
"..X.X.XXXXXX.XXXXXXX... ",
".XXXX.XX.XXXXXXXXX.X... ",
".XXXX.XXXXXXXXXXXXXX... ",
".X.X....XXXXXXXXXXXX... ",
".XXX....XXXXXX.XXXX.... ",
" .XX.X........X....X... ",
".XXXX...X.XXXX.XXXXX... ",
".XXX.XXXXXXXX.XXXXXXX.. ",
".XX.XXX.X.XXXXXXXXXXX.. ",
".X.XXXXXX.XXXX.XXX.XXX. ",
" .XXX.XX.XXXX.XXXX.XX.  ",
"  ...... ......... ..   "};
