#define locked_width 24
#define locked_height 6
static char locked_bits[] = {
 0xc7,0x71,0x26,0x22,0x8a,0x14,0x22,0x0a,0x0c,0x2a,0x8a,0x14,0xcf,0x71,0x36,
 0x00,0x00,0x00};
