/* XPM */
static char *noname[] = {
/* width height ncolors chars_per_pixel */
"24 24 2 1",
/* colors */
"` c Black",
"a c Khaki",
/* pixels */
"aaaaaaaaaaaaaaaaaaaaaaaa",
"aaaaaaaaaaaaaaaaaaaaaaaa",
"aaaaaaaaaaaaaaaaaaaaaaaa",
"aaaaaaaaaaaaaaaaaaaaaaaa",
"aaaaaaaaaaaaaaaaaaaaaaaa",
"aaaaaaaaaaaaaaaaaaaaaaaa",
"aaaaaaaaaaaaaaaaaaaaaaaa",
"aaaaaaaaaaaaaaaaaaaaaaaa",
"aaaaaaaaaaaaaaaaaaaaaaaa",
"aaaaa```````````````````",
"aaaa``aaaaaaaaaaaaaaaaaa",
"aaa`a``a``a``a``a``a``a`",
"aa`a`a`aaaaaaaaaaaaaaaaa",
"a`a`a`a`a``a``a``a``a``a",
"`a`a`a``aaaaaaaaaaaaaaaa",
"``a`a`a``a``a``a``a``a``",
"```a`a`a`aaaaaaaaaaaaaaa",
"`a``a`a`a`a``a``a``a``a`",
"``a``a`a``aaaaaaaaaaaaaa",
"`a`a``a`a``a``a``a``a``a",
"``a`a``a`a`aaaaaaaaaaaaa",
"`aaa`a``a`a`a``a``a``a``",
"``aaa`a``a``aaaaaaaaaaaa",
"`aaaaa`a``a``a``a``a``a`"
};
