/* XPM */
static char * lockpicks_111_xpm[] = {
"24 24 3 1",
" 	s None	c None",
".	c black",
"X	c grey75",
"                        ",
"                        ",
"         ....           ",
"            ...         ",
"   ...    ..  ..        ",
"  .. ..       ..        ",
"  .   X.       ..       ",
"  ..   X.      ..       ",
"   .    X.      ..      ",
"         X.     ..      ",
"          X.     ..     ",
"    ...   .X.    ..     ",
"   .. ..   XX.    ..    ",
"  ..   ..   .X.   ..    ",
"        ..   XX.   ..   ",
"         ..   .X.  ..   ",
"          ..   XX.  .   ",
"           ..   .X.     ",
"            ..   X.     ",
"             ..   .     ",
"              ..        ",
"               ..       ",
"                        ",
"                        "};
