/* XPM */
static char * awall_w_1_115_xpm[] = {
/* width height ncolors chars_per_pixel */
"24 24 3 1",
/* colors */
" 	s None	c None",
".	c Black",
"X	s Light gray	c Grey75",
/* pixels */
"                        ",
"                        ",
"                        ",
"                        ",
"       .  .    .        ",
"            .           ",
".... ...  .  .   .... ..",
"XXXX.XXX.       .XXXX..X",
"XXXXXX.XX.  .  .XXXXXXXX",
"X.XXX.XXXX.   ..XX.XX.XX",
".X...X..XX.. ..XX....X..",
".........XXX.XXXX.......",
".........X.XXX.X........",
"...........XXX..........",
"............X...........",
"........................",
"....X......X....X...X...",
"... .. ... ........ ....",
"                        ",
"      .  .   .  .  .    ",
"           .            ",
"    .   . .  . .  .     ",
"      .     .   .       ",
"                        "};
