/* XPM */
static char * awall_w_1_117_xpm[] = {
/* width height ncolors chars_per_pixel */
"24 24 3 1",
/* colors */
" 	s None	c None",
".	c Black",
"X	s Light gray	c Grey75",
/* pixels */
"                        ",
"          .             ",
"                        ",
"     .       .   .      ",
"       .  .    .        ",
"            .           ",
".... .  . .  . .   .. ..",
"XXXX.X.           .XX..X",
"XXXXXX.  . .  .  .XXXXXX",
"X.XXXXX.    .   .XX.X.XX",
".X...XX...     ..XX..X..",
"......XXX.  . .XXX......",
"........XX.   .XX.......",
".........X....XX........",
".........XXX.XXX........",
"...........XXX..........",
"....X.......X...X...X...",
"... .. ... ........ ....",
"                        ",
"   .  .  .   .  .  .    ",
"           .            ",
"    .   . .  . .  .  .  ",
"  .   .     .   .       ",
"    .     .   .    .    "};
