/* XPM */
static char * bone_head_111_xpm[] = {
/* width height num_colors chars_per_pixel */
"24 24 4 1",
/* colors */
" 	s None	c None",
".	c black",
"X	c grey",
"o	c white",
/* pixels */
"         ......         ",
"       ..XXXXXX..       ",
"      .XXXXXXXXX..      ",
"     .X.XXXXXXXXX.      ",
"    .X.XXXXXXXXXXX.     ",
"    ..X.XXXXXXXXXXX.    ",
"    .X.XXX...XXX.X..    ",
"   .X.XXXXXXX.XXX.XX.   ",
"    .X.XX....XXX.XXX.   ",
"    ..XX.XXXX.XXXXXX.   ",
"    ...X......XXXXXX.   ",
"    ..XX.oo...XXXXXX.   ",
"    .X.XX.ooo.XXXXXX.   ",
"     ..XXX...XXXXXXX.   ",
"    .X..XXXXXXX.XXX.    ",
"    ....XXX.X..X...     ",
"    ...X.XXX.X.X.       ",
"    ..XXXXX.X.X.        ",
"    .........X.         ",
"     .X.X.X.X.          ",
"     ......XX.          ",
"     .XXXXXX.           ",
"      ......            ",
"                        "};
