/* XPM */
static char * gem_111_xpm[] = {
"24 24 3 1",
" 	s None	c None",
".	m black	c White",
"X	s Light gray	c Grey75",
"                        ",
"                        ",
"                        ",
"       .       .        ",
"        .  .  .         ",
"     .  .  .  .  .      ",
"      .         .       ",
"  ..    .......    ..   ",
"    .  ..X.X.X..  .     ",
"      ..X.X.X.X..       ",
"   .. .X.X.X.X.X. ..    ",
"       .X.X.X.X.        ",
"     .  .X.X.X.  .      ",
"   ..    .X.X.    ..    ",
"      .   .X.   .       ",
"     .     .     .      ",
"        .     .         ",
"       .   .   .        ",
"       .   .   .        ",
"                        ",
"                        ",
"                        ",
"                        ",
"                        "};
