/* XPM */
static char * cold_drag_131_xpm[] = {
/* width height ncolors chars_per_pixel */
"24 24 4 1",
/* colors */
" 	s None	c None",
".	c grey25",
"X	c grey75",
"o	c black",
/* pixels */
" .. ..      .....   ... ",
".XX.XX.    ....... ..   ",
".XXX..X.   ..   .....   ",
".XXXXX.X.  ...   ...... ",
" .XXXXX.X.  ...   ..o.  ",
"  ...XXX.X.  ...  ..... ",
"     .XX.X.   ...  .....",
"    ........   ...   .. ",
"   .............X.      ",
"  ....X.X.XX.X.X..      ",
" ....XX.XX.XX.X..       ",
"...XX.XX.X......        ",
"..X.......              ",
"..X.       .......      ",
".X.       ..........    ",
".X.      ...     ....   ",
" .X.   ....        ..   ",
"  .X...XX.   ........ . ",
"   .X.X..  .........  . ",
"    ....  ...         . ",
"         ..           . ",
"         ..          .  ",
"          ..        .   ",
"           .........    "};
