/* XPM */
static char * orange_111_xpm[] = {
"24 24 5 1",
" 	s None	c None",
".	c black",
"X	c orange",
"o	s Dark brown	c Sienna",
"O	c gold",
"                        ",
"                        ",
"                        ",
"        ......          ",
"      ..XXXXXo..        ",
"     ..XXXOXXooX.       ",
"    .XXXXXXXXXXXX.      ",
"    .XXOXXXXXXXXX.      ",
"   ..XXXXXXXOXXXXX.     ",
"   .XXXXXOXXXXXOXX.     ",
"   .XOXXXXXXXXXXXX.     ",
"   .XXXXXXXXXXXXXX.     ",
"   .XXXOXXXXXXXXXX.     ",
"   .XXXXXXXXXXXXX.      ",
"    .XXXXXXXXXXXX.      ",
"    .XXXXOXXXXXX..      ",
"     .XXXXXXXXX..       ",
"      ..XXOXX...        ",
"       .......          ",
"                        ",
"                        ",
"                        ",
"                        ",
"                        "};
