/* XPM */
static char * waybread_111_xpm[] = {
/* width height ncolors chars_per_pixel */
"24 24 3 1",
/* colors */
" 	s None	c None",
".	c Black",
"X	s Yellow	c Gold",
/* pixels */
"                        ",
"                        ",
"                        ",
"        ....            ",
"       .XXXX.           ",
"      .XX.XXX.          ",
"      .XXXXXXX.         ",
"    ..X.X.X.XXX.        ",
"   .XXXXXXXXX.XX.       ",
"   .X.X.XXX.XXXX.       ",
"   .XXXXX.XXXX.XX..     ",
"   .X.X.XXXX.XXXXXX.    ",
"   ..XXXXX.XXXXX.XX.    ",
"    ..XX.XXXX.XXXXX.    ",
"    .X.XXXX.XXX.XXX.    ",
"     .X.XXXXXXXXXX..    ",
"      .X.X.XX.X.X...    ",
"       .X.XXXXXX.X.     ",
"        .X.X.XX.X.      ",
"         .X......       ",
"          .XXX.         ",
"           ....         ",
"                        ",
"                        "};
