/* XPM */
static char * acidsphere_114_xpm[] = {
/* width height ncolors chars_per_pixel */
"24 24 3 1",
/* colors */
" 	s None	c None",
".	c SeaGreen",
"X	c Green",
/* pixels */
"                        ",
"                        ",
"                        ",
"                        ",
"           .....        ",
"         .........      ",
"       ...XX........    ",
"      ..XX...........   ",
"      .X.............   ",
"     ..X..............  ",
"     .X...............  ",
"    ..X................ ",
"    ................... ",
"    ................... ",
"    ................... ",
"    ................... ",
"     .................  ",
"     .................  ",
"      ...............   ",
"      ...............   ",
"       .............    ",
"         .........      ",
"           .....        ",
"                        "};
