/* XPM */
static char * bpudding_g_111_xpm[] = {
"24 24 3 1",
" 	s None	c None",
".	c black",
"X	s Light gray	c Grey75",
"                        ",
"                        ",
"         .....          ",
"       .........        ",
"      ...X...X...       ",
"      ..X.....X..       ",
"     .............      ",
"     .............      ",
"     ..X..........      ",
"     ...X........       ",
"      ............      ",
"       ....X....X.      ",
"       ...X.X...X.      ",
"      .....X...X..      ",
"      ...........       ",
"     .............      ",
"     .............      ",
"     ..X..........      ",
"     ..X..........      ",
"      ..X.....X..       ",
"      ......XX...       ",
"       .........        ",
"         ......         ",
"                        "};
