/* XPM */
static char * falchion_111_xpm[] = {
/* width height ncolors chars_per_pixel */
"24 24 3 1",
/* colors */
" 	s None	c None",
".	c Black",
"X	c white",
/* pixels */
"                        ",
"                        ",
" .                      ",
"  ..                    ",
"  .X.                   ",
"  .XX..                 ",
"   .XXX.                ",
"   .XXX.                ",
"    .XXX.               ",
"    .XXXX.              ",
"     .XXXX.             ",
"      .XXXX.            ",
"       .XXXX.           ",
"        .XXXX.          ",
"         ..XXX..   .    ",
"           .XXXX. .     ",
"            ..X.X..     ",
"              .X.....   ",
"               ........ ",
"              .   ..... ",
"                    ..  ",
"                        ",
"                        ",
"                        "};
