/* XPM */
static char * mountain2_111_xpm[] = {
/* width height ncolors chars_per_pixel */
"24 24 3 1",
/* colors */
" 	s None	c None",
".	c Black",
"X	c White",
/* pixels */
"        .....           ",
" ..... ..XXXX. .....    ",
" .XXX..XXXXXXX...X.X.   ",
".XXXXX....X..XXXXXXX.   ",
".XXXXXXX..X..XX....X..  ",
"XXXXXXXXX..XXX..XXX.X.. ",
"XXXXXX...XXXX.XXXXX.XX. ",
"XXXXX.XXX.X...XXXX...XX.",
"XXXXX.XXXX...XXXX..X.XX.",
"XXXX.XXX..XX.XXXX.XXX.X.",
"XXX.XXX....XXXXXX.XXX...",
"XX..XXX.XXX..XXXXXXXXX.X",
"X..XXX..XXX..XX..XXXXX..",
"X. XXX.X.XXX.XXXXX.XXXX.",
"..XXXX.XXXXX..X.XXXXXXXX",
". XX..XXX.XXXXX.XXX..XXX",
".XXX.XXXX.XXXXXX..XX.XXX",
"XXX..XXXXX.XXXXXX..XX.XX",
"XX..XXXXXXX.XXXXXX..X.XX",
"XXXXXXXXXXX.XXXXXXX..XXX",
"XXXXXXXXXXX.XXXXXXX.XXXX",
"XXXXXXXXXXX..XXXXX..XXXX",
"XXXXXXXXXXXX..XXXX.XXXXX",
"XXXXXXXXXXXXXXXXXX.XXXXX"};
