/* XPM */
static char * a_civic_3_xpm [] = {
" 24 24 9 1 " ,
" 	s None	c None",
".	c Black",
"X	c White",
"o	s Cyan	c Cyan2",
"O	s Dark cyan	c Cyan4",
"+	s Light Cyan	c Cyan",
"@	s Light gray	c Grey75",
"#	s Dark gray	c Grey25",
"$	s Gray	m white	c Grey50",
"               ...Xo    ",
"               .OoXo    ",
"              .OOo+X    ",
"              .Oo+XX    ",
"             .@o+++X    ",
"             ..XXX.     ",
"            .@.X.X.     ",
"            ..X.X.      ",
"           .@.XXX.      ",
"           ..XXX.       ",
"......... .@.....       ",
"XXXXXXXX. ..XXX.        ",
"XXXXXXXX..@.X.X.        ",
"XXXXXXXX...X.X.         ",
".XXXXXXX...XXX.         ",
"oo.XXXXX..XXX.          ",
"++++XXXX......          ",
"+X+.XXXX.XX..           ",
"X+X++XXX.XX..           ",
"XX+X.XXX.XX.            ",
"XXX+X+XX.XX.            ",
"XXXX+.XX.XX.            ",
"XXXXX@XX.XX.            ",
"XXXXXX@X.XX.            "};
