/* XPM */
static char * a_civic_8_xpm [] = {
" 24 24 9 1 " ,
" 	s None	c None",
".	c Black",
"X	c White",
"o	s Cyan	c Cyan2",
"O	s Dark cyan	c Cyan4",
"+	s Light Cyan	c Cyan",
"@	s Light gray	c Grey75",
"#	s Dark gray	c Grey25",
"$	s Gray	m white	c Grey50",
"XX.###.XX.X.###.X.XX.###",
"........................",
"XXXXXXXXXXXXXXXXXXXXXXXX",
"XXXXXXXXXXXXXXXXXXXXXXXX",
"XXXXXXXXXXXXXXXXXXXXXXXX",
"XXXXXXXXXXXXXXXXXXXXXXXX",
"XXXXXXXXXXXXXXXXXXXXXXXX",
"........................",
"XXXXXXXXXXXXXXXXXXXXXXXX",
"XXXXXXXXXX...XXXXXXXXXXX",
"XX.XXXXXX.$$#.XXXXX.XXXX",
"X.$.XXXX.$$$#.XXXX.$.XXX",
".$.XXXX.$$$$#.XXX.$.XXXX",
"...XXXX.$$$$#.XXX...XXXX",
"XXXXXX.$$$$$.XXXXXXXXXX.",
"XXXXXX.......XXXXXXXXXX.",
".XXX...XXXXX.XX$.X$.XX.X",
".XX.@@........X..X..XX..",
"X...@.@@@@@@@.XXXXXXX.  ",
".....XXXXXXXX.........  ",
".@@............         ",
".@.@@@@@@@@@@@.         ",
"..XXXXXXXXXXXX.         ",
"...............         "};
