/* XPM */
static char * church_4_xpm [] = {
" 24 24 8 1 " ,
" 	s None	c None",
".	c Black",
"X	s Gray	m white	c Grey50",
"o	s Light gray	c Grey75",
"O	s Dark brown	m white	c Sienna",
"+	s Brown	c Peru",
"@	c White",
"#	s Light yellow	c yellow",
"X.X.oo.........         ",
"XXX.oo.@@@@@...         ",
"X.X.o.@...@.oo.         ",
"X.X.o.@.#.@.o..         ",
"XXX..@...@.oo..         ",
"X.X..@@@@@..oo.         ",
"X.X.@@.@@.o.o..         ",
"XXX.@@.@@.ooo..         ",
"X..@....@@..oo.         ",
".@@@@.@@@@@.o..         ",
"@@@@.@@@@@@@...         ",
"@@@@.@@@@@@@@..         ",
"@@@@@@@@@@@@@@.         ",
"@@@@@@@@@@@@@.          ",
".....@@@@@@@@.          ",
"OO.OO.@@@@@@.           ",
"OO.OO.@@@@@@.           ",
"O.OOO.@@@@@.            ",
"O.OOO.@@@@@.            ",
".OOO.@@@@@.             ",
".OOO.@@@@@.             ",
"....@@@@@.              ",
"   .......              ",
"                        "};
