/* XPM */
static char * collesium_1_xpm [] = {
" 24 24 9 1 " ,
" 	s None	c None",
".	c Black",
"X	s Light gray	c Grey75",
"o	c White",
"O	s Gray	m white	c Grey50",
"+	s Dark yellow	c Goldenrod",
"@	s Yellow	c Gold",
"#	s Brown	m black	c Peru",
"$	s Dark gray	c Grey25",
"                        ",
"                        ",
"                        ",
"                        ",
"                       .",
"                      .X",
"                  ....XX",
"                 .XXXX..",
"                .XXXX...",
"                .XXX..oo",
"                .XX..oXX",
"               .XX..oX..",
"               .X..oX.oo",
"              .X..oX.oXX",
"             .XX..X.oXX.",
"             .X..o.oXX.o",
"            .XX..XoXX.oX",
"            .X..o.XX.oXX",
"           ..X..XoX.oXXX",
"           .X..oXX.oXX..",
"          ..X..XO.oXX.oo",
"          ..X..oOXXX.oXX",
"         ..XX..XOXX.oXX.",
"         ..X..XO.XXXXX.o"};
