/* XPM */
static char * t_house1_2_xpm [] = {
" 24 24 9 1 " ,
" 	s None	c None",
".	c Black",
"X	s Dark red	m white	c firebrick",
"o	s Light gray	c Grey75",
"O	c White",
"+	s Light yellow	c yellow",
"@	s Dark gray	c Grey25",
"#	s Gray	m white	c Grey50",
"$	s Dark brown	m white	c Sienna",
"                        ",
"......................  ",
"X...X...X...X...X...X.  ",
".X.X.X.X.X.X.X.X.X.X.X. ",
"..X...X...X...X...X.... ",
".X.X.X.X.X.X.X.X.X.X.X. ",
"X...X...X...X...X...X.. ",
".X.X.X.X.X.X.X.X.X.X.X..",
"........................",
".X.X.X.X.X.X.X.X.X.X.X..",
"..X...X...X...X...X...X.",
".X.X.X.X.X.X.X.X.X.X.X..",
"X...X...X...X...X...X...",
".X.X.X.X.X.X.X.X.X.X.X..",
"..X...X...X...X...X.... ",
".X.X.X.X.X.X.X.X.X.X.X. ",
"X...X...X...X...X...X.. ",
".X.X.X.X.X.X.X.X.X.X.X. ",
"..X...X...X...X...X.... ",
".X.X.X.X.X.X.X.X.X.X.X. ",
"X...X...X...X...X...X.. ",
".X.X.X.X.X.X.X.X.X.X.X. ",
"..X...X...X...X...X.... ",
".X.X.X.X.X.X.X.X.X.X... "};
