/* XPM */
static char * dragon_233_xpm[] = {
/* width height ncolors chars_per_pixel */
"24 24 5 1",
/* colors */
" 	s None	c None",
".	c Green3",
"X	s Light red	c Salmon",
"o	s Dark red	c firebrick",
"O	c red",
/* pixels */
"                        ",
"                        ",
"                        ",
"                        ",
"                        ",
"                        ",
"                        ",
"                        ",
"    ....            ....",
".....X.X............XXXX",
"....X.X.XXX.XX.X.XXX..X.",
"XXXXXX.X.XXXXXXXXXXXXXXX",
"XXXXXXX.X..XX..XX..XX..X",
"XXX.X.XX.XX.XXXXXXXXXXXX",
"X.XXXXXXX..X.XXX..X.XXXX",
"XXXXX.X.XXX.X..XXXXXXXX.",
"...XXXXXXXXX.XX.XXXXXX..",
"ooo.....XXXXX..X.XX....o",
"OoooOooo....XXX.X..ooooo",
"oooooooooooo.X.X.OOOoooO",
"oooooooOoooooooooooooooo",
"oooooOooooOooOoooooooooo",
"ooooooOoooooooooooOoOooo",
"OoooooooooooooOOoOOOoooo"};
