/* XPM */
static char * dragon_473_xpm[] = {
/* width height ncolors chars_per_pixel */
"24 24 3 1",
/* colors */
" 	s None	c None",
".	c red",
"X	s Dark red	c firebrick",
/* pixels */
"         .XXXX.X.......X",
"       ..XX.....     .XX",
"      .XXX...       .XXX",
"   ...XX..         ..XX.",
"  .XXX..           .XXXX",
" .X....           .XX.X.",
".X.  ..          .XXXX..",
"..  ..         ..XX...  ",
".  ..        ..XX...    ",
"  .        ..XX...      ",
"       ....XX...        ",
"     ..XXXX...          ",
"    .XX.....           .",
"   .X..  ..            .",
"   ..   ..             .",
"      ...              .",
"     ..                .",
"                       .",
"                       .",
"                      ..",
"                    ..XX",
"                   .XX..",
"                  ....  ",
"                        "};
