/* XPM */
static char * firebullet_121_xpm[] = {
/* width height ncolors chars_per_pixel */
"24 24 3 1",
/* colors */
" 	s None	c None",
".	c Red",
"X	c yellow",
/* pixels */
"                        ",
"                        ",
"                        ",
"                        ",
"                        ",
"                        ",
"                        ",
"           ..           ",
"         ......         ",
"        ..X..X..        ",
"        ......X.        ",
"        .X.......       ",
"        .X..X.X..       ",
"       .....XX..        ",
"      ...XX....         ",
"     .XX.X..            ",
"      ..XX.             ",
"     ..XX.              ",
"    .  ..               ",
"      .                 ",
"                        ",
"                        ",
"                        ",
"                        "};
