/* XPM */
static char * Pdragonmail_112_xpm[] = {
"24 24 6 1",
" 	c Black",
"h	c White",
"g	s Light yellow	c Yellow",
"b	s Light blue	c DodgerBlue",
"o	s Light orange	c Orange",
".	s None	c None",
" ..................... .",
"  ...................  .",
"   .................   .",
"  h   ...........   h  .",
"         .....         .",
".        .....  h     ..",
"..                   ...",
"..                   ...",
"..                   ...",
"..                   ...",
"...                 ....",
"...        o        ....",
"....      ooo      .....",
"....  oooo   oooo  .....",
".....o     b     o......",
"...g.     bbb     .g....",
".....o oo  b  oo o......",
"...g.             .g....",
".....o  oo   oo  o......",
".....      o      ......",
"...g.o  oo o oo  o.g....",
".....      o      ......",
".... o           o .....",
"....   ...   ...   ....."};
