/* XPM */
static char * gwall_E_111_xpm[] = {
/* width height ncolors chars_per_pixel */
"24 24 4 1",
/* colors */
" 	s None	c None",
".	c Black",
"X	s Dark brown	m white c Sienna",
"o	s Orange	c DarkOrange2",
/* pixels */
"                        ",
".   X.  .   .   .   .   ",
".XXXo.XX.XXX.XXX.XXX.XXX",
"XXXX.XXX.XXX.XX.oXXX.XXX",
"XXXo.XX.XXX.XXX.XXX.XXX.",
"XXX.XXX.XXX.XX.XXXX.XXX.",
"XXo.XX.XXX.XXX.XXX.XXX.X",
"XX.XXX.XXX.XX.XXXX.XXX.X",
"XX.XX.XXX.XXX.XXX.XXX.XX",
"X.XXX.XXX.XX.XXXX.XXX.XX",
"X.XX.XXX.XXX.XXX.XXX.XXX",
".XXX.XXX.XX.XXXX.XXX.XXX",
"XXX.XXX.XXX.XXX.XXX.XXXX",
"XXX.XXX.XX.XXXX.XXX.XXX.",
"XX.XXX.XXX.XXX.XXX.XXXX.",
"XX.XXX.XX.XXXX.XXX.XXX..",
"oooooooooooooooooooooooo",
".oo...ooo..ooo..oo...oo.",
"oooooooooooooooooooooooo",
"..ooo...oo..oo..oooo..oo",
"oooooooooooooooooooooooo",
"..oo..ooooo..ooo...ooo..",
"  .oooo...oooo.oooooo.  ",
"  .oooooooooooooooooo.  "};
