/* XPM */
static char * sdragon_211_xpm[] = {
"24 24 14 1",
" 	c None",
".	c #000080",
"+	c #00007D",
"@	c #008A88",
"#	c #0000FE",
"$	c #0000FD",
"%	c #008987",
"&	c #1D91FE",
"*	c #1E91FC",
"=	c #0000FB",
"-	c #00007E",
";	c #FD0000",
">	c #00007C",
",	c #0000FC",
"               ..++++.. ",
"            +..@#$%%$#$.",
"           +%&&&&***%@# ",
"          +%%&@@@*%%*@% ",
"         +%**&@&@%%**#  ",
"         ++++..@&%**%@  ",
"        +++$%&@..+%*$@  ",
"  =++   +$+++&&&@*+++   ",
" +%%%+++$+$+%.@&@*%%%   ",
"++%+%%%++$  +@.-&%*$    ",
" ;+ +%%$++   .&&-*%%    ",
" ++ +%%%$>   .@&&+%     ",
" ++ +*%%,>    .&@+      ",
"    +**>>,    .@        ",
"     %*>,+              ",
"      %*%+              ",
"       %%+$             ",
"       %+%+             ",
"        %++$            ",
"         %++            ",
"          %+$           ",
"            +#          ",
"             .#         ",
"              .         "};
