/* XPM */
static char * pstone_2_111_xpm[] = {
/* width height ncolors chars_per_pixel */
"24 24 3 1",
/* colors */
" 	s Light brown	c Khaki",
".	s Dark yellow	c goldenrod",
"X	s Dark brown	c sienna",
/* pixels */
" . . . . . .X. . . X . .",
"X . . . .X. X . . . . . ",
" . .X. . . . . .XX . . .",
". X . . . X .X. . . . .X",
" .XX . . XX. . . . . . .",
". . .X. . . . . .X. .X. ",
" . . . . . . . . . . . .",
".X. . . . X . .X. .X. . ",
" XX.X. . . . . . . . . .",
". . . . . . . . . . XX. ",
" . . . . .X. . . . . . .",
". . . X . . XX. X . . . ",
" . . . . . . . . X . .X.",
". .XX . . . . . . . . . ",
" X .X. . .X.XX . . . . .",
". . . . . .XX .X. . . . ",
" . . .X. . . . . . . X .",
". . . . . . . . . . .X. ",
" . XXX . . .X. . .X. . .",
". .X. . XXX . . . X . . ",
" .X. . . . . . . . . . .",
". . . . . . . . . . . . ",
" . . X . . .X.XXX. . . .",
". . . . . . . . .X. . .X"};
