/* XPM */
static char * hedge_A_111_xpm[] = {
"24 24 5 1",
" 	s None	c None",
".	s Dark green	m white	c SeaGreen",
"X	m white	c Green3",
"o	s Light green	c Green",
"O	c black",
/* pixels */
"                        ",
"                        ",
"                        ",
"           ..XXo        ",
"  .X.XX X.o..X.XX.XooXX ",
"XXX.XXoXXXoX.....XXXo..X",
".XXXXooX.XX.X.Xo.XXoX.Xo",
".X..XoXX.XX.XXoX..XX.XoX",
".XXX..X.XXXXooo.XX..Xo.X",
"X..oXX.X.X..XX.XXX.XXoXX",
"X..Xo.oXXX...XXo..X.XXoX",
"..X..X..X..Xo.X..X..Xo.X",
"..Xo..oX..X.XX...X..XXXo",
"X.XX..X.X...XoX..oXoX.X.",
"OX..X.O..O.OX.XO..OX..oX",
"XOXOXOXX.OX..X.O.OXX.O.X",
"   XXO     .            ",
"                        ",
"                        ",
"                        ",
"                        ",
"                        ",
"                        ",
"                        "};
