/* XPM */
static char * hedge_9_111_xpm[] = {
"24 24 5 1",
" 	s None	c None",
".	s Dark green	m white	c SeaGreen",
"X	c black",
"o	m white	c Green3",
"O	s Light green	c Green",
/* pixels */
"        ...XoooO        ",
"        .Xo.oooO        ",
"        Xo.Xo.o.        ",
"        .X...ooO        ",
"  .o.oo o.X..o.o        ",
"ooo.ooOoooOo....        ",
".ooooOOo.oo.o.oO        ",
".o..oOoo.oo.ooOo        ",
".ooo..o.ooooOOO         ",
"o..Ooo.o.o..oo.         ",
"o..oO.OoooX..o          ",
"..o..o..o..oo.          ",
"..oO..Oo..o.o           ",
"o.oo..o.oX..o           ",
".o.Xo.....X.            ",
"XoooooXoXoo.            ",
"   oX                   ",
"                        ",
"                        ",
"                        ",
"                        ",
"                        ",
"                        ",
"                        "};
