/* XPM */
static char * titan_573_xpm[] = {
/* width height ncolors chars_per_pixel */
"24 24 6 1",
/* colors */
" 	s None	c None",
".	s Gray	c Grey50",
"X	s Dark gray	c Grey25",
"o	c black",
"O	s Light Orange	c Orange",
"+	s Dark red	c firebrick",
/* pixels */
"       .XX.XX..   oooooo",
"       .XXXXX..   oOooOo",
"       .XXX.X.    oOOOOo",
"      .X..XX..    oooooo",
"     .XXXX.X.     oOooOo",
"     .X.XX..      oOOOOO",
"    .XXX.X..      oooooo",
"    .X.XX..       oOooOo",
"   .XXX...        oOOOOo",
"   .XXX..         ooooOo",
"  .XX...          oooooo",
" ...XX.           oooooo",
".XXXX.++          oooooo",
"XXXX.+++          .Xoooo",
"..XX.+++         ..XXXXo",
"+.X..++          .X.XXXX",
".X..             .XXX.XX",
"..              ..XXXXX.",
"                .X.XXXXX",
"                .XXX.XXX",
"               ..XXXXX..",
"               .X.XXXXXX",
"               .XXX.XXX.",
"              ..XXXXX..."};
