/* XPM */
static char * titan_472_xpm[] = {
/* width height ncolors chars_per_pixel */
"24 24 7 1",
/* colors */
" 	s None	c None",
".	c black",
"X	c white",
"o	s Dark red	c firebrick",
"O	s Light brown	c Khaki",
"+	s Gray	c Grey50",
"@	s Dark gray	c Grey25",
/* pixels */
"...XXXXX.o              ",
" ...XXX.OOo             ",
"  ...X.ooOOo            ",
"   ...  ooOOo        +++",
"         ooOOo    +++@+@",
"          ooOoo+++++@@@@",
"           ooOO+++@@+@@+",
"           ++o+@@++@@+@+",
"            +++@@@++@+++",
"             +++@@+++   ",
"              +++++o    ",
"                oOOo    ",
"                 oo     ",
"                        ",
"                        ",
"                        ",
"                        ",
"                        ",
"                        ",
"                        ",
"                        ",
"                        ",
"                        ",
"                        "};
