/* XPM */
static char * gol_212_xpm[] = {
/* width height num_colors chars_per_pixel */
"24 24 3 1",
/* colors */
" 	s None	c None",
".	c black",
"X	c khaki",
/* pixels */
"                        ",
"                        ",
"                        ",
"                        ",
"                        ",
"                        ",
"                        ",
"                        ",
"                        ",
"...                     ",
".....                   ",
".....                   ",
"......                  ",
".......                 ",
".XXX.......             ",
"..........X.            ",
"...........X.           ",
".......X......          ",
".....XX.X......         ",
"....XX.X......X.        ",
".....XX.X......X.       ",
"....X.X.........X.      ",
"...X.X.X...........     ",
"................X..     "};
