/* XPM */
static char * gol_412_xpm[] = {
/* width height num_colors chars_per_pixel */
"24 24 3 1",
/* colors */
" 	c black",
".	c khaki",
"X	s None	c None",
/* pixels */
"  .    .         . XXXXX",
" . .  .    X     . XXXXX",
"  . .     XXX      XXXXX",
"       .  XXX       XXXX",
" ...  .   XXX       XXXX",
"   ..  .  XXXX      XXXX",
"      .   XXXXX      XXX",
"          XXXXX      XXX",
".  ..     XXXX       XXX",
"    ..    XXXX       XXX",
"          XXXX      XXXX",
"         XXXXXX     XXXX",
"         XXXXXX     XXXX",
"         XXXXXXX   XXXXX",
"     .   XXXXXXXXXXXXXXX",
"         XXXXXXXXXXXXXXX",
"    .    XXXXXXXXXXXXXXX",
"   .      XXXXXXXXXXXXXX",
"       .  XXXXXXXXXXXXXX",
"      .   XXXXXXXXXXXXXX",
" .   . .  XXXXXXXXXXXXXX",
" .    . . XXXXXXXXXXXXXX",
"...    .  XXXXXXXXXXXXXX",
"...       XXXXXXXXXXXXXX"};
