/* XPM */
static char * gol_131_xpm[] = {
/* width height num_colors chars_per_pixel */
"24 24 4 1",
/* colors */
" 	s None	c None",
".	c black",
"X	c white",
"o	c khaki",
/* pixels */
"                        ",
"                        ",
"                        ",
"                        ",
"                        ",
"       ...              ",
"     ..X.X.             ",
"     .X.X..             ",
"    .X.X.X..            ",
"    ..X.X...          ..",
"    ...X.X...       ....",
"    ....X.X.        ....",
"     .....X.       .....",
"     .......      ......",
"     ....X..   .....ooo.",
"     ...X.X.. ..........",
"      ...X.....o........",
"      ..X.X.............",
"      ...X.X......oo....",
"       .X.X......ooooo..",
"       ...X.....o.ooooo.",
"       ..X.......o.o.o..",
"        ..........o.o...",
"       ............o...."};
