/* XPM */
static char * stronghold_1_xpm [] = {
" 24 24 5 1 " ,
" 	s None	c None",
".	c Black",
"X	s Light gray	c Grey75",
"o	s Gray	m white	c Grey50",
"O	s Light yellow	c yellow",
"                        ",
"                      ..",
"                    ...o",
"                   ..ooo",
"                   .oooo",
"                  .ooooX",
"                  .ooooX",
"                 ..oooXo",
"                 .o.ooXo",
"                .oo.oXoX",
"                .ooo..oX",
"               .ooooXo..",
"               .ooooXoXX",
"              .ooooXoXXX",
"              .oooo...X.",
"             .ooooo.X..X",
"             .oooo..X.XX",
"            .ooooo..X.XX",
"            .oooo.o.X.XX",
"           .ooooo..X.XXX",
"           .oooo.o.X.XXX",
"          .ooooo.o.X.XXX",
"          .oooo.ooo.X.XX",
"         .ooooo.ooo.X.XX"};
