/* XPM */
static char * para_lava_112_xpm[] = {
/* width height ncolors chars_per_pixel */
"24 24 3 1",
/* colors */
" 	s None	c None",
".	c Red",
"X	s Light magenta	c Pink",
/* pixels */
"                        ",
"                        ",
"                        ",
" ...                    ",
".....     ....          ",
"..X...   ..X...         ",
"..XX..............      ",
".......X.XX..XX.XX..    ",
".XXXX..X.X....X......   ",
" ...X..........X..... . ",
"    .X...X.XX..X.X......",
"    .....X.XX.....XXX...",
"       .......X......X..",
"       .......X......XX.",
"        .........  .....",
"        .X.......   ....",
"       ...X.X..X..   .. ",
"      ....X.X..X...     ",
"   ....X..X..XXXX...    ",
"  ....X....X....X...... ",
" ..XXX.....X....X.X.... ",
".......XXX..XXX...XXX.. ",
" ........X......X...... ",
"      .............     "};
