/* XPM */
static char * para_ice_111_xpm[] = {
/* width height ncolors chars_per_pixel */
"24 24 4 1",
/* colors */
" 	s None	c None",
".	s Light blue	c DodgerBlue",
"X	c White",
"o	s Light Cyan	c Cyan",
/* pixels */
"                        ",
"                        ",
"                        ",
"                        ",
"          ....          ",
"         .XooX.         ",
"        .XXXXXX..       ",
"      ..X..XX..XX...    ",
"  ....XXX..XX..XoXXX.   ",
" .XoXXXoXXXXXXXXXXXXX.. ",
" .XXXoXXoXXXXXXXX.XoXXX.",
".XoX...XXX....Xo. .XXX. ",
".XX.   .X.....Xo. .XoX. ",
".X. X  .oXXXXXXX. ...X. ",
".X. X .XXXoXXoXo  .  .  ",
" .    .XoXXXoXXX. .  .  ",
" ..   .XXXX.XXXo.    .  ",
"      .XX.. .XoXX.      ",
"     .XXX.  .XXXoX..    ",
"     .XoX.  .XoXXXX.    ",
"   ..XoXX.   .XoXoX.    ",
"  .XXXX..     ..XXX..   ",
"  .....         ...     ",
"                        "};
