/* XPM */
static char * cwall_w_0_118_xpm[] = {
/* width height ncolors chars_per_pixel */
"24 24 4 1",
/* colors */
" 	s None	c None",
".	c Black",
"X	s Light gray	c Grey75",
"o	s Gray	c Grey50",
/* pixels */
"      .XXXXX..XX.       ",
"      .XXXXX.XXX..      ",
"      .XXX.XX....  .    ",
"  .   .XX.X..oo..       ",
" .  . .XXXX.ooo.     .  ",
"      .XXX.o...  .      ",
" .    .XX.ooo.     .    ",
"   .  .X...o.    .      ",
"  .   ..ooo.   .    .   ",
"    . .ooo.      .      ",
"  .    ...  . . .  .    ",
" .   .               .  ",
"   .   .  . .  . .      ",
".   .    .          .   ",
"  .          . .  .     ",
"   .   ...      .       ",
" .    .....   .    .  . ",
"  . . ......     .      ",
"      .X.....  .        ",
"  .   .XX.....     .    ",
" .    .XX.......        ",
"    . .XXXX...... .    .",
"  .   .XXX.X.....       ",
"      .XX.XX.XXX..      "};
