/* XPM */
static char * cwall_w_0_115_xpm[] = {
/* width height ncolors chars_per_pixel */
"24 24 4 1",
/* colors */
" 	s None	c None",
".	c Black",
"X	s Light gray	c Grey75",
"o	s Gray	c Grey50",
/* pixels */
"      .XXXXX..XX.       ",
"      .XXXXX.XXX..      ",
"      .XXX.X..XX.       ",
"  .   .XX.XX.XXX..      ",
" .  . .XXXXX..XX.    .  ",
"      .XXXXX.XXX..      ",
"      .XXX.X.....  .    ",
"   .  .XX.X.ooo.        ",
"  .   .XXX...o.     .   ",
"    . .XX.ooo.   .      ",
"      .X.ooo..  .  .    ",
" . .  ......            ",
"      .X.....  . .      ",
"    . .XXX....      .   ",
"  .   .XXX.....   .     ",
"      .XX.X.....        ",
" .    .XXXXX.....  .  . ",
"  . . .XXXXX.XXX..      ",
"      .XXX.X..XX.       ",
"  .   .XX.XX.XXX.. .    ",
"      .XXXXX..XX.       ",
"    . .XXXXX.XXX..      ",
"      .XXX.X..XX.       ",
"      .XX.XX.XXX..      "};
