/* XPM */
static char * town_7_511_xpm[] = {
/* width height ncolors chars_per_pixel */
"24 24 8 1",
/* colors */
" 	s Light magenta	c Pink",
".	c Black",
"X	m white	c Green3",
"o	s Dark orange	c Chocolate",
"O	c White",
"+	c Blue",
"@	s Orange	c DarkOrange2",
"#	s Gray	c Grey50",
/* pixels */
" .  . .XXXXXXXX...o.XX..",
".......XXXXXXXX..o..XX..",
"XXXXXXXXXXXXXXX.ooo.XX..",
"XXXXXXXXXXXXXXX.o.o.XXX.",
"XXXXXXXXXXXXXXX.....XXXX",
"XXXXXXXXXXXXXXXXXXXXXXXX",
"XXXXX............XXXXXXX",
"XXXX..OOOOOOOOOOO.XXXXXX",
"XXX...OOOOOOOOOOOO.XXXXX",
"XXX..OOOOOOOOOOOOOO.XXXX",
"XXX....O.O.O.O.O.O..XXXX",
"XXX...O.O.O.O.O.O.O.XXXX",
"XXX...O.O.O.O.O.O.O.XXXX",
"XXX...O.O.O.O.O.O.O.XXXX",
"XXX...O.O.O.O.O.O.O.XXXX",
".XXX..O.O.O.O.O.O.O.XX..",
".XXXX..X.X.X.X.X.X..XXX.",
".XXXXXXXXXXXXXXXXXXXXXXX",
".XXXXXXXXXXXXXXXXXXXXXXX",
".XXXXXXXXXXXXXXXXXXXXXXX",
".XXXX.XXXXXXXXXXXXXXXXXX",
"XXXX.+.XXXXXXXXXX.......",
".XX..++.XXXXXXXX.@@@@@@@",
"#.X..++.XXXXXXXX........"};
