/* XPM */
static char * town_7_611_xpm[] = {
/* width height ncolors chars_per_pixel */
"24 24 9 1",
/* colors */
" 	c Black",
".	m white	c Green3",
"X	s Brown	c Peru",
"o	s Light gray	c Grey75",
"O	s Dark yellow	c Goldenrod",
"+	s Light red	c Salmon",
"@	s Cyan	c Cyan2",
"#	s Light green	c Green",
"$	s Orange	c DarkOrange2",
/* pixels */
"      ..     .  XXX . o ",
"OOOOO ..  ++ .  X X . o ",
"O O O ...    ..     . o ",
"      ............... o ",
"..................... o ",
".........          .. o ",
".. ..... @@@@@@@@@@ . o ",
". o ....            . o ",
" ooo ...  @@@@@@@@@ . o ",
".   ....  @ @ @ @ @ .   ",
". o .....           . ..",
".   ....................",
". o ....................",
". o ................... ",
". o ..................  ",
". o ...            .. o ",
"  o .. ############ . o ",
"  o ..              . o ",
".   ..  ########### . o ",
"......  # # # # # # . o ",
".......             . o ",
" .................... o ",
"$ ................... o ",
"  ..   ...   ...   .. o "};
