/* XPM */
static char * town_3_111_xpm[] = {
/* width height ncolors chars_per_pixel */
"24 24 8 1",
/* colors */
" 	s Light brown	c Khaki",
".	c Black",
"X	s Light gray	c grey75",
"o	s Dark red	m white	c firebrick",
"O	s Dark yellow	c Goldenrod",
"+	s Brown	c peru",
"@	s Dark green	c SeaGreen",
"#	s Dark magenta	c Maroon",
/* pixels */
"                        ",
" .....................  ",
". .X.X.X.X...X.X.X.X.X. ",
"..XXXXXXXX.o.XXXXXXXX.. ",
"...........o........... ",
"..ooooooooooooooooooo.. ",
"..ooo....ooooo....ooo.. ",
"..oo.OOOO.ooo..   .oo.. ",
"..oo......ooo......oo.. ",
"..oo..OOO.ooo..   .oo.. ",
"..ooo.....oooo.....oo.. ",
"..ooooooooooooooooooo.. ",
"..oo......ooooo....oo.. ",
"..o..+++++.ooo.@@@@.o.. ",
"..o........ooo......o.. ",
"..o...++++.ooo..@@@.o.. ",
"..o...++.+.ooo..@.@.o.. ",
"..oo.......oooo.....o.. ",
"..ooooooooooooooooooo.. ",
"..ooooooooooooooooooo.. ",
"..ooo............oooo.. ",
"..oo..###########.ooo.. ",
"..oo..............ooo.. ",
"..oo..###########.ooo.. "};
