/* XPM */
static char * town_7_811_xpm[] = {
/* width height ncolors chars_per_pixel */
"24 24 8 1",
/* colors */
" 	c Black",
".	m white	c Green3",
"X	c Blue",
"o	s Orange	c DarkOrange2",
"O	s Gray	c Grey50",
"+	s Light magenta	c Pink",
"@	s Dark brown	c Sienna",
"#	s Light gray	c Grey75",
/* pixels */
"  .  XX ........  oooooo",
"O .   X ........  o o o ",
"  .  X  ........  oooooo",
"... XXX ........  o o o ",
"... X X .........       ",
" ..     ................",
" .......................",
" .... ............ .....",
" ... + .......... @ ... ",
"...  ++ ........  @@ .. ",
"...  ++ ........  @@ .. ",
" ..  ++ ........  @@ ...",
" ..  ++ ........  @@ ...",
" ..  ++ ........  @@ ...",
" ..   + ........   @ ...",
"...  +  ........  @  .. ",
"... +++ ........ @@@ .. ",
" .. + + ........ @ @ .. ",
" ..     ........     ...",
" .......................",
"           ...          ",
" # # # # # ... # # # # #",
"######### ... ##########",
"          ...           "};
