/* XPM */
static char * lokanth_171_xpm[] = {
"24 24 7 1",
" 	s None	c None",
".	c black",
"X	c SeaGreen",
"o	c yellow",
"O	c Green3",
"+	c gold",
"@	c goldenrod",
"                        ",
"        . ...           ",
"         .XXo.          ",
"        .XOXXX.         ",
"         .XX. .         ",
"     . . .OX..    ...   ",
"    .....XX.     .+XX.  ",
"     .XXOXOX.  .OXO  .  ",
"    ..XXX@XXX..+.+...   ",
"     .O@OX@XX.O.        ",
"    ..XX.@.XXX.  ...    ",
"   ..OO@XX..@.O..+XX.   ",
"    ..XXOX@X. .+OX  .   ",
"    .OX@X@X.    ....    ",
"   ...@XOXXX.           ",
"   . .XX@..X.           ",
"     ..@XO.@O.          ",
"       .XX.XX.          ",
"      .+.. .+O          ",
"      .O+   .X.         ",
"      .+X.  .+X..       ",
"       .X .. .X .       ",
"        .X .  .X        ",
"                        "};
