/* XPM */
static char * teleporter_111_xpm[] = {
"24 24 3 1",
" 	s None	c None",
".	c Red",
"X	s Light magenta	c Pink",
"                        ",
"                        ",
"         .....          ",
"      ...XXXXX...       ",
"     .XXXXXXXXXXX.      ",
"    ..XXXX...XXXX..     ",
"   ...XX..XXX..XX...    ",
"  .XXX..XXXXXXX..XXX.   ",
"  .XXX..XX...XX..XXX.   ",
"  .XX.XX..XXX..XX.XX.   ",
" .XXX.XX..XXX..XX.XXX.  ",
" .XX.XX.XX.X.XX.XX.XX.  ",
" .XX.XX.XXX.XXX.XX.XX.  ",
" .XX.XX.XX.X.XX.XX.XX.  ",
" .XXX.XX..XXX..XX.XXX.  ",
"  .XX.XX..XXX..XX.XX.   ",
"  .XXX..XX...XX..XXX.   ",
"  .XXX..XXXXXXX..XXX.   ",
"   ...XX..XXX..XX...    ",
"    ..XXXX...XXXX..     ",
"     .XXXXXXXXXXX.      ",
"      ...XXXXX...       ",
"         .....          ",
"                        "};
