/* XPM */
static char * fly_ant_172_xpm[] = {
"24 24 6 1",
" 	s None	c None",
".	c black",
"X	c sienna",
"o	c white",
"O	c cyan4",
"+	c firebrick",
"                        ",
"                        ",
"                        ",
"                        ",
"                        ",
"                        ",
"                  . .   ",
"                 . .    ",
"                 XX     ",
"       .........XXXX    ",
"      .o.O.OoO.+XXX X   ",
"     .o.OoOoO..X+  X    ",
"    .o.OoOoO.XXXX       ",
"    ..OoOoO.+X.. .      ",
"    ..oOoO.X+. .. .     ",
"    ..OoO.XX .  . .     ",
"     .oO.XX ..  . .     ",
"     ...X   .   . .     ",
"            .   .       ",
"            .           ",
"                        ",
"                        ",
"                        ",
"                        "};
