/* XPM */
static char * spit_ant_172_xpm[] = {
"24 24 5 1",
" 	s None	c None",
"o	c firebrick",
"O	c green",
"b	c black",
".	c sienna",
"                        ",
"                        ",
"                        ",
"                b       ",
"             b b        ",
"             b b        ",
"             b ...      ",
"             b.....     ",
"    ....      ....O.    ",
"   ...... ..  ..O.....  ",
"  .......o...o.....  .  ",
"   ......o...o.. .      ",
"    ... b ... b  ...    ",
"       bb b b  b        ",
"      b  b  b  b        ",
"     b   b  b  b        ",
"     b  b   b  b        ",
"        b   b   b       ",
"                        ",
"                        ",
"                        ",
"                        ",
"                        ",
"                        "};
