/* XPM */
static char * cleric_151_xpm[] = {
/* width height ncolors chars_per_pixel */
"24 24 7 1",
/* colors */
" 	s None	c None",
".	c Black",
"X	s Light brown	c Khaki",
"o	s Dark brown	c Sienna",
"O	s Light blue	c DodgerBlue",
"+	s Light gray	c Grey75",
"@	s Gray	c Grey50",
/* pixels */
"                        ",
"           ...          ",
"    .     .....         ",
"   ...    ..X..         ",
"    o     .XXX.         ",
"    o      .X.          ",
"    o   .....X....      ",
"    o ..OOOOO..++@.     ",
"    o.OO..OOO.+@@@.     ",
"    .......OO.@@@@.     ",
"    ...  .OOO.@@@@.     ",
"         ..OOO.@@.      ",
"         .OOOO.@@.      ",
"          ....O..       ",
"         ......         ",
"         ......         ",
"        ...  ...        ",
"        ...  ...        ",
"        ..    ..        ",
"       ...    ...       ",
"       ..      ..       ",
"       ..      ..       ",
"       ..      ..       ",
"      ...      ...      "};
