/* XPM */
static char * monk_171_xpm[] = {
"24 24 7 1",
" 	s None	c None",
".	c black",
"X	c salmon",
"o	s Dark brown	c Sienna",
"O	c white",
"+	c Green3",
"@	c Khaki",
"                        ",
"               ..       ",
"           ..  .X.      ",
"          .oo. ...      ",
"          .oo.  ..      ",
"          .Xo.  .O.     ",
"          .XX.  .O.     ",
"          ... ...O.     ",
"        ...XX.OOO..     ",
"       .OOO..OO...      ",
"       .O.OOOOO.        ",
"      ..O.OOOO..        ",
"     ..O..OOOO..        ",
"    .X.. .++++.         ",
"    ...  .O+OO..        ",
"        .OOOOOO.        ",
"       .OOOOO...        ",
"       ...OOO.@.        ",
"       .@.....@..       ",
"        .@.   .@.       ",
"        .@.   .X.       ",
"       .X..   ...       ",
"       ...    ..        ",
"                        "};
