/* XPM */
static char * priest_131_xpm[] = {
"24 24 7 1",
" 	c None",
".	c #000000",
"+	c #FFFFFF",
"@	c #FFA500",
"#	c #F0E68C",
"$	c #CD853F",
"%	c #404040",
"                        ",
"          ...     .     ",
"          .++.   ..     ",
"         .+@@.   ..     ",
"         .+@@.   ..     ",
"        ..##+..  ..     ",
"       ..+.#.$.. ..     ",
"      ..$+..+$$..@@     ",
"     ..$#++++#...@@     ",
"     .+$##++++.   .     ",
"    .+#..++++#.   .     ",
"    .+. ..$$#..   .     ",
"    ++.  .....    .     ",
"    @@   .++$.    .     ",
"        ..++#.    .     ",
"        .++++$.   .     ",
"        .#+++#.   .     ",
"        .++++#$.  .     ",
"        .$++++#.. .     ",
"        .$#+++$.. .     ",
"        ..+##+..  .     ",
"       %.......%% .     ",
"      %..     ... .     ",
"                        "};
