/* XPM */
static char * chair_2_111_xpm[] = {
"24 24 4 1",
" 	s None	c None",
".	c Black",
"X	s Dark brown	m white	c Sienna",
"o	s Brown	c Peru",
"                     .  ",
"                     .  ",
"                    ..  ",
"                    ..  ",
"          ..........X.  ",
"          .oooooooo.X.  ",
"         .oooooooo..X.  ",
"         .oooooooo..X.  ",
"        .......... .X.  ",
"        .oooooooo. .X.  ",
"       ..oooooooo. ..   ",
"       ..oooooooo. ..   ",
"      ...oooooooo. .    ",
"      ...o..........    ",
"     . ...oooooooo.     ",
"     . ...oooooooo.     ",
"       ..oooooooo.      ",
"       ...........      ",
"       .oooooooo.       ",
"       ..........       ",
"      .        .        ",
"      .        .        ",
"     .        .         ",
"     .        .         "};
