/* XPM */
static char * stolking_2_111_xpm[] = {
/* width height ncolors chars_per_pixel */
"24 24 4 1",
/* colors */
" 	s None	c None",
".	c Black",
"X	s Brown	c Peru",
"o	s Yellow	c Gold",
/* pixels */
"                        ",
"          .........     ",
"         .XXXXXXXXX.    ",
"        .XX.X.X.X.XX.   ",
"        .XXX.o.o.XXX.   ",
"        .XXX.ooo.XXX.   ",
"        .XXX.o.o.XXX.   ",
"        .XXX.....XXX.   ",
"        .XXXXXXXXXXX.   ",
"       ..XXXX.X.XXX..   ",
"     ..X.XXXXXXXX..X.   ",
"    .XXX.XXXXXX..XXX.   ",
"    .XXX.XXXXXX.XXXX.   ",
"    .XXX........XXXX.   ",
"    .X..XXXXXXX.XXX..   ",
"    ..XXXXXXXXX.X..X.   ",
"    .XXXXXXXXXX..XX..   ",
"    ............X....   ",
"    .XXXXXXXXXX..   .   ",
"    ............    .   ",
"    ..        ..    .   ",
"    .          .        ",
"    .          .        ",
"    .          .        "};
