/* XPM */
static char * teleporter_113_xpm[] = {
/* width height ncolors chars_per_pixel */
"24 24 4 1",
/* colors */
" 	s None	c None",
".	c Red",
"X	c navy",
"o	c green",
/* pixels */
"                        ",
"                        ",
"         .....          ",
"      ...XXXXX...       ",
"     .XXXX...XXXX.      ",
"    ..X...ooo...X..     ",
"   ....ooooooooo....    ",
"  .XX..ooo...ooo..XX.   ",
"  .X.oo.........oo.X.   ",
"  .X.oo.........oo.X.   ",
" .XX.oo.........oo.XX.  ",
" .X.oo.....o.....oo.X.  ",
" .X.oo....o.o....oo.X.  ",
" .X.oo.....o.....oo.X.  ",
" .XX.oo.........oo.XX.  ",
"  .X.oo.........oo.X.   ",
"  .X.oo.........oo.X.   ",
"  .XX..ooo...ooo..XX.   ",
"   ....ooooooooo....    ",
"    ..X...ooo...X..     ",
"     .XXXX...XXXX.      ",
"      ...XXXXX...       ",
"         .....          ",
"                        "};
