/* XPM */
static char * smalltroll_111_xpm[] = {
/* width height ncolors chars_per_pixel */
"24 24 7 1",
/* colors */
" 	s None	c None",
".	s Dark brown	c sienna",
"X	c Black",
"o	s Dark orange	c chocolate",
"O	s Brown	c peru",
"+	s Light brown	c Khaki",
"@	s Yellow	c gold",
/* pixels */
"                        ",
"           .  .   .     ",
"            .  . .  .   ",
"          .  . . . .    ",
"           .. . .  . .  ",
"             . X XX . . ",
" oo           XXXX .    ",
".ooo          XooXX ..  ",
".oooo   XXXXXXXXXX .  . ",
"..ooo  XO.OOOOXOOOX XX  ",
" ..ooo XOOOXXXOXXOXXX . ",
"  ..oo  XXXX OOOXOX  .  ",
"   ..oo      XOOO.OX    ",
"    ..oX    X+XOOOOX    ",
"     XXoXXXXXXXOX.OX    ",
"      XoOO.O.O.OXOOX    ",
"      .ooXXXXXXXOO.X    ",
"           XOOOOOOOX    ",
"           XO.OO.OOX    ",
"           XOOOOOOX     ",
"            XXXXOOX     ",
"             X@@XX      ",
"           XXXX@X       ",
"          XoXoXXXX      "};
