/* XPM */
static char * magic_portal_11B_xpm[] = {
"24 24 5 1",
" 	s None	c None",
".	c black",
"X	c red",
"o	c cyan",
"O	c grey75",
"                        ",
"                        ",
"                        ",
"        .  . .          ",
"        X.. X . .       ",
"      . . ......  .     ",
"       ....oo.X .       ",
"    X . X.o..o..X.      ",
"     . ..o....o.. .     ",
"    . ..o..OO..o..      ",
"     .X.o.OOOO.o.X.     ",
"    ...o..OOOO..o. .    ",
"     . .o.OOOO.o...     ",
"      X.o..OO..o.. .    ",
"     . ..o....o..X      ",
"      . ..o..o.. ..     ",
"       .X..oo.X..       ",
"      . . X... . .      ",
"         ...X..         ",
"        . . . . .       ",
"           .   .        ",
"                        ",
"                        ",
"                        "};
