/* XPM */
static char * wall_C_111_xpm[] = {
/* width height ncolors chars_per_pixel */
"24 24 5 1",
/* colors */
" 	s None	c None",
".	c black",
"X	s Dark brown	c sienna",
"o	s Dark orange	c Chocolate",
"O	s Brown	c Peru",
/* pixels */
"                        ",
"                        ",
"                        ",
"                        ",
"                        ",
"                        ",
"..................      ",
"XXXXXXXXXXXXXXXX..      ",
"................X.      ",
"oooooooooooooo..X.      ",
"..............o.X.      ",
"OOOOOOOOOOOO..o.X.      ",
"OOOOOOOOOOO.O.o.X.      ",
"...........OO.o.X.      ",
"XXXXXXXXX..OO.o.X.      ",
"XXXXXXXX.X.OO.o.X.      ",
"XXXXXXX.XX.OO.o.X.      ",
".......XXX.OO.o.X.      ",
"      .XXX.OO.o.X.      ",
"      .XXX.OO.o.X.      ",
"      .XXX.OO.o.X.      ",
"      .XXX.OO.o.X.      ",
"      .XXX.OO.o.X.      ",
"      .XXX.OO.o.X.      "};
