/* XPM */
static char * wall_2_111_xpm[] = {
/* width height ncolors chars_per_pixel */
"24 24 5 1",
/* colors */
" 	s None	c None",
".	c black",
"X	s Dark brown	c sienna",
"o	s Dark orange	c Chocolate",
"O	s Brown	c Peru",
/* pixels */
"                        ",
"                        ",
"                        ",
"                        ",
"                        ",
"                        ",
"  ......................",
" ..X.XXXXXXXXXXXXXXXXXXX",
" .X.....................",
" ..ooooooooooooooooooooo",
" .......................",
" .OOOOOOOOOOOOOOOOOOOOOO",
" .OOOOOOOOOOOOOOOOOOOOOO",
" .......................",
" ..XXXXXXXXXXXXXXXXXXXXX",
" .X.XXXXXXXXXXXXXXXXXXXX",
" ..X.XXXXXXXXXXXXXXXXXXX",
"  ......................",
"                        ",
"                        ",
"                        ",
"                        ",
"                        ",
"                        "};
