/* XPM */
static char * big_wiz_613_xpm[] = {
/* width height ncolors chars_per_pixel */
"24 24 3 1",
/* colors */
" 	c black",
".	s None	c None",
"X	c Sienna",
/* pixels */
"    ....................",
"X  .....................",
" X .....................",
"X   ....................",
"    ....................",
"   .....................",
"    ....................",
"    ....................",
"   .....................",
"   .....................",
" . .....................",
" .......................",
"........................",
"........................",
"........................",
"........................",
"........................",
"........................",
"........................",
"........................",
"........................",
" .......................",
" .......................",
"   ....................."};
