#define unpaid_width 24
#define unpaid_height 6
static char unpaid_bits[] = {
 0x29,0x1d,0x69,0x69,0xa5,0xaa,0x69,0x9d,0xab,0xa9,0x85,0xaa,0x26,0x85,0x6a,
 0x00,0x00,0x00};
