/* XPM */
static char * book_111_xpm[] = {
/* width height ncolors chars_per_pixel */
"24 24 4 1",
/* colors */
" 	s None	c none",
".	c Black",
"X	s Brown	c Peru",
"o	s Light brown	c Khaki",
/* pixels */
"                        ",
"        ............... ",
"       ..XXXXXXXXXXXXX. ",
"       .XXXXXXXXXXXXX.  ",
"      ..XX..XX.X..XXX.  ",
"      .XXXXXXXXXXXXX.   ",
"     ..XX...X..X.XXX.   ",
"     .XXXXXXXXXXXXX.o.  ",
"    ..XX..XX.X..XXX.oo. ",
"    .XXXXXXXXXXXXX.oo.  ",
"   ..XXXXXXXXXXXXX.oo.  ",
"   .XXXXXXXXXXXXX.oo.   ",
"  ..XXXXXXXXXXXXX.oo.   ",
"  ...............oo.    ",
" ..oooooooooooo.ooo.    ",
" .o.oo..oo...o.ooo.     ",
" .oooooooooooo.ooo.     ",
" .o.o.....oo.o.oo.      ",
" ..oo..X.oooooo.o.      ",
"  ....X..........       ",
"    ..X.                ",
"    ....                ",
"    .  .                ",
"                        "};
