/* XPM */
static char * power_crystal_113_xpm[] = {
/* width height ncolors chars_per_pixel */
"24 24 4 1",
/* colors */
" 	s None	c none",
".	s Dark gray	c Grey25",
"X	s Light gray	m black	c grey75",
"o	c White",
/* pixels */
"                    .   ",
"   .           .        ",
"    .  .      .   .     ",
"     .  .  .           .",
"        XXXXXXX       . ",
" .     XoooooooX        ",
"   ..  XoooooooX . .    ",
"      XoooooooooX       ",
"      XooooXooooX       ",
" ..  XooooXXXooooX.     ",
"     XXooooXooooXX      ",
"     XXoooooooooXX      ",
"   ..XoXoooooooXoX      ",
"     XoXoooooooXoX  .   ",
".    XooXXXXXXXooX   .. ",
"     XooXoooooXooX      ",
"     XooXoooooXooX      ",
"     XooXoooooXooX      ",
"  .  XooXXoXoXXooX      ",
" .   XXXXoooooXXXX   .  ",
"    .XooXoooooXooX    . ",
"      XXXoooooXXX       ",
"        XXXXXXX     .   ",
"                        "};
