/* XPM */
static char * paved_7_111_xpm[] = {
/* width height ncolors chars_per_pixel */
"24 24 4 1",
/* colors */
" 	s None	c None",
".	s Gray	m white	c Grey50",
"X	s Light gray	c Grey75",
"o	c Black",
/* pixels */
"   .XXX.XXXX.XXX.XXXX   ",
"   o..Xo...Xo..Xo...X   ",
"   ooo.oooo.ooo.oooo.   ",
"   .XX.XXXX.XXXX.XX.XXXX",
"   o.Xo...Xo...Xo.Xo...X",
"   oo.oooo.oooo.oo.oooo.",
"   .XX.XXX.XXXX.XX.XX.XX",
"   o.Xo..Xo...Xo.Xo.Xo.X",
"   oo.ooo.oooo.oo.oo.oo.",
"   .XXX.XX.XXXXX.XX.XXX.",
"   o..Xo.Xo....Xo.Xo..Xo",
"   ooo.oo.ooooo.oo.ooo.o",
"   .XXXXX.XXX.XX.XX.XXX.",
"   o....Xo..Xo.Xo.Xo..Xo",
"   ooooo.ooo.oo.oo.ooo.o",
"   XXX.XXXXX.XXXX.XXXX.X",
"   o...Xo..Xo...Xo...Xo.",
"   oooo.ooo.oooo.oooo.oo",
"   .XX.XXXX.XX.XX.XXX.XX",
"   o.Xo...Xo.Xo.Xo..Xo..",
"   oo.oooo.oo.oo.ooo.ooo",
"   .XXXXX.XXX.XX.XXXX   ",
"   o....Xo..Xo.Xo...X   ",
"   ooooo.ooo.oo.oooo.   "};
