/* XPM */
static char * wooddoor_2_111_xpm[] = {
"24 24 4 1",
" 	s None	c None",
".	c black",
"X	s Brown	c Peru",
"o	s Dark brown	m white	c sienna",
"              ..        ",
"             .XX.       ",
"            .XXo.       ",
"            .XXo..      ",
"           .XoXX..      ",
"           .XoXX..      ",
"          .XoXXo..      ",
"          .XooXo.       ",
"         .XoXoXX.       ",
"         .XoXXX..       ",
"         .XXXoX..       ",
"         .XoXoX.        ",
"         .XooX..        ",
"         .XooX..        ",
"         .XXXX.         ",
"         .XoX..         ",
"         .XoX..         ",
"         .XX..          ",
"         .XX..          ",
"         .X..           ",
"         .X..           ",
"         ...            ",
"         ...            ",
"         ..             "};
