/* XPM */
static char * a_helmet_111_xpm[] = {
"24 24 5 1",
" 	s None	c None",
".	c black",
"X	c grey75",
"o	c grey50",
"O	c white",
"                        ",
"                        ",
"                        ",
"                        ",
"            .           ",
"            .           ",
"            .           ",
"           .X.          ",
"         ..oXX..        ",
"        .ooooXXX.       ",
"        .ooXXXOX.       ",
"       .ooooXXXXX.      ",
"       .ooXXXXXXX.      ",
"       .ooXXXXXXX.      ",
"       .oooXXXXXX.      ",
"       ..oXXXXXX..      ",
"        ..oXXXX..       ",
"        .........       ",
"          .....         ",
"                        ",
"                        ",
"                        ",
"                        ",
"                        "};
