#define cyclops4_width 48
#define cyclops4_height 72
static unsigned char cyclops4_bits[] = {
  0x00, 0x00, 0x00, 0x00, 0x00, 0x00, 0x00, 0x00, 0x00, 0x00, 0x00, 0x00,
  0x00, 0x00, 0x80, 0xff, 0x00, 0x00, 0x00, 0x00, 0xe0, 0xff, 0xe3, 0x07,
  0x00, 0x00, 0x50, 0xf8, 0x3f, 0x0e, 0x00, 0x00, 0x08, 0xf0, 0x1f, 0x08,
  0x00, 0x00, 0x04, 0x60, 0x00, 0x00, 0x00, 0x00, 0xf4, 0x6c, 0x00, 0x00,
  0x00, 0x00, 0x54, 0x28, 0x00, 0x00, 0x00, 0x00, 0x34, 0x2c, 0x00, 0x00,
  0x00, 0x00, 0x16, 0x24, 0x00, 0x00, 0x00, 0x00, 0x32, 0x10, 0x00, 0x00,
  0x00, 0x00, 0x02, 0x20, 0x00, 0x00, 0x00, 0x00, 0x32, 0x20, 0x00, 0x00,
  0x00, 0x00, 0x74, 0x42, 0x00, 0x00, 0x00, 0x00, 0x08, 0x81, 0x01, 0x00,
  0x00, 0x00, 0xf0, 0x00, 0x06, 0x00, 0x00, 0x00, 0x08, 0x00, 0x18, 0x00,
  0x00, 0x00, 0x0c, 0x00, 0x20, 0x00, 0x00, 0x00, 0x03, 0x00, 0x40, 0x00,
  0x00, 0x00, 0x01, 0x00, 0x80, 0x00, 0x00, 0x80, 0x00, 0x00, 0x80, 0x01,
  0x00, 0x80, 0x00, 0x00, 0x00, 0x01, 0x00, 0x80, 0x00, 0x00, 0x00, 0x01,
  0x00, 0x80, 0x00, 0x00, 0x00, 0x03, 0x00, 0x40, 0x02, 0x00, 0x01, 0x02,
  0x00, 0x40, 0x02, 0x88, 0x01, 0x02, 0x00, 0x40, 0x0c, 0xf0, 0x03, 0x02,
  0x00, 0xc0, 0x34, 0x20, 0x07, 0x02, 0x00, 0x80, 0x04, 0x00, 0x06, 0x02,
  0x00, 0x80, 0x08, 0x00, 0x04, 0x02, 0x00, 0x40, 0x06, 0x00, 0x04, 0x02,
  0x00, 0x20, 0x06, 0x00, 0x04, 0x02, 0x00, 0x20, 0x03, 0x00, 0x06, 0x02,
  0x00, 0x20, 0x03, 0x00, 0x06, 0x00, 0x00, 0x10, 0x02, 0x00, 0x86, 0x01,
  0x00, 0x10, 0x82, 0x00, 0x82, 0x00, 0x00, 0xd6, 0x02, 0x00, 0x83, 0x00,
  0x00, 0xff, 0x06, 0x80, 0x83, 0x00, 0x00, 0x5c, 0x16, 0xfc, 0x60, 0x00,
  0x00, 0xf8, 0xf9, 0xf5, 0x20, 0x00, 0x00, 0xfc, 0xff, 0x2f, 0x30, 0x00,
  0x00, 0xff, 0xff, 0x7f, 0xf0, 0x00, 0x80, 0xff, 0xff, 0x7f, 0xf0, 0x01,
  0x80, 0xff, 0xff, 0x7f, 0xf8, 0x01, 0x00, 0xdc, 0xdc, 0xc3, 0xfc, 0x01,
  0x00, 0x8c, 0xd8, 0x07, 0xe7, 0x00, 0x00, 0x86, 0xf8, 0x07, 0x20, 0x00,
  0x00, 0x82, 0xa8, 0x05, 0x20, 0x00, 0x00, 0x82, 0xa0, 0x07, 0x20, 0x00,
  0x00, 0x80, 0xc0, 0x0f, 0x20, 0x00, 0x00, 0x80, 0x80, 0x0d, 0x20, 0x00,
  0x00, 0x80, 0x80, 0x08, 0x10, 0x00, 0x00, 0x40, 0x40, 0x08, 0x18, 0x00,
  0x00, 0xc0, 0xe0, 0x18, 0x1f, 0x00, 0x00, 0x80, 0xde, 0xf0, 0x3c, 0x00,
  0x00, 0x80, 0xbf, 0xe0, 0x27, 0x00, 0x00, 0x80, 0xad, 0xe0, 0x3b, 0x00,
  0x00, 0x80, 0xda, 0xa0, 0x24, 0x00, 0x00, 0x80, 0xf5, 0x20, 0x32, 0x00,
  0x00, 0x80, 0x5e, 0xe0, 0x1d, 0x00, 0x00, 0x80, 0x5f, 0xc0, 0x14, 0x00,
  0x00, 0xc0, 0x7b, 0xc0, 0x23, 0x00, 0x00, 0x40, 0x77, 0x60, 0x3a, 0x00,
  0x00, 0xf0, 0x6e, 0xe0, 0x27, 0x00, 0x00, 0xe8, 0x6b, 0x10, 0x37, 0x00,
  0x00, 0x48, 0x39, 0xf0, 0x18, 0x00, 0x00, 0x18, 0x0f, 0x48, 0x1b, 0x00,
  0x00, 0xf8, 0x03, 0x18, 0x0b, 0x00, 0x00, 0xf0, 0x01, 0x78, 0x06, 0x00,
  0x00, 0x00, 0x00, 0xf0, 0x03, 0x00, 0x00, 0x00, 0x00, 0x00, 0x00, 0x00,
  };
