#define cyclops1_width 48
#define cyclops1_height 72
static unsigned char cyclops1_bits[] = {
  0x00, 0x00, 0x00, 0x00, 0x00, 0x00, 0x00, 0x00, 0x00, 0x00, 0x00, 0x00,
  0x00, 0x00, 0x80, 0xff, 0x00, 0x08, 0x00, 0x00, 0xe0, 0xff, 0x03, 0x3e,
  0x00, 0x00, 0x50, 0xf8, 0x0f, 0x01, 0x00, 0x00, 0x08, 0xf0, 0xfd, 0x00,
  0x00, 0x00, 0x04, 0x60, 0x30, 0x00, 0x00, 0x00, 0xf4, 0x6c, 0x00, 0x00,
  0x00, 0x00, 0x54, 0x28, 0x00, 0x00, 0x00, 0x00, 0x34, 0x2c, 0x00, 0x00,
  0x00, 0x00, 0x16, 0x24, 0x00, 0x00, 0x00, 0x00, 0x32, 0x10, 0x00, 0x00,
  0x00, 0x00, 0x02, 0x20, 0x00, 0x00, 0x00, 0x00, 0x32, 0x20, 0x00, 0x00,
  0x00, 0x00, 0x74, 0xc2, 0x00, 0x00, 0x00, 0x00, 0x08, 0x01, 0x03, 0x00,
  0x00, 0x00, 0xf0, 0x00, 0x0c, 0x00, 0x00, 0x00, 0x08, 0x00, 0x30, 0x00,
  0x00, 0x00, 0x0c, 0x00, 0x60, 0x00, 0x00, 0x00, 0x03, 0x00, 0x80, 0x00,
  0x00, 0x00, 0x01, 0x00, 0x80, 0x00, 0x00, 0x80, 0x00, 0x00, 0x00, 0x01,
  0x00, 0x80, 0x00, 0x00, 0x00, 0x01, 0x00, 0xac, 0x00, 0x00, 0x00, 0x02,
  0x00, 0xa8, 0x00, 0x00, 0x01, 0x02, 0x80, 0xd8, 0x05, 0x08, 0x03, 0x02,
  0x80, 0xd9, 0x14, 0x82, 0x05, 0x02, 0x80, 0xff, 0x0d, 0xfc, 0x04, 0x06,
  0x00, 0xfe, 0x3b, 0x00, 0x0c, 0x04, 0x00, 0xfd, 0x0f, 0x00, 0x04, 0x04,
  0x00, 0xc0, 0x1f, 0x00, 0x02, 0x02, 0x00, 0x40, 0x3f, 0x00, 0x01, 0x03,
  0x00, 0x40, 0xfc, 0x00, 0x81, 0x01, 0x00, 0x20, 0xfc, 0xf3, 0x81, 0x00,
  0x00, 0x20, 0xe2, 0x1f, 0x80, 0x00, 0x00, 0x10, 0x82, 0x1f, 0x60, 0x00,
  0x00, 0x10, 0x02, 0x0e, 0x38, 0x00, 0x00, 0x88, 0x85, 0x0c, 0x1c, 0x00,
  0x00, 0x88, 0x05, 0x08, 0x16, 0x00, 0x00, 0x08, 0x0d, 0x18, 0x2e, 0x00,
  0x00, 0x08, 0x1d, 0x74, 0x2f, 0x00, 0x00, 0xc8, 0x7f, 0xff, 0x66, 0x00,
  0x00, 0xf0, 0xda, 0x7b, 0x46, 0x00, 0x00, 0x00, 0xf9, 0x1e, 0x40, 0x00,
  0x00, 0x00, 0x71, 0x6f, 0x40, 0x00, 0x00, 0x00, 0xb1, 0x3f, 0x40, 0x00,
  0x00, 0x80, 0xf0, 0x0e, 0x40, 0x00, 0x00, 0x80, 0xf0, 0x07, 0x20, 0x00,
  0x00, 0x80, 0xd0, 0x05, 0x20, 0x00, 0x00, 0x40, 0xb0, 0x07, 0x20, 0x00,
  0x00, 0x40, 0xc0, 0x0f, 0x20, 0x00, 0x00, 0x40, 0x80, 0x0d, 0x20, 0x00,
  0x00, 0x80, 0x80, 0x08, 0x10, 0x00, 0x00, 0x40, 0x41, 0x08, 0x18, 0x00,
  0x00, 0xc0, 0xe0, 0x18, 0x1f, 0x00, 0x00, 0xc0, 0xde, 0xf0, 0x3c, 0x00,
  0x00, 0x80, 0xbf, 0xe0, 0x27, 0x00, 0x00, 0x80, 0xad, 0xe0, 0x3b, 0x00,
  0x00, 0x80, 0xda, 0xa0, 0x24, 0x00, 0x00, 0x80, 0xf5, 0x20, 0x32, 0x00,
  0x00, 0x80, 0x5e, 0xe0, 0x1d, 0x00, 0x00, 0x80, 0x5f, 0xc0, 0x14, 0x00,
  0x00, 0xc0, 0x7b, 0xc0, 0x23, 0x00, 0x00, 0x40, 0x77, 0x60, 0x3a, 0x00,
  0x00, 0xf0, 0x6e, 0xe0, 0x27, 0x00, 0x00, 0xe8, 0x6b, 0x10, 0x37, 0x00,
  0x00, 0x48, 0x39, 0xf0, 0x18, 0x00, 0x00, 0x18, 0x0f, 0x48, 0x1b, 0x00,
  0x00, 0xf8, 0x03, 0x18, 0x0b, 0x00, 0x00, 0xf0, 0x01, 0x78, 0x06, 0x00,
  0x00, 0x00, 0x00, 0xf0, 0x03, 0x00, 0x00, 0x00, 0x00, 0x00, 0x00, 0x00,
  };
