#define cyclops3_width 48
#define cyclops3_height 72
static unsigned char cyclops3_bits[] = {
  0x00, 0x00, 0x00, 0x00, 0x00, 0x00, 0x00, 0x00, 0x00, 0x00, 0x00, 0x00,
  0x20, 0x00, 0xfe, 0x03, 0x00, 0x00, 0xf8, 0x80, 0xff, 0x0f, 0x00, 0x00,
  0x00, 0xe1, 0x3f, 0x14, 0x00, 0x00, 0x00, 0x7e, 0x1f, 0x20, 0x00, 0x00,
  0x00, 0x18, 0x0c, 0x40, 0x00, 0x00, 0x00, 0x00, 0x6c, 0x5e, 0x00, 0x00,
  0x00, 0x00, 0x28, 0x54, 0x00, 0x00, 0x00, 0x00, 0x68, 0x58, 0x00, 0x00,
  0x00, 0x00, 0x48, 0xd0, 0x00, 0x00, 0x00, 0x00, 0x10, 0x98, 0x00, 0x00,
  0x00, 0x00, 0x08, 0x80, 0x00, 0x00, 0x00, 0x00, 0x08, 0x98, 0x00, 0x00,
  0x00, 0x00, 0x86, 0x5c, 0x00, 0x00, 0x00, 0x80, 0x01, 0x21, 0x00, 0x00,
  0x00, 0x60, 0x00, 0x1e, 0x00, 0x00, 0x00, 0x18, 0x00, 0x20, 0x00, 0x00,
  0x00, 0x0c, 0x00, 0x60, 0x00, 0x00, 0x00, 0x02, 0x00, 0x80, 0x01, 0x00,
  0x00, 0x02, 0x00, 0x00, 0x01, 0x00, 0x00, 0x01, 0x00, 0x00, 0x02, 0x00,
  0x00, 0x01, 0x00, 0x00, 0x02, 0x00, 0x80, 0x00, 0x00, 0x00, 0x6a, 0x00,
  0x80, 0x00, 0x01, 0x00, 0x2a, 0x00, 0x80, 0x80, 0x21, 0x40, 0x37, 0x02,
  0x80, 0x40, 0x83, 0x50, 0x36, 0x03, 0xc0, 0x40, 0x7e, 0x60, 0xff, 0x03,
  0x40, 0x60, 0x00, 0xb8, 0xff, 0x00, 0x40, 0x40, 0x00, 0xe0, 0x7f, 0x01,
  0x80, 0x80, 0x00, 0xf0, 0x07, 0x00, 0x80, 0x01, 0x01, 0xf8, 0x05, 0x00,
  0x00, 0x03, 0x01, 0x7e, 0x04, 0x00, 0x00, 0x02, 0x9f, 0x7f, 0x08, 0x00,
  0x00, 0x02, 0xf0, 0x8f, 0x08, 0x00, 0x00, 0x0c, 0xf0, 0x83, 0x10, 0x00,
  0x00, 0x38, 0xe0, 0x80, 0x10, 0x00, 0x00, 0x70, 0x60, 0x42, 0x23, 0x00,
  0x00, 0xf0, 0x20, 0x40, 0x23, 0x00, 0x00, 0xf8, 0x30, 0x60, 0x21, 0x00,
  0x00, 0xe8, 0x5d, 0x70, 0x21, 0x00, 0x00, 0xcc, 0xfe, 0xfd, 0x27, 0x00,
  0x00, 0xc4, 0xbc, 0xb7, 0x1e, 0x00, 0x00, 0x04, 0xf4, 0x3e, 0x01, 0x00,
  0x00, 0x04, 0xfc, 0x1d, 0x01, 0x00, 0x00, 0x04, 0xf0, 0x1b, 0x01, 0x00,
  0x00, 0x04, 0xe0, 0x1e, 0x02, 0x00, 0x00, 0x08, 0xc0, 0x1f, 0x02, 0x00,
  0x00, 0x08, 0x40, 0x17, 0x02, 0x00, 0x00, 0x08, 0xc0, 0x1b, 0x04, 0x00,
  0x00, 0x08, 0xe0, 0x07, 0x04, 0x00, 0x00, 0x08, 0x60, 0x03, 0x04, 0x00,
  0x00, 0x10, 0x20, 0x02, 0x02, 0x00, 0x00, 0x30, 0x20, 0x04, 0x05, 0x00,
  0x00, 0xf0, 0x31, 0x0e, 0x06, 0x00, 0x00, 0x78, 0x1e, 0xf6, 0x06, 0x00,
  0x00, 0xc8, 0x0f, 0xfa, 0x03, 0x00, 0x00, 0xb8, 0x0f, 0x6a, 0x03, 0x00,
  0x00, 0x48, 0x0a, 0xb6, 0x02, 0x00, 0x00, 0x98, 0x08, 0x5e, 0x03, 0x00,
  0x00, 0x70, 0x0f, 0xf4, 0x02, 0x00, 0x00, 0x50, 0x06, 0xf4, 0x03, 0x00,
  0x00, 0x88, 0x07, 0xbc, 0x07, 0x00, 0x00, 0xb8, 0x0c, 0xdc, 0x05, 0x00,
  0x00, 0xc8, 0x0f, 0xec, 0x1e, 0x00, 0x00, 0xd8, 0x11, 0xac, 0x2f, 0x00,
  0x00, 0x30, 0x1e, 0x38, 0x25, 0x00, 0x00, 0xb0, 0x25, 0xe0, 0x31, 0x00,
  0x00, 0xa0, 0x31, 0x80, 0x3f, 0x00, 0x00, 0xc0, 0x3c, 0x00, 0x1f, 0x00,
  0x00, 0x80, 0x1f, 0x00, 0x00, 0x00, 0x00, 0x00, 0x00, 0x00, 0x00, 0x00,
  };
