/* XPM */
static char * store_armo_xpm[] = {
/* width height ncolors chars_per_pixel */
"48 48 10 1",
/* colors */
" 	s None	c None",
".	c Black",
"X	s Light gray	c Grey75",
"o	s Dark red	c Firebrick",
"O	s Dark orange	c Chocolate",
"+	s Brown	c Peru",
"@	s Light yellow	c Yellow",
"#	s Dark brown	c sienna",
"$	s Dark blue	c Navy",
"%	s Gray	c Grey50",
/* pixels */
"  .             .         .             .       ",
"  .             .         .             .       ",
"   .           .           .           .        ",
"   ..  .....  ..           ..  .....  ..        ",
"    ....XXX....             ....XXX....         ",
"     ..XXXXX..               ..XXXXX..          ",
"      .X...X.                 .X...X.           ",
"      .X...X.                 .X...X.           ",
"      .XXXXX.                 .XXXXX.           ",
"     ..XX.XX...................XX.XX..          ",
"    ..o.XXXX.oooooooooooooooooo.XXXX.o.         ",
"   .O..o.....o..o...........oo.o.....o.         ",
"  .OOO.ooooooooooo..oooooooo.oooooooooo.        ",
" .OOOOO.o..o..o..o.O.oooooooo.o.o..o..o.        ",
".OOOOOO.ooooooooooo.O.oooooooo.ooooooooo.       ",
"..OOOOOO.o..o..o..o.OO.oooooooo.o.o.o..o.       ",
"...OOOOO.ooooooooooo.OO..........oooooooo.      ",
".+..OOOOO.o..o..o..o.OO.++....++.o.o.o..o.      ",
".++..OOOO.ooooooooooo.O.+.XXX..+.ooooooooo.     ",
".+++..OOOO.o..o..o..o.O.+.XXX..+.o.o..o..o.     ",
".+.++..OOO.ooooooooooo..+......+.oooooooooo.    ",
".+..++..OOO.o..o..o..o..+......+.o..o..o..o.    ",
".+.X.++..OO.ooooooooooo.++++++++.ooooooooooo.   ",
".+.XX.++..OO.o..o..o..o...........o..o..o..o.   ",
".++.XX.++..O.oooooooooooooooooooooooooooooooo.  ",
".+++.X.+++..O.o..o..o..o..o..o..o..o..o..o..o.  ",
".++++..++++...oooooooooooooooooooooooooooooooo. ",
".+++++......+.................................. ",
".+..++.@.@..+.................................. ",
".+...+......+.++++++++++++++++++++++++++++++++. ",
".+..#.+++++++.+++++$++$$++$++$++$++$+$+$$+++++. ",
".+..#.+..++++.+$$+$+$+$+$+$$$$+$+$+$+$+$+$+$$+. ",
".+..#.+...+++.+$$+$$$+$$++$++$+$+$+$+$+$$++$$+. ",
".+....+..X.++.++++$+$+$+$+$++$++$++$$$+$+$++++. ",
"....#.+..X.++.++++++++++++++++++++++++++++++++. ",
" ...#.+..X.++.+++.....+++++.....++++++.....+++. ",
"  ..#.+..X.++.++.+++++.+++.XXXX..++++.XXXX..++. ",
"    ..++...++.++++...++++.XXXXXX..++.XXXXXX..+. ",
"     .+++..++.+++.##..+++.X.XX.X..++.XX..XX..+. ",
"     ..+++.++.++.####..++.X....X..++.X.%%.X..+. ",
"      ..+++++.++.####..++.X.@@.X..++.X.%%.X..+. ",
"       ..++++.++.####..++.X....X..++.XX..XX..+. ",
"        ..+++.++..###..++.XXXXXX..++.XXXXXX..+. ",
"         ..++.++.####..++.........++.........+. ",
"          ..+.++.####..++.........++.........+. ",
"           ...++.####..+++++++++++++++++++++++. ",
"            ..++.......+++++++++++++++++++++++. ",
"             ....     ......................... "};
