#define temple1_width 48
#define temple1_height 48
static unsigned char temple1_bits[] = {
  0x00, 0x00, 0x00, 0x00, 0x00, 0x00, 0x00, 0x00, 0x00, 0x01, 0x00, 0x00,
  0x00, 0x00, 0xc0, 0x07, 0x00, 0x00, 0x00, 0x00, 0xfc, 0x55, 0x00, 0x00,
  0x00, 0x00, 0xff, 0xaa, 0x00, 0x00, 0x00, 0xc0, 0x5f, 0x15, 0x02, 0x00,
  0x00, 0xc0, 0xfb, 0x8a, 0x00, 0x00, 0x00, 0xe0, 0x5f, 0x05, 0x08, 0x00,
  0x00, 0xf0, 0xab, 0x10, 0x10, 0x00, 0x00, 0xf0, 0x7e, 0x05, 0x00, 0x00,
  0x00, 0xb0, 0x2b, 0x82, 0x04, 0x00, 0x00, 0xf0, 0x7f, 0x05, 0x00, 0x00,
  0x00, 0xf0, 0xaa, 0x10, 0x10, 0x00, 0x00, 0xe0, 0x5f, 0x05, 0x08, 0x00,
  0x00, 0xc0, 0xfb, 0xaa, 0x02, 0x00, 0x00, 0xc0, 0x5f, 0x55, 0x01, 0x00,
  0x00, 0x00, 0xff, 0x2b, 0x01, 0x00, 0xe0, 0xff, 0xdb, 0xb6, 0x7f, 0x00,
  0x60, 0xd5, 0xdf, 0xb6, 0x95, 0x00, 0xe0, 0x6b, 0xfd, 0xff, 0x3f, 0x03,
  0xf0, 0xf7, 0x02, 0x00, 0x4c, 0x04, 0xd0, 0x7f, 0xf1, 0xff, 0x97, 0x07,
  0xf0, 0xbf, 0x52, 0x55, 0x2f, 0x07, 0xa0, 0x76, 0xb1, 0x8e, 0x16, 0x08,
  0xe0, 0xeb, 0x58, 0x57, 0xaf, 0x08, 0xe0, 0xf5, 0xad, 0x8b, 0x5e, 0x08,
  0xe0, 0xff, 0xd7, 0x05, 0xfd, 0x07, 0xf0, 0xd7, 0xec, 0x2a, 0x4e, 0x05,
  0xd0, 0xef, 0xf9, 0x15, 0x5d, 0x04, 0xf0, 0xd7, 0xfc, 0xaa, 0x4e, 0x04,
  0x50, 0xff, 0xf5, 0xff, 0xd7, 0x0f, 0xf0, 0xf7, 0x3c, 0x93, 0x4c, 0x08,
  0x50, 0xeb, 0xd5, 0x6e, 0x5b, 0x09, 0xf0, 0xd7, 0x1c, 0x00, 0x48, 0x0c,
  0x50, 0xeb, 0x5d, 0x55, 0x59, 0x08, 0xf0, 0xf7, 0xb4, 0xff, 0x4b, 0x09,
  0x50, 0xeb, 0xdd, 0x00, 0x5c, 0x0c, 0xf0, 0xd7, 0x74, 0xfe, 0x49, 0x08,
  0x50, 0xeb, 0x5d, 0xab, 0x5a, 0x09, 0xf0, 0xf7, 0x7c, 0x77, 0x4b, 0x0c,
  0x60, 0xeb, 0x55, 0xf7, 0x59, 0x08, 0xc0, 0xd7, 0x7c, 0x77, 0x4b, 0x09,
  0x00, 0xeb, 0x55, 0xf7, 0xd9, 0x0f, 0x00, 0xbe, 0x7b, 0x77, 0x3b, 0x00,
  0x00, 0x00, 0x70, 0xff, 0x09, 0x00, 0x00, 0x00, 0x60, 0x01, 0x0b, 0x00,
  0x00, 0x00, 0xc0, 0x01, 0x0e, 0x00, 0x00, 0x00, 0x00, 0x00, 0x00, 0x00,
  };
