/* XPM */
static char * gaelotroll_212_xpm[] = {
"24 24 3 1",
" 	s None	c None",
".	c Black",
"X	s Light blue	m white	c DodgerBlue",
"                        ",
"   ....                 ",
"  .XX... ..             ",
"  .XXXX. .X.            ",
"  .XXXXX.XXX.           ",
". .XXXXX..XX.           ",
"X..X.XXX.XXX..          ",
"XX..XXXXX.XXX..         ",
"XXX.X.XXXXX.XX.         ",
"XXXX.XX..X.XXX...       ",
"XXXXX.XXXX.XXXXXX.      ",
".XX.XXXXXXXXXX....      ",
"..XX...X..XXX....       ",
" ...XX......X.XX.       ",
".XXX..X.XX..X....       ",
"X..XXXX....XXX. .       ",
"XXXXXXXXXXXX.XX.  .     ",
"..XXXXX..XXXXXX... .    ",
"....XXXXX.X...X.. ....  ",
"..XXX.XXX... ...  .XXX. ",
"XXXXX.XXXX... . . .X..X.",
"X.XXXX...XX.....  ...XX.",
".XX.XXX.X.XXXXX.   .....",
".X.XXX..XX..XXXX.   .X.."};
