/* XPM */
static char * gaelotroll_512_xpm[] = {
/* width height ncolors chars_per_pixel */
"24 24 3 1",
/* colors */
" 	s None	c None",
".	c Black",
"X	s Light blue	m white	c DodgerBlue",
/* pixels */
"          .X.XXXXX.. .XX",
"          ...XX.XX. ..XX",
"          .XXXX.XX.   ..",
"         .XXX.X.XX..  ..",
"         .XXX.X.XX..  . ",
"         .XXX.X.XXX.    ",
"         .XX.XXX.X.     ",
"        .XXXXXXXXX.     ",
"       .XXXXXXXX...     ",
"      .XXXXXXXXXXXX..   ",
"     .XXXXXXXXXXXXXXX.  ",
"    ..XXX..X...XXXXXX.  ",
"    .XXX...XX. ..XX.XX. ",
"    ..XX.  .X.  .XX..X. ",
"     .XX. .XX.   .X.XX. ",
"      ... ....  .XX...  ",
"                 ..    .",
"                      .X",
"                       .",
"                      .X",
"                    ..XX",
"                  ..XXX.",
"                 .X.XX..",
"                ......XX"};
