/* XPM */
static char * CSword_113_xpm[] = {
"24 24 4 1",
" 	s None	c None",
".	c Black",
"r	c Red",
"g	s Gray	c Grey50",
"                      ..",
"                     ...",
"                    ... ",
"                   ...  ",
"                  ...   ",
"                 ...    ",
"                g..     ",
"               ...      ",
"              g..       ",
"             ...        ",
"          . ...         ",
"   .    .. ...          ",
" g.   ... ...           ",
"  .   .. ... .          ",
"  .   ..... .           ",
"....  .rr. ..           ",
".......rr...            ",
"   .........            ",
"   .....                ",
"  ..r...                ",
" ........   .           ",
".rr..  .....            ",
".rr.   ..  .            ",
"...    ..               "};
