/* XPM */
static char * shop_empty_111_xpm[] = {
/* width height ncolors chars_per_pixel */
"24 24 2 1",
/* colors */
" 	c White",
".	s Light gray	m Black	c Grey75",
/* pixels */
" . . . . . . . . . . . .",
". . . . . . . . . . . . ",
" . . . . . . . . . . . .",
". . . . . . . . . . . . ",
" . . . . . . . . . . . .",
". . . . . . . . . . . . ",
" . . . . . . . . . . . .",
". . . . . . . . . . . . ",
" . . . . . . . . . . . .",
". . . . . . . . . . . . ",
" . . . . . . . . . . . .",
". . . . . . . . . . . . ",
" . . . . . . . . . . . .",
". . . . . . . . . . . . ",
" . . . . . . . . . . . .",
". . . . . . . . . . . . ",
" . . . . . . . . . . . .",
". . . . . . . . . . . . ",
" . . . . . . . . . . . .",
". . . . . . . . . . . . ",
" . . . . . . . . . . . .",
". . . . . . . . . . . . ",
" . . . . . . . . . . . .",
". . . . . . . . . . . . "};
