/* XPM */
static char * afloor_131_xpm[] = {
/* width height ncolors chars_per_pixel */
"24 24 2 1",
/* colors */
" 	s Dark brown	m white	c sienna",
".	c Black",
/* pixels */
" . . . . . . . . . . . .",
"  .   .   .   .   .   . ",
" .   .   .   .   .   .  ",
".   .   .   .   .   .   ",
" . . . . . . . . . . . .",
"  .   .   .   .   .   . ",
" .   .   .   .   .   .  ",
".   .   .   .   .   .   ",
" . . . . . . . . . . . .",
"  .   .   .   .   .   . ",
" .   .   .   .   .   .  ",
".   .   .   .   .   .   ",
" . . . . . . . . . . . .",
"  .   .   .   .   .   . ",
" .   .   .   .   .   .  ",
".   .   .   .   .   .   ",
" . . . . . . . . . . . .",
"  .   .   .   .   .   . ",
" .   .   .   .   .   .  ",
".   .   .   .   .   .   ",
" . . . . . . . . . . . .",
"  .   .   .   .   .   . ",
" .   .   .   .   .   .  ",
".   .   .   .   .   .   "};
