/* XPM */
static char * beggar_111_xpm[] = {
/*ailor.111.xpm*/
"24 24 6 1",
/**/
" 	s None	c None",
".	c black",
"X	s Dark gray	c grey25",
"o	s Light brown	c Khaki",
"O	s Dark brown	c sienna",
"+	s Light gray	c grey75",
/**/
"                        ",
"         ...            ",
"        .XXX.           ",
"        .XXX.           ",
"         ...            ",
"         .o.            ",
"         .o.....        ",
"         ....O.+.       ",
"         .O.O.O.O.      ",
"        .O.+.O...O.     ",
"       .+...O.+...O.    ",
"    ...O..  .O.O.O..    ",
"   .oo...   ..O...O.    ",
"    ...     .O.O...o.   ",
"           .+.O.O.oo.   ",
"           ..O.O.O...   ",
"           .O.O.O.O.    ",
"           ..O.O.+.O.   ",
"           .O.+.O.O..   ",
"           ..O.+.O.O.   ",
"           .O.O.O.O..   ",
"           ......O...   ",
"            ... ...     ",
"           ..   ..      "};
