/* XPM */
static char * fatwoman_111_xpm[] = {
"24 24 8 1",
" 	s None	c None",
".	s Dark magenta	c Maroon",
"X	s Light brown	c Khaki",
"o	c blue",
"O	c black",
"+	s Dark green	c SeaGreen",
"@	c white",
"#	s Gray	c grey50",
"                        ",
"                        ",
"          ....          ",
"         ......         ",
"        ...XX...        ",
"        ..XooX..        ",
"         .XXXX.         ",
"         OXOOXO         ",
"       OOO+XX@OOO       ",
"      O#@+@+@+@+@O      ",
"     O+#+@+@+@+@+@O     ",
"    O##+#+@+@+@+#+@O    ",
"   O+#+@+@+#+@+@+#+O    ",
"   O#+@+@+@+#+@+@+@+O   ",
"   O+#+@+@+#+@+@+#+@O   ",
"   OO+##+#+++#+##+++O   ",
"    O+++#+@+@+#+++@+O   ",
"    O#+@+@+@+@+@+@+@O   ",
"    O+@+@+@+@+@+@+@O    ",
"    O#+++@+@+@+@+++O    ",
"     O#+@+++@+++@+@O    ",
"     O+@+@+@+@+@+@O     ",
"     OO#+#+#+#+#+#O     ",
"       OOOO OOOO        "};
