/* XPM */
static char * cyclops_371_xpm[] = {
"24 24 7 1",
" 	s None	c None",
".	c black",
"X	c Khaki",
"o	s Dark brown	c Sienna",
"O	c chocolate",
"+	c gold",
"@	c SeaGreen",
"       .XXXXXXXX.XXXXXXX",
"       .XXXXXXX..XXXX.XX",
"       .XXXXXX.X..XXXXX.",
"      ..XXXXXX.XX......X",
"      .XXXXXX..XXXXXXXXX",
"      .XXXXXXX.XXXXXXXXX",
"       .XXXXXXX.XXXXXXXX",
"       ..XXXXXXX.XXXXXXX",
"        ..XXXXXX.XXXXXXX",
"         .XXXXXX.....XXo",
"         .XXXXXXXXXX.ooo",
"          ..XXXXXXXX.ooo",
"           ...XXXXXXX.oo",
"            ...XXXXXX.OX",
"            .oo.XXXXX.XX",
"           ..oooXXXX..XX",
"           .X.oo.X...+.X",
"          ..XXO.X..@@...",
"          .XXX..XX..@@+@",
"          .XXXXXXXX@@@.@",
"          .XXXXXXX..+@@@",
"          .XXXXXXXX..@@@",
"          .XXXXXXXXXX.@@",
"           .XXXXXXXXXX.@"};
