/* XPM */
static char * cyclops_171_xpm[] = {
"24 24 3 1",
" 	s None	c None",
".	c black",
"X	c Khaki",
"                        ",
"                        ",
"     .           .......",
"   .....       .........",
"        .    .........XX",
"         ...... .....XXX",
"           ..     ..XXXX",
"                  ..X..X",
"                   .X.XX",
"                   .X..X",
"                   .XX.X",
"                    .XXX",
"                   .XXXX",
"                   .XXXX",
"                 ..XXXX.",
"               ..XXXXXXX",
"             ..XXXXXXXXX",
"           ..XXXXXXXXXXX",
"          ..XXXXXXXXXXXX",
"         .XXXXXXXXXXXXXX",
"         .XXXXXXXXXXXXXX",
"        .XXXXXXXXXXXXXXX",
"        .XXXXXXXXXXXXXXX",
"       .XXXXXXXXXXXXXXXX"};
