/* XPM */
static char * tavern_111_xpm[] = {
"24 24 12 1",
" 	s None	c None",
".	c Black",
"X	s Dark gray	c Grey25",
"o	s Light gray	c Grey75",
"O	s Gray	m white	c Grey50",
"+	s Dark brown	m white	c Sienna",
"@	s Yellow	c Gold",
"#	s Brown	c Peru",
"$	c White",
"%	s Light yellow	c yellow",
"&	s Dark red	m white	c firebrick",
"*	s Light green	c Green",
"                        ",
"    ..................  ",
"    ..XXXXXXXXXXXXXXXX. ",
"   .oo..................",
"   .oo.OOOOOOOOOOOOOOOO.",
"  .ooo..O.O.O.O.O.O.O.O.",
"  .oo.OOOOOOOOOOOOOOOO. ",
" .o+o..O.O.O.O.O.O.O.O. ",
" .o+o.OOOOOOOOOOOOOOOO. ",
".o++o.O.O.O.O.O.O.O.O.. ",
".o@+o.OOOOOOOOOOOOOOOO. ",
"o+@o.O.O.O.O.O.O.O.O..  ",
"o++o.OOOOOOOOOOOOOOOO.  ",
"o+o+..................  ",
"o+o+#$+++$$$$#$$$$#$$#  ",
"oo+#$+$$$+$$######$$#   ",
"oo+#$$++$$$$$$$$$$$$#   ",
"o+#$$+%@+$$$####$$$#    ",
"o+#$$+%@+$$#&&&#$$$#    ",
"+#$$+@@+$$#&&&&#$$#     ",
"+#$$++++$$#.&&&#$$#     ",
"#$*$$$$*$#&&&&#$$#      ",
"####*##*##    ####      ",
"                        "};
