/* XPM */
static char * demon_lord_M11_xpm[] = {
/* width height ncolors chars_per_pixel */
"24 24 3 1",
/* colors */
" 	c black",
".	c red",
"X	s None	c None",
/* pixels */
"               .        ",
"               ..       ",
"                ........",
"                 .......",
"               .        ",
"                  XXXXXX",
"              . . XXXXXX",
"               .  XXXXXX",
"             . . XXXXXXX",
"              .  XXXXXXX",
"            .   XXXXXXXX",
"             . XXXXXXXXX",
"           ..  XXXXXXXXX",
"            . XXXXXXXXXX",
"          . . XXXXXXXXXX",
"              XXXXXXXXXX",
"          .. XXXXXXXXXXX",
"          .  XXXXXXXXXXX",
"         .  XXXXXXXXXXXX",
"          . XXXXXXXXXXXX",
"         .. XXXXXXXXXXXX",
"        ..  XXXXXXXXXXXX",
"       . .. XXXXXXXXXXXX",
"        .   XXXXXXXXXXXX"};
