/* XPM */
static char * dread_113_xpm[] = {
/* width height ncolors chars_per_pixel */
"24 24 7 1",
/* colors */
" 	s None	c None",
".	c navy",
"X	c cyan2",
"o	c dodger blue",
"O	c blue",
"+	c white",
"@	c red",
/* pixels */
"                        ",
"                        ",
"                       .",
"                      .X",
"                      .o",
"            ..        .X",
"           .XX.       .o",
"           .Xo.       .X",
"            .o.      .o.",
"         ..  .X.     .X.",
"        .XX. .o.     .o.",
"        .Xo.  .X.    .X.",
"       .o..   ..X....OO.",
"   ..  .X.     ..o.ooooo",
"  .XX. .oo.. ..o.O.oo.oo",
"  .Xo.  .Xoo.ooo.ooooooo",
"  ..X.   ...oOo.oooooooo",
"   .X.    .oOooooooooooo",
"   .o.   .oooooooooooooo",
"    .X.  .ooo.oooooooooo",
"    ..o..ooooo..o.....o.",
"     .oXoOooooo.........",
"      ..O.oooo...++++...",
"       .oooooo..+@@@++.."};
