/* XPM */
static char * fungus_114_xpm[] = {
"24 24 4 1",
" 	s None	c None",
".	s Light blue	c DodgerBlue",
"X	s Light green	c green",
"o	s Dark green	c SeaGreen",
"                        ",
"                        ",
"                        ",
"                        ",
"                        ",
"         ........       ",
"       ...X.X.X.X..     ",
"     ..X.X.X.X.X.X..    ",
"    ..X.X.X.X.X.X.X..   ",
"o   .X.X.X.X.X.X.X.X.. o",
"    ..X.............X.  ",
"     .. . .ooooo   ..   ",
"          ..ooo.        ",
"          .oooo.        ",
"o        ..oo.o.   o    ",
"     o   ..oo.o.        ",
"         ..oo.o        o",
"          .oo..         ",
"          .o..          ",
"   .               .    ",
"                        ",
"                        ",
"                        ",
"                        "};
