/* XPM */
static char * mouse_111_xpm[] = {
/* width height ncolors chars_per_pixel */
"24 24 5 1",
/* colors */
" 	s None	c None",
".	s Dark brown	c sienna",
"X	c peru",
"o	c Khaki",
"O	c Black",
/* pixels */
"                        ",
"                        ",
"                        ",
"                        ",
"                        ",
"                        ",
"                        ",
"                        ",
"      .              X  ",
"      ..   XXXX.      X ",
"   XXX.. XX.......    X ",
"  X...o............   X ",
" ..................   X ",
"   ..............O.. XX ",
"     OO .O.....O.. .XX  ",
"        . . .OO .       ",
"       .   .     .      ",
"                        ",
"                        ",
"                        ",
"                        ",
"                        ",
"                        ",
"                        "};
