/* XPM */
static char *noname[] = {
/* width height ncolors chars_per_pixel */
"24 24 2 1",
/* colors */
"` c #000",
"a c #FFF",
/* pixels */
"aaaaaaaaa````aaaaaaaaaaa",
"aaaaaaaaa`aa`aaaaaaaaaaa",
"aaaaaaaa``````aaaaaaaaaa",
"aaaaaaa`aaaaaa`aaaaaaaaa",
"aaaaaa`aa````aa`aaaaaaaa",
"aaaaaa`a`aaaa`a`aaaaaaaa",
"aaaaaa`aa`aa`aa`aaaaaaaa",
"aaaaaa`aa`aa`aa`aaaaaaaa",
"aaaaaaa``a``a``aaaaaaaaa",
"aaaa```a`aaaa`a```aaaaaa",
"aaaa`aaa``aa``aaa`aaaaaa",
"aaa``aaaaa``aaaaa``aa```",
"aa``aaaaa````aaaaa`a`aa`",
"aa`aaa`aa````aaaaaa``aa`",
"a`aaa``aaa``aaa``aaaaa`a",
"`aa````aaaaaaaa```aaa``a",
"`a``aa``````````a```a`aa",
"```a```aaaaaaa````a```aa",
"aaa``aaaaaaaa``aaa`aaaaa",
"aa``aaaa`aa``aaaa``aaaaa",
"aa``aaaa````aaaaa`aaaaaa",
"aaa`aaaaaa```````aaaaaaa",
"aaaa``aaaaaaa``````aaaaa",
"aaaaa``````````````aaaaa"
};
