/* XPM */
static char * ent_312_xpm[] = {
/* width height ncolors chars_per_pixel */
"24 24 3 1",
/* colors */
" 	s None	c None",
".	s Dark brown	c sienna",
"X	s Light brown	c Khaki",
/* pixels */
"   ..XX..     .XX.XXXXXX",
" ...XX.........XX.XX.XXX",
" .XXXXXXXXX....XXXXXXXXX",
" ..XX.X.X..XXXXX....XX..",
"...XXXXXXXXXXXXX.XX.XX.X",
"   .X.......XXXXX..XXXX.",
"   .X.     ..X.XXXXX..XX",
"  .X.       ..XX.XXXXXXX",
"  .X.        ..XXXXXXXXX",
"  ...        ..XXX....XX",
"  ..         .XXX.XXXX.X",
"   .         .XXX.......",
"             .X.XXXXXXXX",
"             ..XXXXXXXXX",
"            ..XXXX.X..X.",
"           ..X.XX.XXXXX.",
"          ..XXXX.XXX.XXX",
"       ....XXXXXXXXXX.XX",
"     ..XXXXX..X...XXX...",
"    .X.X.XXXX... .XXX...",
"    ..XXXX....   .XXX.  ",
"     ......      ....   ",
"                        ",
"                        "};
