/* XPM */
static char * ent_413_xpm[] = {
/* width height ncolors chars_per_pixel */
"24 24 3 1",
/* colors */
" 	s Light brown	c Khaki",
".	s Dark brown	c sienna",
"X	s None	c None",
/* pixels */
"     .         ..    ..X",
"   .    . . .....  ...XX",
"..   ..  .  .XXX....XXXX",
" .     .   .XXXX..XXXXXX",
".    ......XXXXXXXXXXXXX",
"  . ....XXXXXXXXXXXXXXXX",
"    .XXXXXXXXXXXXXXXXXXX",
" .. .XXXXXXXXXXXXXXXXXXX",
".   .XXXXXXXXXXXXXXXXXXX",
"..  .XXXXXXXXXXXXXXXXXXX",
"... ..XXXXXXXXXXXXXXXXXX",
"    .XXXXXXXXXXXXXXXXXXX",
" .. .XXXXXXXXXXXXXXXXXXX",
"  .. ........XXXXXXXXXXX",
"  .  . . .  .XXXXXXXXXXX",
".  .       . .XXXXXXXXXX",
" .  .   ..   .XXXXXX.XXX",
"    ......   .XXXX...XXX",
".  . ..XX.   .XXX..  ..X",
"..    .XXX.  .XXX..   .X",
"XX.  ..XXXX...XXXXX....X",
"XX.  ...XXXXXXXXXXXXXXXX",
"X.....XXXXXXXXXXXXXXXXXX",
"XXXXXXXXXXXXXXXXXXXXXXXX"};
