/* XPM */
static char * longship_211_xpm[] = {
/* width height ncolors chars_per_pixel */
"24 24 4 1",
/* colors */
" 	s None	c None",
".	s Dark brown	c sienna",
"X	s Brown	c Peru",
"o	s Light gray	c Grey75",
/* pixels */
"                        ",
"                        ",
"                   ...  ",
"   .     .        .XXX. ",
"   .     .   .   .XX.XX.",
"  .X.   .X.  .  .XX.X.X.",
"  .X.   .X. .X. .X.XXXX.",
"   .     .  .X. .XX.XX. ",
"   .     .   .  .XX...  ",
"    .   .    . ..XX.    ",
"    .   .    . .X.X.    ",
"    .   .    . .X.X.    ",
"     ...     ....XX.    ",
".   .ooo.   .ooo.XX.    ",
"o. .o...o. .o...o.X.    ",
"o...o.o.o...o.o.o.X.    ",
"o.X.o...o.X.o...o.X.    ",
".XXX.ooo.XXX.ooo.X.     ",
"XX.XX...XX.XX...XX.     ",
"X.X.XXXXX.X.XXXXX.      ",
"XXXXXXXXXXXXX.XX.       ",
"X.X.X.X.X.X.XXX.        ",
"XXXXXXXXXXXXX..         ",
".............           "};
