/* XPM */
static char * s_ship_411_xpm[] = {
"24 24 5 1",
" 	c black",
".	s None	c None",
"X	c white",
"o	s Light gray	c grey75",
"O	s Yellow	c gold",
"   ................. ...",
" X .........     .  ....",
" Xo  ............      .",
" ..Xo ..........  ......",
"  .XXX ........ ........",
"  ...Xo ......  ........",
"  ....XX ....  .........",
"  .....Xo ..  ..........",
"  ......XX     .........",
"  .......      .........",
"  ......     O  ........",
"    .           ........",
"  OO             .......",
"              O  .......",
"              O  .......",
"o o o             ......",
"              O   ......",
"o o o             ......",
"              O  .......",
"             O  ........",
"               .........",
".    .  .   O  .........",
".   .. ..  .. ..........",
"........................"};
