/* XPM */
static char * s_ship_211_xpm[] = {
/**/
"24 24 4 1",
/* colors */
" 	s None	c None",
".	c black",
"X	s Light gray	c grey75",
"o	c white",
/* pixels */
"                        ",
"                        ",
"                        ",
"                        ",
"                        ",
"                        ",
"                        ",
"                        ",
"                        ",
".                       ",
" .                      ",
".X.                     ",
" oX..                   ",
"   o..                  ",
"    oo.                 ",
"                        ",
".                       ",
".                       ",
".                       ",
".                       ",
".                       ",
".                       ",
".                     . ",
"o.                   .  "};
