/* XPM */
static char * pier_4_111_xpm[] = {
/* width height ncolors chars_per_pixel */
"24 24 3 1",
/* colors */
" 	s None	c None",
".	c Sienna",
"X	c Peru",
/* pixels */
"                        ",
"     .......... ....... ",
"     .XXXXXXXXX.XXXXXX. ",
"     .XXXXXXXXX.XXXXXX. ",
"     ...X....X.....X... ",
"    ..XXXXXXX.XXXXXXXX. ",
"    ..XXXXXXX.XXXXXXXX. ",
"   ............X....X.. ",
"   ...XXXXXXXXX.XXXXXX. ",
"  .. .XXXXXXXXX.XXXXXX. ",
"  .. ..X.....X.....X... ",
" ..  .XXXXXXX.XXXXXXXX. ",
" ..  .XXXXXXX.XXXXXXXX. ",
"..   ....X.....X....... ",
"..  ..XXXXXXXXX.XXXXXX. ",
"    ..XXXXXXXXX.XXXXXX. ",
"   .....X...X.....X.... ",
"   ...XXXXXX.XXXXXXXXX. ",
"  .. .XXXXXX.XXXXXXXXX. ",
"  .. .........X.....X.. ",
" ..  .XXXXXXXX.XXXXXXX. ",
" ..  .XXXXXXXX.XXXXXXX. ",
"..  ....X.............. ",
"..  ..XXXXXXXXXXXXXXXX. "};
