/* XPM */
static char * pier_B_111_xpm[] = {
/* width height ncolors chars_per_pixel */
"24 24 3 1",
/* colors */
" 	s None	c None",
".	c Sienna",
"X	c Peru",
/* pixels */
"     ..XXXXXXX.XXXXXXX. ",
"......X....X.....X....X.",
"XXXXXX.XXXXXXXXXX.XXXXXX",
"XXXXXX.XXXXXXXXXX.XXXXXX",
"...X....X.....X......X..",
"XXX.XXXXXXXXXX.XXXXXXXXX",
"XXX.XXXXXXXXXX.XXXXXXXXX",
"......X....X....X.......",
"XXXXXX.XXXXXXXXX.XXXXXXX",
"XXXXXX.XXXXXXXXX.XXXXXXX",
".X..X....X....X.....X...",
"XXXX.XXXXXXXXX.XXXXXXXXX",
"XXXX.XXXXXXXXX.XXXXXXXXX",
"........................",
"........................",
"    ..      ..      ..  ",
".. .. . .. .. . .. .. . ",
"   ..  .   ..  .   ..  .",
". .. .. . .. .. . .. .. ",
"  ..      ..      ..    ",
" .. .... .. .... .. ....",
" ..      ..      ..     ",
"..      ..      ..      ",
"..      ..      ..      "};
