/* XPM */
static char * jessyb_D11_xpm[] = {
/* width height ncolors chars_per_pixel */
"24 24 3 1",
/* colors */
" 	s None	c None",
".	c Black",
"X	c Red",
/* pixels */
"         ..XXXX....X....",
"          .XXXXX...X...X",
"          .XXXXX..XX.X.X",
"          .XXXXXX.XX.X.X",
"          ..XXXXXXX. .X.",
"            .XXXXXX.  ..",
"            .XXXXX.    .",
"            .XXXXXX..   ",
"           ...XXXXXX.   ",
"         ...XX.XXXXX.   ",
"      ...XXXXXXXXXXX.   ",
"    ..XXXXXXXXXXXXX..   ",
"  ...XXXXXXXXXXXXX..    ",
" ..XX.XXXXXXX..XX..     ",
"  ...XXXXXXXX. ..       ",
" .XX...XXXX..           ",
"  .. .XXX..             ",
"     .XXX.              ",
"    .X...               ",
"   ....                 ",
"                        ",
"                        ",
"                        ",
"                        "};
