/* XPM */
static char * jessyb_313_xpm[] = {
"24 24 3 1 0 0",
" 	s None	c None",
".	c Black",
"X	c Red",
"                  ...   ",
"                   .X.  ",
"                   ...  ",
"                   .X.  ",
"                  .XX.  ",
"                  .XX.  ",
"                 .XX..  ",
"                 .XX... ",
".                .XX.X. ",
"..              .XXX.X. ",
"X.       .      .XXX.X. ",
"X.      ..     .XXXX.XX.",
".. .   .X.     .XXX...X.",
"X. .. .X.     ..XXX...X.",
"X.  ..XX.     ..XX....X.",
"..  .XX.     ..XXX....X.",
"....XX..    ...XXX....X.",
"...X..      ..XXXX....X.",
".XX...     ..XXXXX....X.",
"XX..X.     ...XXXX....X.",
"....X.    ...XXXX.....X.",
"XX...     ..XXXXX.....X.",
"X.X.     ....XXX......X.",
"X.X.     ...XXXX......X."};
