/* XPM */
static char * director_185_xpm[] = {
/* width height ncolors chars_per_pixel */
"24 24 2 1",
/* colors */
" 	s None	c none",
".	c blue",
/* pixels */
"                        ",
"..                      ",
"....                    ",
" .  ..                  ",
" . .....                ",
"  ...  ...              ",
"  ..  ... ..            ",
"   . ...  ....          ",
"   ....  ...  ..        ",
"    ..  ...  .....      ",
"    .  ...  ...  ...    ",
"     ....  ...  ... ..  ",
"     ...  ...  ...  ... ",
"      .  ...  ...  ...  ",
"      . ...  ...  ...   ",
"       ...  ...  ...    ",
"       ..  ...  ...     ",
"        . ...  ...      ",
"        ....  ...       ",
"         ..  ...        ",
"         .  ...         ",
"          ....          ",
"          ...           ",
"           .            "};
