/* XPM */
static char * hands_111_xpm[] = {
"24 24 4 1",
" 	s None	c None",
".	c black",
"X	c pink",
"o	c firebrick",
"                        ",
"        .......         ",
"      ..XXXXXX.         ",
"    ..XXXXXXXX.         ",
"   .XXXXXXXXX.          ",
"  .XXXXXXXX..           ",
"  .XXXXXXXX.            ",
" ..XXXXXXXX.        .   ",
" ..X.XXXXXX.    ....X.  ",
" .XX.X.XXX.     .X..X.  ",
" .X.X.XX.X.  .. .X..X.  ",
" .X.X.X..X. .X. .X..X.. ",
" .X.X.X..X. .X..XX.XX.. ",
"  ..X.X... .X..XX.XX.X. ",
"   .X..X.  .XXXX.XX.X.. ",
"    .X..  .XXXXXXX.X.X. ",
"     .    .XXXXXXXX.XX. ",
"          .XXXXXXXXXX.  ",
"         .XXXXXXXXXo.   ",
"        .XXXXXXXXo..    ",
"        .XXXXXXo..      ",
"        ..XXXo..        ",
"         .....          ",
"                        "};
