/* XPM */
static char * skin_111_xpm[] = {
"24 24 5 1",
" 	s None	c None",
".	c black",
"X	c Khaki",
"o	s Dark brown	c Sienna",
"O	c red",
"                        ",
"                        ",
"            .....       ",
"         ....XoXX.      ",
"      ....XXXoXXX..     ",
"     ..XXXoXXXXXXX.     ",
"    ..XXXXoXXXXXo.      ",
"   ..XXXXXXXXoXoXX.     ",
"   .XXXoXXXXoXXXXX.     ",
"   ..XXoXXXXXXXoXX..    ",
"    .XXXXXXXXXXoXXXX.   ",
"    .XXXXXXXXXXXXXXX..  ",
"   ..XXoXXoXXXXXXXXXX.  ",
"  ..XXoXXXoXXXXXXXXX.   ",
"  .XXXXXXXXXXXXoXXXX.   ",
"  ..XXXXXXXXXXoXXXXX.   ",
"  ........XXXXXXXXXX..  ",
"    ..  O..XXXXXXXXX.   ",
"    .     O.XXX......   ",
"           .....OO.     ",
"            .O.         ",
"                        ",
"                        ",
"                        "};
