/* XPM */
static char * dragoncave_111_xpm[] = {
/* width height ncolors chars_per_pixel */
"24 24 3 1",
/* colors */
" 	s None	c None",
".	c Red",
"X	c salmon",
/* pixels */
"                        ",
"                 .      ",
"                .     . ",
"               .     .  ",
"              .     .   ",
"            ..    ..    ",
"           ..    ..     ",
"          ..   ...      ",
"         .X....X.       ",
"        .XXXXXXX.       ",
"       .XXXXXXX.        ",
"      .XXXXXX...        ",
"      .XXXX.....        ",
"     .XXX........       ",
"     .XX.X.........     ",
"    .XX................ ",
"   .XX..X.............. ",
"  .XX.XX.X............. ",
" .XX.XX.X... .......... ",
" .X.XX.X..    ......... ",
"  .XX.X..       ....... ",
"   ..X..         ...... ",
"    ..            ..... ",
"                        "};
