/* XPM */
static char * belzebub_411_xpm[] = {
/* width height ncolors chars_per_pixel */
"24 24 3 1",
/* colors */
" 	c black",
".	c Khaki",
"X	s None	c None",
/* pixels */
"  ..  . . . . .  . XXXXX",
"    .. ... .   . . XXXXX",
"    . . .  ...  .  XXXXX",
"   .   .  .  . ... XXXXX",
"  .  .  ..  . . . . XXXX",
" .  .     .   .. .. XXXX",
".    ....  .  . . . XXXX",
".  ...     . . ...  XXXX",
" .     .  .  .. . . XXXX",
"  ..  .. .    .. .  XXXX",
"    .   .   . . . . XXXX",
"     .. .  ... ...  XXXX",
"       .  . . . . . XXXX",
"      .  ... ... . XXXXX",
"     .  . . . . .  XXXXX",
"    .      ... .. XXXXXX",
" ...  .. .       XXXXXXX",
".     . . ... XXXXXXXXXX",
"   ... ... . . XXXXXXXXX",
". . . . . . .. XXXXXXXXX",
" ... ... . . . XXXXXXXXX",
". . . . . ...  XXXXXXXXX",
"..  .. ... . . XXXXXXXXX",
".   . . . . .. XXXXXXXXX"};
