/* XPM */
static char * belzebub_112_xpm[] = {
/* width height ncolors chars_per_pixel */
"24 24 3 1",
/* colors */
" 	s None	c None",
".	c black",
"X	c Khaki",
/* pixels */
"           .            ",
"          .X.           ",
"          .X.           ",
"         .XX.           ",
"         .X.          . ",
"        ..X.         .X.",
"        .XX.          .X",
"        ..X.        ..X.",
"        .XX.         ..X",
"        ..X.        .XXX",
"        .XX.         .X.",
"       .X.X.         .XX",
"       .XX.          .XX",
"       ..X.          .XX",
"       .XX.          .XX",
"       ..X.          .XX",
"      .XXX.     ....  .X",
"      ..X.     .XXXX.  .",
"      .XX.    .XX.XXX..X",
"      ..X.    .X.XX.....",
"      .XX.   ...XX.X.XXX",
"      ..X.  .XXX.XX.XX..",
"      .XX.  ..X.X.X.X...",
"   .........XX.XXX..X..."};
