/* XPM */
static char * dirt_111_xpm[] = {
"24 24 4 1",
" 	s None	c None",
".	s Dark brown	c Sienna",
"X	c black",
"o	c grey50",
"                        ",
"                        ",
"                        ",
"                        ",
"           .            ",
"          X.            ",
"         ..o.           ",
"        X..o.o          ",
"       .X...ooo         ",
"       X.X...o.o        ",
"      ....o.o.oo        ",
"      X.o...o..o.       ",
"     .X...X..o.oo.      ",
"  . .X.X.o..ooo.o.  .   ",
"  o.X.X...o....oo..     ",
"    X.o.o....o..oo. o.  ",
"     .....o...ooooo     ",
"    . X.....o.o..o.     ",
"    .   .......         ",
"       .o ..o. o.       ",
"     .    .   .o        ",
"            .           ",
"                        ",
"                        "};
