/* XPM */
static char * salt_111_xpm[] = {
"24 24 3 1",
" 	s None	c None",
".	c black",
"X	c white",
"                        ",
"                        ",
"                        ",
"                        ",
"                        ",
"         ...            ",
"         .X..           ",
"        ..XX....        ",
"        .X.X.X...       ",
"       .XX.XX..X..      ",
"     ...X.XXX.X....     ",
"     .X..XX.XX......    ",
"    ..X...XXX.X.X..     ",
"    ......X.XXX...      ",
"      .. ...XX...       ",
"          ...X..        ",
"            ...         ",
"                        ",
"                        ",
"                        ",
"                        ",
"                        ",
"                        ",
"                        "};
