/* XPM */
static char * true_lead_111_xpm[] = {
"24 24 3 1",
" 	s None	c None",
".	c grey75",
"X	c grey50",
"                        ",
"                        ",
"                        ",
"                        ",
"          .........     ",
"         .XXXXXXX...    ",
"        .XXXXXXX..X.    ",
"       .XXXXXXX..XX.    ",
"      ..........XXX.    ",
"      ..XXXXXX.XXXX.    ",
"      .XXXXXXX.XXXX.    ",
"      .XXXXXXX.XXXX.    ",
"      .XXXXXXX.XXX..    ",
"      ..XXXXXX.XX..     ",
"      .XXXXXXX.X..      ",
"      ..XXXXX....       ",
"        .......         ",
"                        ",
"                        ",
"                        ",
"                        ",
"                        ",
"                        ",
"                        "};
