/* XPM */
static char * Bk_115_xpm[] = {
"24 24 6 1",
" 	s None	c None",
".	c Red",
"X	s Light yellow	c Yellow",
"o	s Light green	c Green",
"O	c Black",
"+	c Blue",
"                        ",
"                        ",
".                       ",
"X X.     .              ",
"X X.     ..         .   ",
"  XX      .         X   ",
"  XX.             ..    ",
"   X.           ..XX.   ",
"   XX.         XXXXX.   ",
"   XX.     .   XX XXX   ",
" XX  X    X.   XXXXX.   ",
"  X  X    XX   X XXX    ",
".   XX    XXX  XXX      ",
"..  XX    XX   X  .     ",
"XX             X X. .   ",
"XX  .           XX. .   ",
" X  X     X.    X X .   ",
" X  .     XX    XXXX.   ",
"    .     XX .   XXXo.  ",
"    .     XX .. XX  .o. ",
"   .X.   .   ..     oXX.",
"   .X.   .X  .XX    .X.X",
"  ..XXX  .X   XX    O...",
"  XXXXX. XXX XX    ++Ooo"};
