/* XPM */
static char * Bk_272_xpm[] = {
"24 24 6 1",
" 	s None	c None",
".	c red",
"X	c yellow",
"o	c Black",
"O	c green",
"+	c blue",
"                        ",
"                        ",
"                        ",
"                        ",
"                        ",
"  ..         ... X      ",
" XX..X... . .XXXX       ",
" .XX XXX....X ..  .. X  ",
" . .   XXXXXX . XX XXX. ",
"  .....        XXXX .X. ",
" ..X XX.XX . XXXoooXXXX ",
"    ....X...XXXXXXoX.X. ",
"      ..X.XX.XooooooXX  ",
"  o     X .XXXooooooXX  ",
"  o        . XXooooXX.  ",
"  O         X.X oooXX.. ",
"  OO        ..  ooo.XX  ",
"  oO            ooo..   ",
" oOO            ooo     ",
"oOOO            oo      ",
"OOOO            oo      ",
"OOOo            oo      ",
"OOo++           oo      ",
"OOo+++          ooo     "};
