/* XPM */
static char * Bk_515_xpm[] = {
"24 24 5 1",
" 	s None	c None",
".	s Light yellow	c Yellow",
"X	c Black",
"o	c Blue",
"O	c Red",
"     .     X..Xo.ooooooX",
"  .. .. XXXXXXXXoooooooX",
"  .  O.    XXXXXXXXooX  ",
"  .O  ..  X XXXXXXXX    ",
"         X   XXXXXXX    ",
".            X.XXXXX    ",
"..        .. X.XXXXX    ",
"..   .     ..X.XXXXX    ",
"...  . ..   OX.XXXX     ",
".O. .. O..   X.XXXX     ",
".O ..O OOO.  X.XXX      ",
"   OO. ..    X.XXX      ",
"   O..       XXXXX      ",
"   ..        XXXXX      ",
"            .XXXXX      ",
"           .XXXXXX      ",
"         X.XXXXXXX      ",
"         XXXXXXXX       ",
"         XXXXX          ",
"                        ",
"                        ",
"                        ",
"                        ",
"                        "};
