/* XPM */
static char * swall_F_111_xpm[] = {
/* width height ncolors chars_per_pixel */
"24 24 3 1",
/* colors */
" 	s None	c none",
".	c Black",
"X	c Khaki",
/* pixels */
"         .  . ..        ",
"         . . .X.        ",
"         . .  .         ",
"         ..  .          ",
"         ..  .          ",
"   .   . .X.   .   .   .",
"  ..  ..  ..  ..  ..  ..",
" .X. .X. .X. .X. .X. .X.",
"  .   .   .   .   .   .X",
"........................",
" .   .   .   .   .   .  ",
".   .   .   .  .    .   ",
".   .   ..  . ..    .   ",
"   .   . . . .X.   .   .",
"   .   . . .  .    .   .",
"  .   .  ..  .    .   . ",
"  .   .  ..  .    .   . ",
" .   .   .  .  . .   .  ",
"..........  . .. .......",
"         . . .X.        ",
"         . .  .         ",
"         ..  .          ",
"         ..  .          ",
"         .  .  .        "};
