/* XPM */
static char * cobra_111_xpm[] = {
/* width height ncolors chars_per_pixel */
"24 24 6 1",
/* colors */
" 	s None	c None",
".	s Dark green	c SeaGreen",
"X	c White",
"o	s Light brown	c Khaki",
"O	c Green3",
"+	c Red",
/* pixels */
"                        ",
"       .....            ",
"   ...........          ",
"  ............          ",
" ..XX...o......         ",
" ..... .......O.        ",
" .... ...o......        ",
" ...  .......o..        ",
"  .  ...o.......        ",
" +   ........o..        ",
" +  ...o........        ",
"+ + .........o..        ",
"    ...o........        ",
"    .........o..        ",
"    ...........         ",
"    ...o.....o.         ",
"    ...........         ",
"     ..o......          ",
"     .........          ",
"      ..O....           ",
"      .O....            ",
"       ....             ",
"      .....             ",
"     .....              "};
