/* XPM */
static char * GreatDemon_G_xpm [] = {
" 24 24 5 1 " ,
" 	s None	c None",
".	c black",
"X	c Red",
"o	c Yellow",
"O	s White	c white",
"........XoooXX..........",
"........XoooXX..........",
".......XooooX...........",
".......ooooXX...........",
"......XoooXX............",
".....XoooXX.............",
"....XoooXX..............",
"...XoooXX...............",
"..XXooXX................",
".XoooXX.................",
"XoooX....X..............",
"oooX..XXXX.....XX.......",
"ooX.XXXXX...XXXXX.......",
"X..XXXXXX.XXXXXXX.......",
".XXXXXXXXXXXXXXX........",
"XXXXXXXXXXXXXXXX........",
"XXXXXXXXXXXXXXX.XX......",
"XXXXXXXXXXXXXXXXXX......",
"XXXXXXXXXXXXXXXXX.......",
"XXXXXXXXXXXXXXXX........",
"XXXXXXXXXXXXXXX.........",
"XXXXXXXXXXXXXX..........",
"XXXXXXXXXXXX............",
"..XXXXX.............XX.."};
