/* XPM */
static char * GreatDemon_1_xpm [] = {
" 24 24 5 1 " ,
" 	s None	c None",
".	c black",
"X	c Red",
"o	c Yellow",
"O	s White	c white",
"                        ",
"                        ",
"                        ",
"                        ",
"                        ",
"                        ",
"                        ",
"                        ",
"                        ",
"                        ",
"                        ",
"                        ",
"                        ",
"                        ",
"                        ",
"                        ",
"                        ",
"                   .    ",
"                  ..    ",
"                  ....  ",
"                  ....  ",
"                  ..o.. ",
"                  .Xoo..",
"                  .XooX."};
