/* XPM */
static char * GreatDemon_L_xpm [] = {
" 24 24 5 1 " ,
" 	s None	c None",
".	c black",
"X	c Red",
"o	c Yellow",
"O	s White	c white",
"........................",
"........................",
"........................",
"..............XX........",
"..............XXXXXX....",
"........................",
"........................",
"........................",
".......................X",
"......XXXX.......XXXXXX.",
".........X.........X....",
"........................",
"........................",
"........................",
"........................",
"........................",
"........................",
"........................",
"........................",
"........................",
".......................X",
"......................XX",
".....................XXX",
"......................XX"};
