/* XPM */
static char * GreatDemon_D_xpm [] = {
" 24 24 5 1 " ,
" 	s None	c None",
".	c black",
"X	c Red",
"o	c Yellow",
"O	s White	c white",
"                .......X",
"                 ......X",
"                 ......X",
"                .......X",
"               ........X",
"               ........X",
"              ..........",
"              ..........",
"             ...........",
"             ...........",
"             ...........",
"            ............",
"            ............",
"            ......XX....",
"            ......XXX...",
"            .....XXXX...",
"            .....XXXX...",
"           ......XXXXX..",
"          .......XXXXXX.",
"         ........XXXXXXX",
"         ........XXXXXXX",
"        ..........XXXXXX",
"        ...........XXXXX",
"       .............XXXX"};
