/* XPM */
static char * t_house2_111_xpm[] = {
"24 24 7 1",
/* colors */
" 	s None	c None",
".	c Black",
"X	c white",
"o	c blue",
"O	c cyan",
"+	c goldenrod",
"@	c grey75",
"                        ",
"                        ",
"                     ..X",
"                  ...ooX",
"               ......ooo",
"            ...O.O.o....",
"         ...........o.o.",
"       ..o.O.O.o.o.O...O",
"     ...............o.o.",
"     .+..O.o.o.O.o...O.o",
"     .@+..........O.o...",
"    ..+@@+...O.o.......o",
"    ....+@@+.....XXXX...",
"     ..@..+@.X+X+X+X+X+X",
"     .@@.@.+.+X+X+X+X+X+",
"     .@@@@@.............",
"     ..@@@@..X..XXX..XXX",
"     ..@.@@@.XXXXXXXXXXX",
"     ..@.@.@.XXXXXXXXXXX",
"     ..@.@.@.XXX..XXX..X",
"     .@@.@.@.XXX..XXX..X",
"     .@@.@.@.XXX..XXX..X",
"     ..@@@.@.XXX..XXX..X",
"     .@.@@@@.XXX..XXX..X"};
