#define cursed_width 24
#define cursed_height 6
static char cursed_bits[] = {
 0x4e,0x1a,0x77,0x51,0xaa,0x10,0x41,0x1a,0x73,0x51,0x2a,0x14,0x8e,0xa9,0x73,
 0x00,0x00,0x00};
