#define damned_width 24
#define damned_height 6
static char damned_bits[] = {
 0x8f,0x6c,0x09,0x52,0x6d,0x0b,0xd2,0x55,0x0b,0x52,0x55,0x0d,0x4f,0x45,0x09,
 0x00,0x00,0x00};
