/* XPM */
static char * tree_2_111_xpm[] = {
/* width height ncolors chars_per_pixel */
"24 24 8 1",
/* colors */
" 	s Light green	c Green",
".	s Dark green	m white	c SeaGreen",
"X	s Dark brown	c Sienna",
"o	s Light yellow	c Yellow",
"O	c Black",
"+	s Brown	c Peru",
"@	c Red",
"#	s Dark orange	c Chocolate",
/* pixels */
"  .X. X      .  X       ",
"o . .    oXO .  o .  X  ",
"o. .   . oO.O  o .X   . ",
"X   + . oOO..O   .   . o",
"  .X @. OO..OOO .  X . o",
" .   . O..OOO..O   X.   ",
" .  +X OO.....OO  o   X ",
".X o  O.OO.O.OO.O o  .  ",
"o o  OO...OOO...OO  . X ",
"  o . OO.......OO   .  o",
"  +. O.OO.O...OO.O .X .o",
" X .OO...OOOOO...OO  .  ",
"  . OOO.O.......OOOo .. ",
"   O..OOO..O..OOO..O..  ",
". OO.....OOOOO.....OO.  ",
"   OO.O.........O.OO.o .",
" XO..OOO..O....OOO..Oo .",
" OO.....OOOOOOO...O.OO. ",
" oOOO...........O.OOO X ",
"o + OOOO.O..O..OOOO     ",
"o  .  . OOOOOOO . . +  .",
" X.    X oXXXo . . X  . ",
"  .     o XXXo        . ",
" .  X.   XXX#X. Xo   . X"};
