/* XPM */
static char * madman_112_xpm[] = {
"24 24 7 1",
" 	s None	c None",
".	s Gray	c Grey50",
"X	s Dark gray	c Grey25",
"o	s Dark red	c firebrick",
"O	s Dark brown	c Sienna",
"+	s Light yellow	c yellow",
"@	s Yellow	c Gold",
"                        ",
"       .                ",
"      .X                ",
"     .XXX      XX       ",
"       o X     XX       ",
"      o    OO    o      ",
"     o    OOOO    o     ",
"    o     O++O     o    ",
"  OO      OOOO      oO  ",
"   OO      OO      OO   ",
"     OOOOOOOOOOOOOO     ",
"         OO@@OO         ",
"         OO@@OO         ",
"         OO@@OO         ",
"          O@@O          ",
"          OOOO          ",
"         OOOOOO         ",
"         OO  OO         ",
"         OO  OO         ",
"         OO  OO         ",
"         O    O         ",
"         O    O         ",
"         O    O         ",
"        OO    OO        "};
