/* XPM */
static char * princess_111_xpm[] = {
/* width height ncolors chars_per_pixel */
"24 24 5 1",
/* colors */
" 	s None	c None",
".	c Black",
"X	s Light brown	c Khaki",
"o	s Light green	c Green",
"O	c Blue",
/* pixels */
"                        ",
"        ......          ",
"     ....XXXXX.         ",
"   ...oo..X.XX..        ",
"    .oo. ..XX.X.        ",
"    .... ..XX..         ",
"    .X....X..X..        ",
" ...X...OO....OO.       ",
"   ...o.OOOOOOOO.       ",
"  ..  .o.OOOOOO.X.      ",
"     .o. .O..O. .X.     ",
"    .o.  ..OO..  .X.    ",
"    ..   .OOOO.   ..    ",
"        .OOOOOO.        ",
"       .OOOOOOOO.       ",
"       .OO.OOOOO.       ",
"      .OOO.OO.OOO.      ",
"      .OOO.OO.OOO.      ",
"     .O.O.OOOO.O.O.     ",
"    .O.OO.OO.O.OO.O.    ",
"    ..OO.OOO.OO.O...    ",
"      .O.OOO.OO.O.      ",
"      .. ... .. ..      ",
"                        "};
