/* XPM */
static char * big_slave_111_xpm[] = {
"24 24 6 1",
" 	s None	c None",
".	c black",
"X	c white",
"o	c Khaki",
"O	c goldenrod",
"+	c red",
"          .             ",
"         ...            ",
"        .XXX.           ",
"         .X.            ",
"         ...            ",
"         .o.            ",
"       ..o.o..          ",
"      .ooooooo.         ",
"      .oOoooOo.         ",
"     .o.ooooo.o.        ",
"     .o..oOo..o.        ",
"     .o  OoO  .o        ",
"     o. .+.+. .o.       ",
"     .. .....  ..       ",
"       .o...o.          ",
"       .oo.oo.          ",
"       .o. .o.          ",
"       ... ..           ",
"        .  o.           ",
"        .. ..           ",
"        .. .o           ",
"       .o. .o.          ",
"       ..   ..          ",
"                        "};
