#define applied_width 24
#define applied_height 6
static char applied_bits[] = {
 0xe7,0xa4,0x3b,0x11,0x25,0x49,0x13,0x25,0x39,0x11,0x25,0x09,0xe7,0x98,0x0b,
 0x00,0x01,0x00};
