#define magic_width 24
#define magic_height 6
static char magic_bits[] = {
 0x9b,0x38,0x39,0x5b,0x05,0x45,0xd5,0x75,0x05,0x55,0x45,0x45,0x51,0x39,0x39,
 0x00,0x00,0x00};
