/* XPM */
static char * tee_we,sw_111_xpm[] = {
"24 24 3 1 0 0",
" 	s None	c None",
".	s Dark blue	c Navy",
"X      s Light blue    c DodgerBlue",
"                        ",
"                        ",
"                        ",
"    .......             ",
"................       .",
"........................",
".......XX...............",
"..XXX...................",
".............XXX....XX..",
"...................X....",
"........XX..............",
"........................",
"....XX..................",
"................XXX.....",
"........................",
"..XX.......XX...........",
".....XX.................",
".....................XX.",
"................XX......",
"...........XX...........",
"........X.............. ",
"...XX............       ",
"..X...........          ",
"...........             "};
