/* XPM */
static char * tee_ns,sw_111_xpm[] = {
"24 24 3 1",
" 	s None	c None",
".	s Dark blue	c Navy",
"X      s Light blue    c DodgerBlue",
"    ................    ",
"    ..X........X.....   ",
"    ..X........X.....   ",
"    .................   ",
"   ...........X...X..   ",
"   .......X.......X..   ",
"   ..X....X.........    ",
"   ..X....X.........    ",
"   ..............X..    ",
"  ...........X...X..    ",
"  ...........X......    ",
"  ..X...X.......X...    ",
" ...X...X...........    ",
"...................     ",
".............X.....     ",
"...X.........X.....     ",
"...................     ",
".......X...........     ",
".......X...X.......     ",
"..X........X....X..     ",
"..X.....X.......X..     ",
"........X.......X...    ",
"....................    ",
"....................    "};
