/* XPM */
static char * river-1,-3_111_xpm[] = {
"24 24 3 1",
" 	s None	c None",
".	s Dark blue	c Navy",
"X      s Light blue    c DodgerBlue",
"                        ",
"                        ",
"            ....        ",
"         ............   ",
"        ................",
"        ................",
"       ..............X..",
"     .........XX...XX...",
"   .......X.............",
"  ...X..XX..............",
"  ...........X..........",
" ......X...XX...........",
" ...XX..............X...",
"..................XX....",
"........................",
"........................",
"...........X....X...XX..",
"....X...XXX...X.........",
"..XX....................",
".................  ..  .",
"......X.......          ",
"...X........            ",
"..X........             ",
"...........             "};
