/* XPM */
static char * lamia_131_xpm[] = {
"24 24 6 1",
" 	s None	c None",
".	c gold",
"X	c black",
"o	c Green3",
"O	c SeaGreen",
"+	c SeaGreen",
"                        ",
"          .. . .        ",
"         XXX.....       ",
"         XoX. .         ",
"         XXX .          ",
"   XXX    OX            ",
"   XoX  XXOXX           ",
"    XoXXoOoXoX          ",
"     XoXXOOXoX          ",
"      X  OOXoX          ",
"          XoXXX         ",
"       XXooXOoOX     XXX",
"       XoXXXoO++XX XX+o+",
"        X  XO++o+++++o+o",
"           XX+o+o+o+o+o+",
"            Xo+o+ooo+o+o",
"            X+o+o+o+o+oX",
"            Xo+o+o+o+oX ",
"            XXo+o+o+o+X ",
"             Xoo+o+o+X  ",
"             XXXoooXX   ",
"                XXX     ",
"                        ",
"                        "};
