/* XPM */
static char * pl_half_orc_111_xpm[] = {
"24 24 8 1",
" 	s None	c none",
".	c black",
"X	c grey75",
"o	c maroon",
"O	c goldenrod",
"+	c chocolate",
"@	c brown",
"#	c SeaGreen",
"                        ",
"                        ",
"         ...            ",
"        ..X..       ..  ",
"       .......     ...  ",
"       ..o.o..     .X.  ",
"        .OoO.      ...  ",
"      ....O....    ..   ",
"     .+@+...+@+.. ...   ",
"    ...+@+@+@+.o. ..    ",
"    .o..+@+@+..oo...    ",
"   .o...@+@+@. .o...    ",
"   .o. .+@+@+. ...o.    ",
"   ..  .##@##.   ...    ",
"   .o. .+###+.   ..     ",
"   ... .@+@+@.   .      ",
"      .@+@+@+@.         ",
"      .+@+.+@+.         ",
"      .oo. .oo.         ",
"      .o.   .o.         ",
"       .o. .o.          ",
"      .... ....         ",
"      ..     ..         ",
"                        "};
