/* XPM */
static char * scrollr_111_xpm[] = {
/* width height ncolors chars_per_pixel */
"24 24 3 1",
/* colors */
" 	s None	c None",
".	c Black",
"X	c White",
/* pixels */
"                        ",
"                        ",
"     .................  ",
"   ..XXXXXXXXXXX.X.X... ",
"   .XXXXXXXXXXXXXXXX... ",
"   .XXXXXXXXXXXXXXXX... ",
"   .XXX....X..XX...X... ",
"   .XXXXXXX.XXX.XXXX..  ",
"    ...XXXXXXXXXXXXX.   ",
"   .XXXXXXXX.XXXXX.X.   ",
"   .XXXX....XX.X..XX.   ",
"   .XXXXXXXXXXXXXXXX.   ",
"   .XX.XXXXXXXX.XXXX.   ",
"   .X.X..X..X..XXXX.    ",
"   .XXXXXXXXXXXXXXX.    ",
"   .XXXXXXXXXXXXXXXX.   ",
"  ................X..   ",
" .XXXXXXXXXXXXXXXX...   ",
" .XXXXXXXXXXXXXXXX...   ",
" ..XXXXXXXXXXXXXXX...   ",
" .XX.X.X.X.X.X.X.X...   ",
"  ........ .........    ",
"                        ",
"                        "};
