/* XPM */
static char * ring_112_xpm[] = {
/* width height ncolors chars_per_pixel */
"24 24 3 1",
/* colors */
" 	s None	c None",
".	s Light Orange	m Black	c Orange",
"X	c White",
/* pixels */
"                        ",
"                        ",
"                        ",
"                        ",
"                        ",
"         .....          ",
"       ..XXXXX..        ",
"      .XXX...XXX.       ",
"     .X.X..X..X.X.      ",
"    .XXXXX...XXXXX.     ",
"    .XX..XXXXX..XX.     ",
"   .XX.  .....  .XX.    ",
"   .X.           .X.    ",
"   ..             ..    ",
"   .               .    ",
"   .               .    ",
"   ..             ..    ",
"    ..           ..     ",
"    ...         ...     ",
"     ....     ....      ",
"      ...........       ",
"        .......         ",
"                        ",
"                        "};
