/* XPM */
static char * ring_drain_113_xpm[] = {
/* width height ncolors chars_per_pixel */
"24 24 3 1",
/* colors */
" 	s None	c None",
".	c Black",
"X	c White",
/* pixels */
"                        ",
"                        ",
"                        ",
"          ....          ",
"        ...XX...        ",
"       ..X....X..       ",
"      .X.X.XX.X.X.      ",
"     .XXX..XX..XXX.     ",
"     .X...X..X...X.     ",
"    .X.. ..XX.. ..X.    ",
"    ...   ....   ...    ",
"    ..            ..    ",
"    ..            ..    ",
"    ..            ..    ",
"    ..            ..    ",
"     ..          ..     ",
"     ..          ..     ",
"      ...      ...      ",
"       ..........       ",
"         ......         ",
"                        ",
"                        ",
"                        ",
"                        "};
