/* XPM */
static char * giant_112_xpm[] = {
"24 24 5 1",
" 	s None	c None",
".	s Dark brown	c sienna",
"X	c black",
"o	s Light gray	c Grey75",
"O	s Light red	c salmon",
"                        ",
"             ....       ",
"            ...X..      ",
"            ..oo..      ",
"            ..ooX..     ",
"             o.....     ",
"            o ......    ",
"      .....    .....    ",
"     ..OOOO.    .....   ",
"     .OOOOOO.    .....  ",
"    ..OXXOXXO.    ....  ",
"    ..OOOOOOO.     .... ",
"    ..OOOXOO..      ... ",
"     ....O...        .. ",
"      ......        ..O.",
"  .........O....    ..O.",
" .OO...OOOOOO....   .OOO",
".OOO....OOOOO...O.  .OO.",
".OOOO...OOOOOO..OO. .OO.",
".OOO.....OOOOO..OOO.OO. ",
".OOO.O...OOOOO..OOO.OO. ",
".OOO.O...OOOOOO.OOOOOO. ",
".OOOO....OOOOOO.OOOOOO. ",
"..OOO....OOOOOOO.OOOO.  "};
