/* XPM */
static char * mabu_211_xpm[] = {
/* width height num_colors chars_per_pixel */
"24 24 3 1",
/* colors */
" 	s None	c None",
".	c black",
"X	c white",
/* pixels */
"       .XX.X.XXX.X.     ",
"      ..XXX...XX..      ",
"      .XXX...XXXX.      ",
"      .XXX....XXX.      ",
"      .XXXX..XXXX.      ",
"      .XXXX.XXXXX.      ",
"       .XXX..XXXX.      ",
"       .XXX..XXXX.      ",
"        .XX..XXX.       ",
"        .XX..XXX.       ",
"        .XX. .XX.       ",
"         .X. ..X.       ",
"        .XX. .XXX.      ",
"       .XXX.  .XX.      ",
"       .XX.    .X.      ",
"       .X.     .XX.     ",
"      .XX       .X.     ",
"     .XX.       .X.     ",
"     .X.         .X.    ",
"     .X.         .XX.   ",
"      .X.        .XX.   ",
"       ..        .X.    ",
"                 ..     ",
"                        "};
