/* XPM */
static char * centaur_111_xpm[] = {
/* width height ncolors chars_per_pixel */
"24 24 4 1",
/* colors */
" 	s None	c None",
".	s Dark brown	c sienna",
"X	s Gray	c Grey50",
"o	s Light brown	c Khaki",
/* pixels */
"        ...             ",
"X      .....            ",
"XX     .oo..            ",
"XX     .oo..            ",
"XX    .....   ..        ",
" .    ...o.  .o.        ",
" .      .o...o..        ",
"  .   ..oooo..o.        ",
"  .  ...o.o.o.o.        ",
"  . ...oooo.o.o.    ..  ",
"  . . .oooo..oo.   .... ",
"   .. .oooo.............",
"   .. .ooo..........  ..",
"   .. ..............  ..",
"   .. .............. ...",
"   .. ..............   .",
"   .. ..............    ",
"    . ..............    ",
"    . ... ... ..  ..    ",
"      ..  ..   ..  ..   ",
"      ..  ..   ..  ..   ",
"      ..  ..  ..  ..    ",
"      ..  ..  ..  ..    ",
"      ..  .. ..  ..     "};
