/* XPM */
static char * lwoodhouse_111_xpm[] = {
"24 24 5 1 0 0",
" 	s None	c None",
".	s Dark red	c firebrick",
"X	c Black",
"o	s Dark brown	c sienna",
"O	s Light brown	c Khaki",
"                        ",
"                        ",
"                        ",
"                      ..",
"                  ....X.",
"                .X..X..X",
"            .X.X.X..X...",
"           X.X.X.X....X.",
"          XX.......X..X.",
"         XXoX.X..X.X....",
"        XXooX....X...X..",
"       XXoXooX..X..X.XX.",
"       XoooXoX...X......",
"      XXooooooX....X.X..",
"     XXooXooooX.X..X.X..",
"    XXooooXXoooX.......X",
"   XXoXXoooooXoX..X....X",
"   XXoooXoooooooX.X.X...",
"  XXXoooooXoooooX...X.X.",
"    XXooooooXXoooX....X.",
"    XoXoXXoooooXoX..X.X.",
"    XoooXOXXooooooX.X...",
"    XoooXOOOXXooooX...XX",
"    XoXoXOOOOXoooX.XXXX."};
