/* XPM */
static char * worthless_dragon_131_xpm[] = {
/* width height ncolors chars_per_pixel */
"24 24 5 1",
/* colors */
" 	s None	c None",
".	c Green3",
"X	c cyan",
"o	c blue",
"O	c Navy",
/* pixels */
"                        ",
"                        ",
"                       .",
"........................",
"  ..X....X...X....X....X",
"    ..XXXXXXX.XXXX.XXXXX",
"      ...XXXXXXXXXXXXXXX",
"         ..XXX...X.X.X..",
"           ..XXXXXXXXXXX",
"             ...XXX...X.",
"                ..XXXXXX",
"                  ...XXX",
"                     ..X",
"                       .",
"                        ",
"                     o  ",
"                 o   ooo",
"             o   ooooOoO",
"         o   ooooOoOOOOO",
"         ooooOoOOOOOoOOO",
"     ooooOoOOOOOoOOOOOOo",
"     oOoOOOOoOOOOOOOOOoO",
"  oooOOOoOOOOOOOOOOOOOoO",
"  ooOOOOOOOoOOoOOoooOOoO"};
