/* XPM */
static char * worthless_dragon_632_xpm[] = {
/* width height ncolors chars_per_pixel */
"24 24 3 1",
/* colors */
" 	s None	c None",
".	c Navy",
"X	c blue",
/* pixels */
".XXXXXXX.X....X         ",
"..X     XXXXX..XX       ",
"...X       XXXX..XXXX   ",
"X..XX         XX.....X  ",
"....X           X.XXX.X ",
"X.X..X           XX  X.X",
"XX...X           XX   XX",
" XXX..XX          XX   X",
"   XXX..XX         XX   ",
"     XXX..XX         X  ",
"       XXX..XXXX        ",
"         XXX....XX      ",
"X          XX.XX..X     ",
"X           XX  XX.X    ",
"X           XX    XX    ",
"X            XX         ",
"X             XX        ",
"X               X       ",
"X                       ",
"XX                      ",
"..XX                    ",
"XX..X                   ",
"  XXXX                  ",
"                        "};
