/* XPM */
static char * worthless_dragon_532_xpm[] = {
/* width height ncolors chars_per_pixel */
"24 24 3 1",
/* colors */
" 	s None	c None",
".	c Navy",
"X	c blue",
/* pixels */
".....X.XX.XXX.....XXX...",
".X......X..........XX.X.",
"X.....X..X.X.X.X.X..XX..",
"X.X......XXX.X.X.X.X.XX.",
"XX.....X..X.X.X.X.XXXXXX",
"XX.X......XX.X.XXXXXX..X",
"XXX.X.....XXXXXXXX..XX..",
"XXXX.......XXXXX.....XX.",
"  XXXX..X..X  XXX.X...X.",
"   XX....X.X   XXX....XX",
"    XXX....X    XX.X...X",
"     XX....X     XX.X..X",
"      XX...X      XX.X..",
"      XX..X        XX...",
"      XX..X         XX..",
"      XX..X          X..",
"      X...X          X.X",
"      X.XX           X..",
"      X..X         XXX.X",
"    XXX.XX       XX.X...",
"  XX.X...XX        X..XX",
"    X..XX..XX     X.XX X",
"   X.XX XXX..X    XX    ",
"   XX      XXXX         "};
