/* XPM */
static char * elec_dr_311_xpm[] = {
"24 24 3 1",
" 	s None	c None",
".	c Blue",
"X	s Light blue	c DodgerBlue",
"  ..X.....   . ... .XXXX",
"  ...XXXXX... .XX....XXX",
"  ..XXXXXXXXX...XXXXXXXX",
"  ..XXXXXXXXXXXX.....XXX",
"  ..XXXXXXXXXX..XXXX.XXX",
"  ...XXXXXXXX.XXXX..XXXX",
"  . ..XXXXXX.XXXX.XXXXXX",
"  .  ..XXXX.XXXXX.XXXXXX",
"      ..XX.XXXXX.XXX..XX",
"    . ...X.XXXXX.XXXXX.X",
"   . .X....XXXX.XXXXXXX.",
"    .XXX..XXXXX.XXXXXXX.",
"  . .XXX....XXX.XXXXXXX.",
"   .XXXX..X..X..XXXXXXX.",
" . .XXXX.XXX....XXXXXXX.",
"  .XXXXX.XXXXX..XXXXXXX.",
"  .XXXXXXXXX.X..XXXXXX.X",
" .XXXXXXXXX.X...X.XXX.XX",
" .XXXXXXXXXX..X.. .XXXXX",
" .XXXXXXX.X.XXX. . ..XXX",
".XXXXXXXXX.X.X..     .XX",
".XXXXXXX.X..X.        .X",
".XXXXXXXX.XX. .        .",
".XXXXXXXXX.X.           "};
