/* XPM */
static char * orc_gen_111_xpm[] = {
/* width height ncolors chars_per_pixel */
"24 24 5 1",
/* colors */
" 	s None	c None",
".	c Red",
"X	c sienna",
"o	c Black",
"O	c white",
/* pixels */
"                        ",
"  .        .        .   ",
"  .       X.X       .   ",
"  ..     X...X     ..   ",
"  ...  oooX.Xooo  ...   ",
"   ...XooooXooooX...    ",
"   ...XoooooooooX...    ",
"    .Xo.XoooooX.oX.     ",
"    Xooo.XoooX.oooX     ",
"   oooooo.ooo.oooooo    ",
"   ooooOoooooooOoooo    ",
"   ooooOoOoooOoOoooo    ",
"   oooooO.ooo.Oooooo    ",
"   ooooooXoooXoooooo    ",
"   oooooXoooooXooooo    ",
"    ooooooo.ooooooo     ",
"    oooooo...oooooo     ",
"    ooooooooooooooo     ",
"    ooo.ooooooo.ooo     ",
"     ooX.......Xoo      ",
"     oooX.....Xooo      ",
"      ooooooooooo       ",
"        ooooooo         ",
"                        "};
