/* XPM */
static char * flagstone_D_111_xpm[] = {
"24 24 5 1",
" 	s None	c None",
".	c black",
"X	s Gray	m white	c Grey50",
"o	s Light gray	c Grey75",
"O	c white",
"      .XXooXoX....      ",
"      .XooOXoX....      ",
"      .XoOXXoX....      ",
"..................      ",
"..................      ",
"..................      ",
"..................      ",
"XXXXXXXXXXXXX.....      ",
"XXoooOXXooOXX.....      ",
"XoooooOXooOX.X....      ",
"XoooooOXooOX.X....      ",
"XXooooOXoOX.XX....      ",
"XXXXoOXXXXX.XX....      ",
"XXXXXXXXXX.XXX....      ",
"XXoOXooOXX.XoX....      ",
"XooOXooOX.XooX....      ",
"XoOXXoOXX.XooX....      ",
"XoOXooOX.XooOX....      ",
"XoOXoOXX.XXOXX....      ",
"XOXXXXX.XoXXXX....      ",
"XXXXXXX.XoXooX....      ",
".......XoOXoOX....      ",
"      .XOXXOXX....      ",
"      .XXXXXXX....      "};
