/* XPM */
static char * shovel_1_114_xpm[] = {
/* width height ncolors chars_per_pixel */
"24 24 3 1",
/* colors */
" 	s None	c None",
".	c Black",
"X	c white",
/* pixels */
"                        ",
"                        ",
"                        ",
"       .                ",
"      . .               ",
"     .  .               ",
"    .   .               ",
"   .   ..               ",
"    .....               ",
"         .              ",
"          .             ",
"           .     .      ",
"            .    X      ",
"             .  XX.     ",
"              .X.X.X    ",
"             .XXXXXXX.  ",
"             XX..X...   ",
"             ...XX...   ",
"              ...X...   ",
"               ...X..   ",
"                .....   ",
"                        ",
"                        ",
"                        "};
