/* XPM */
static char * stake_111_xpm[] = {
/* width height ncolors chars_per_pixel */
"24 24 3 1",
/* colors */
" 	s None	c None",
".	c Black",
"X	s Light brown	c Khaki",
/* pixels */
"                        ",
"       ........         ",
"      ...XXXXX.         ",
"     .XX.XXXXX..        ",
"    ..X.X.X.XXX.        ",
"   .XXX.X..XX.X.        ",
"    .X.X.X.XXXX..       ",
"    .X.XX...X.XX.       ",
"     .XX.XX..XXX.       ",
"      ..XX.X.XXX.       ",
"       .X..X.XX...      ",
"       ..XXX..XXX.      ",
"        .X..X.X.X.      ",
"         .X.X.XXX.      ",
"          ...X..X.      ",
"          .X.X.XXX.     ",
"           ..X.X.X.     ",
"            ....XX.     ",
"             .X.XX.     ",
"             .X..X.     ",
"              .X.XX.    ",
"               .X.X.    ",
"                ..X.    ",
"                  ..    "};
