/* XPM */
static char * jcity_5_111_xpm[] = {
/* width height ncolors chars_per_pixel */
"24 24 7 1",
/* colors */
" 	c black",
".	s Gray	m white	c Grey50",
"X	c Green3",
"o	s Brown	m black	c Peru",
"O	s Dark brown	m white	c Sienna",
"+	s Light gray	c grey75",
"@	c White",
/* pixels */
" . XX     ..XXX...    . ",
" . XX ooo ........ oo . ",
" . X      .......     . ",
" . X ooo X..XXX.. oo  . ",
" . X     X..XXX..     . ",
" . XX     ..     X    . ",
" . XX OOO .. ooo X OO . ",
" . X      .           . ",
" . X XXX X. +++ X OO  . ",
" . X     X.     X     . ",
" . ............    XX . ",
" . ............ oo XX . ",
" . XXXX@@XX..X     XX . ",
" . X@@X@@XX..X ++ XXX . ",
" . X@@XXXXX..X     XX . ",
" . XXX@@X   .XX OO XX . ",
" . XXX@@X @ .X     XX . ",
" . X     @@ .X OO XXX . ",
" . X OOOO@ ..X    XXX . ",
" .      @  ....    .. . ",
" .  @@@@@ X.... oo .. . ",
" .        X..X     XX . ",
" . XXXXXXXX..X oo XXX . ",
" . XXXXXXXX..X    XXX . "};
