/* XPM */
static char * jcity_C_111_xpm[] = {
/* width height ncolors chars_per_pixel */
"24 24 6 1",
/* colors */
" 	c black",
".	s Light gray	c grey75",
"X	s Gray	m white	c Grey50",
"o	c Green3",
"O	s Dark brown	m white	c Sienna",
"+	s Brown	m black	c Peru",
/* pixels */
"                        ",
". .. .. .. .. .. .. ..  ",
"...........  .........  ",
".......... XX ....... X ",
"           XX         X ",
"ooooo     oXXoo     o X ",
"ooooo OOO oXXoo +++ o X ",
"oooo      oXXo      o X ",
"oooo ooo ooXXo XXX oo X ",
"oooo     ooXXo     oo X ",
"XXXXXXXXXXXXXoo    oo X ",
"XXXXXXXXXXXXXoo ++ oo X ",
"o    oo    XXo     oo X ",
"o ++ oo ++ XXo .. ooo X ",
"     o     XXo     oo X ",
" .. oo ++ oXXoo ++ oo X ",
"    oo    oXXo     oo X ",
"o    o     XXo ++ ooo X ",
"o ++ o OOO XXo     oo X ",
"           XXoo ++ oo X ",
" ++ o ... oXXo     oo X ",
"    o     oXXo ++ ooo X ",
"oooooooooooXXo    ooo X ",
"oooooooooooXXoooooooo X "};
